<?xml version="1.0" standalone="no"?>
<!DOCTYPE svg PUBLIC "-//W3C//DTD SVG 1.1//EN" "http://www.w3.org/Graphics/SVG/1.1/DTD/svg11.dtd" >
<svg>
<metadata>
Created by FontForge 20090914 at Thu Jul 26 15:06:34 2012
 By www-data
(c) Copyright 1997 International Typeface Corporation. All rights reserved.
</metadata>
<defs>
<font id="OfficinaSerifITCTTBook" horiz-adv-x="500" >
  <font-face 
    font-family="Officina Serif ITC TT"
    font-weight="400"
    font-stretch="normal"
    units-per-em="1000"
    panose-1="0 0 4 0 0 0 0 0 0 0"
    ascent="800"
    descent="-200"
    x-height="480"
    cap-height="686"
    bbox="-108 -233 1040 915"
    underline-thickness="54"
    underline-position="-73"
    unicode-range="U+0020-U+F002"
  />
<missing-glyph 
d="M63 0v766h375v-766h-375zM125 63h250v641h-250v-641z" />
    <glyph glyph-name=".notdef" 
d="M63 0v766h375v-766h-375zM125 63h250v641h-250v-641z" />
    <glyph glyph-name="space" unicode=" " horiz-adv-x="206" 
 />
    <glyph glyph-name="exclam" unicode="!" horiz-adv-x="333" 
d="M216 672l-21.998 -394c-0.666992 -8.66699 -5.33398 -13 -14.001 -13h-29c-8.66699 0 -13.334 4.33301 -14.001 13l-23 398c0 6.66699 4.66699 10 14 10h74c9.33301 0 14 -3.66699 14 -11v-3zM237.002 57c0 -19.333 -6.83398 -36 -20.501 -50s-30.167 -21 -49.5 -21
c-20 0 -36.833 6.83301 -50.5 20.5s-20.5 30.5 -20.5 50.5c0 19.333 7 35.833 21 49.5s31 20.5 51 20.5c18.667 0 34.834 -7 48.501 -21s20.5 -30.333 20.5 -49z" />
    <glyph glyph-name="quotedbl" unicode="&#x22;" 
d="M365 672l-14.9971 -237c-0.666992 -8.66699 -5.33398 -13 -14.001 -13h-22c-8.66699 0 -13.334 4.33301 -14.001 13l-17 242c0 6 4.66699 9 14 9h55c9.33301 0 13.666 -4.66699 12.999 -14zM217.003 672l-14.9971 -237c-0.666992 -8.66699 -5.33398 -13 -14.001 -13h-22
c-8.66699 0 -13.334 4.33301 -14.001 13l-17 241c0 6.66699 4.66699 10 14 10h55c9.33301 0 13.666 -4.66699 12.999 -14z" />
    <glyph glyph-name="numbersign" unicode="#" 
d="M465 391c0 -9.33301 -4.66699 -14 -14 -14h-62l-20 -199h55c9.33301 0 14 -4.66699 14 -14v-36c0 -9.33301 -4.66699 -14 -14 -14h-62l-19 -181c-0.666992 -8.66699 -5.33398 -13 -14.001 -13h-36c-8.66699 0 -13 3.66699 -13 11v4l19 179h-127l-19 -181
c-0.666992 -8.66699 -5.33398 -13 -14.001 -13h-35c-9.33301 0 -14 3 -14 9v6l19 179h-59c-9.33301 0 -14 4.66699 -14 14v36c0 9.33301 4.66699 14 14 14h67l19 199h-59c-9.33301 0 -14 4.66699 -14 14v38c0 9.33301 4.66699 14 14 14h67l21 202
c0.666992 8.66699 5.33398 13 14.001 13h36c8.66699 0 13 -4 13 -12v-2l-21 -201h127l21 202c0.666992 8.66699 5.33398 13 14.001 13h35c9.33301 0 14 -3 14 -9v-5l-21 -201h54c9.33301 0 14 -4.66699 14 -14v-38zM326 377h-127l-19 -199h127z" />
    <glyph glyph-name="dollar" unicode="$" 
d="M438 168c0 -46.667 -14.1699 -86.5 -42.5029 -119.5s-65.5 -52.833 -111.5 -59.5v-65c0 -9.33301 -4.66699 -14 -14 -14h-26c-9.33301 0 -14 4.66699 -14 14v61c-34 1.33301 -70.833 8.16602 -110.5 20.499s-59.5 23.5 -59.5 33.5l1 7l18 47c2 3.33301 4.33301 5 7 5
s5.33398 -1 8.00098 -3c58.667 -30 104 -44.333 136 -43v251c-53.333 30.667 -86.666 52 -99.999 64c-36 32.667 -54 73 -54 121c0 43.333 14.5 80.5 43.5 111.5s65.833 48.833 110.5 53.5v57c0 9.33301 4.66699 14 14 14h26c9.33301 0 14 -4.66699 14 -14v-55
c30.667 -2 61.167 -8.5 91.5 -19.5s45.5 -20.833 45.5 -29.5c0 -1.33301 -0.666992 -3.66602 -2 -6.99902l-17 -43c-1.33301 -3.33301 -3.66602 -5 -6.99902 -5c-2.66699 0 -8 2 -16 6c-36 18.667 -67.667 29.334 -95 32.001v-228c54.667 -31.333 90.667 -56 108 -74
c30.667 -32.667 46 -72.334 46 -119.001zM229.997 382v204c-48.667 -6.66699 -73 -36.667 -73 -90c0 -25.333 5.16699 -46 15.5 -62s29.5 -33.333 57.5 -52zM358.997 160c0 25.333 -5.5 46.833 -16.5 64.5s-30.5 36.5 -58.5 56.5v-226c50 12 75 47 75 105z" />
    <glyph glyph-name="percent" unicode="%" horiz-adv-x="741" 
d="M711 168c0 -56 -12.001 -99.667 -36.001 -131s-57.333 -47 -100 -47c-41.333 0 -73.166 14.167 -95.499 42.5s-33.5 68.5 -33.5 120.5c0 56.667 12 100.5 36 131.5s58 46.5 102 46.5c40 0 71.167 -14.333 93.5 -43s33.5 -68.667 33.5 -120zM541.999 652
c0 -2 -0.666992 -4.66699 -2 -8l-273 -653c-2.66699 -6.66699 -8.66699 -10 -18 -10h-38c-8.66699 0 -13 2.33301 -13 7c0 2.66699 0.666992 5.66699 2 9l272 653c2.66699 6.66699 7.66699 10 15 10h42c8.66699 0 13 -2.66699 13 -8zM293.999 490
c0 -56 -12.001 -99.667 -36.001 -131s-57.333 -47 -100 -47c-41.333 0 -73.166 14.167 -95.499 42.5s-33.5 68.833 -33.5 121.5c0 56 12 99.5 36 130.5s58 46.5 102 46.5c40 0 71.167 -14.333 93.5 -43s33.5 -68.667 33.5 -120zM644.998 163c0 75.333 -21.333 113 -64 113
c-46 0 -69 -39.333 -69 -118c0 -75.333 21 -113 63 -113c46.667 0 70 39.333 70 118zM227.998 485c0 75.333 -21.333 113 -64 113c-46 0 -69 -39.667 -69 -119c0 -74.667 21.333 -112 64 -112c46 0 69 39.333 69 118z" />
    <glyph glyph-name="ampersand" unicode="&#x26;" horiz-adv-x="611" 
d="M577 33c0 -2.66699 -1.99902 -5.66504 -5.99902 -8.99805l-40 -33c-4 -2.66699 -7.33301 -4 -10 -4c-4 0 -7.66699 2 -11 6l-60 69c-58.667 -48 -121 -72 -187 -72c-62 0 -111.833 16.5 -149.5 49.5s-56.5 76.833 -56.5 131.5c0 61.333 26 111.666 78 150.999l54 39
c-58 67.333 -87 125 -87 173c0 47.333 16.667 86.166 50 116.499s75.666 45.5 126.999 45.5c45.333 0 81.833 -13.5 109.5 -40.5s41.5 -62.5 41.5 -106.5c0 -68.667 -45.333 -132.667 -136 -192l166 -187c20 34 30 73 30 117v12c0 8 4 12 12 12h49c8 0 12 -5.66699 12 -17
c0 -65.333 -19.333 -124 -58 -176l69 -79c2 -2 3 -4 3 -6zM356.001 542.002c0 26.667 -8 48.332 -24 64.999s-37 25 -63 25s-47.833 -8.5 -65.5 -25.5s-26.5 -38.167 -26.5 -63.5c0 -37.333 26 -84.666 78 -141.999c67.333 47.333 101 94.333 101 141zM408.001 111l-180 207
c-34.667 -27.333 -58.167 -51 -70.5 -71s-18.5 -43.667 -18.5 -71c0 -37.333 11.833 -67 35.5 -89s55.5 -33 95.5 -33c49.333 0 95.333 19 138 57z" />
    <glyph glyph-name="quotesingle" unicode="'" horiz-adv-x="333" 
d="M207 672l-14.9971 -237c-0.666992 -8.66699 -5.33398 -13 -14.001 -13h-22c-8.66699 0 -13.334 4.33301 -14.001 13l-17 241c0 6.66699 4.66699 10 14 10h55c9.33301 0 13.666 -4.66699 12.999 -14z" />
    <glyph glyph-name="parenleft" unicode="(" horiz-adv-x="370" 
d="M317 -201c0 -4 -5.66797 -9.66699 -17.001 -17s-20 -11 -26 -11c-10 0 -33 27 -69 81c-82 122.667 -123 255 -123 397c0 154.667 48.333 297.667 145 429c24.667 33.333 40.334 50 47.001 50c4.66699 0 8.66699 -1.33301 12 -4l24 -14c4.66699 -2.66699 7 -6 7 -10
s-3 -10 -9 -18c-96 -128 -144 -272.333 -144 -433c0 -159.333 48 -303.333 144 -432c6 -8 9 -14 9 -18z" />
    <glyph glyph-name="parenright" unicode=")" horiz-adv-x="370" 
d="M288 249c0 -153.333 -48.333 -296 -145 -428c-24.667 -33.333 -40.334 -50 -47.001 -50c-4.66699 0 -8.66699 1 -12 3l-24 15c-4.66699 2.66699 -7 5.66699 -7 9c0 4.66699 3 11 9 19c96 128.667 144 272.667 144 432c0 160 -48 304.333 -144 433c-6 8 -9 14 -9 18
s7.66699 10.667 23 20c8.66699 5.33301 15.334 8 20.001 8c9.33301 0 32.333 -27 69 -81c82 -121.333 123 -254 123 -398z" />
    <glyph glyph-name="asterisk" unicode="*" 
d="M415 543c0 -4 -3.66992 -7 -11.0029 -9l-114 -26l77 -88c3.33301 -4 5 -7 5 -9c0 -3.33301 -2.66699 -7 -8 -11l-35 -25c-4.66699 -3.33301 -7.66699 -5 -9 -5c-3.33301 0 -6.66602 2.66699 -9.99902 8l-60 100l-60 -100c-3.33301 -5.33301 -6.66602 -8 -9.99902 -8
c-2 0 -5.33301 1.66699 -10 5l-35 26c-5.33301 4 -8 7 -8 9s2 5.33301 6 10l76 88l-113 26c-8 2 -12 5 -12 9c0 1.33301 0.666992 4 2 8l14 42c2.66699 7.33301 5.66699 11 9 11l8 -3l108 -46l-11 122c0 6 4.66699 9 14 9h44c8.66699 0 13 -2.66699 13 -8v-6l-10 -117
l111 47c2.66699 1.33301 4.33398 2 5.00098 2c4 0 7 -3.66699 9 -11l13 -42c1.33301 -4 2 -6.66699 2 -8z" />
    <glyph glyph-name="plus" unicode="+" 
d="M478 230c0 -9.33301 -4.66699 -14 -14 -14h-177v-176c0 -9.33301 -4.66699 -14 -14 -14h-47c-9.33301 0 -14 4.66699 -14 14v176h-176c-9.33301 0 -14 4.66699 -14 14v47c0 9.33301 4.66699 14 14 14h176v177c0 8.66699 4.66699 13 14 13h47
c9.33301 0 14 -4.33301 14 -13v-177h177c9.33301 0 14 -4.66699 14 -14v-47z" />
    <glyph glyph-name="comma" unicode="," horiz-adv-x="296" 
d="M233 107c0 -2 -1.33301 -5.33398 -4 -10.001l-115 -212c-3.33301 -6 -6.66602 -9 -9.99902 -9c-0.666992 0 -2.33398 0.333008 -5.00098 1l-3 1l-22 8c-7.33301 2.66699 -11 5.66699 -11 9c0 0.666992 0.666992 3.33398 2 8.00098l58 200c2 7.33301 7 11 15 11h81
c9.33301 0 14 -2.33301 14 -7z" />
    <glyph glyph-name="hyphen" unicode="-" horiz-adv-x="352" 
d="M315 232c0 -9.33301 -4.66699 -14 -14 -14h-250c-9.33301 0 -14 4.66699 -14 14v47c0 9.33301 4.66699 14 14 14h250c9.33301 0 14 -4.66699 14 -14v-47z" />
    <glyph glyph-name="hyphen" unicode="&#x2010;" horiz-adv-x="352" 
d="M315 232c0 -9.33301 -4.66699 -14 -14 -14h-250c-9.33301 0 -14 4.66699 -14 14v47c0 9.33301 4.66699 14 14 14h250c9.33301 0 14 -4.66699 14 -14v-47z" />
    <glyph glyph-name="period" unicode="." horiz-adv-x="296" 
d="M219 57c0 -19.333 -6.83398 -36 -20.501 -50s-30.167 -21 -49.5 -21c-20 0 -36.833 6.83301 -50.5 20.5s-20.5 30.5 -20.5 50.5c0 19.333 7 35.833 21 49.5s31 20.5 51 20.5c18.667 0 34.834 -7 48.501 -21s20.5 -30.333 20.5 -49z" />
    <glyph glyph-name="slash" unicode="/" 
d="M437 721c0 -2 -0.999023 -5.33301 -2.99902 -10l-387 -930c-2.66699 -6.66699 -8.33398 -10 -17.001 -10h-38c-9.33301 0 -14 2.66699 -14 8c0 1.33301 1 4.33301 3 9l387 930c2.66699 6.66699 8 10 16 10h40c8.66699 0 13 -2.33301 13 -7z" />
    <glyph glyph-name="zero" unicode="0" 
d="M456 328c0 -110.667 -17.668 -195.333 -53.001 -254s-86.666 -88 -153.999 -88c-58 0 -103 22 -135 66c-46 62.667 -69 150.334 -69 263.001c0 107.333 18.833 191.166 56.5 251.499s90.167 90.5 157.5 90.5c63.333 0 112 -28.333 146 -85s51 -138 51 -244z
M374.999 326.001c0 173.333 -40.667 260 -122 260c-40 0 -71.167 -23.333 -93.5 -70s-33.5 -111.667 -33.5 -195c0 -88 12 -156.667 36 -206c18.667 -38.667 48 -58 88 -58c45.333 0 77 22.333 95 67c20 48.667 30 116 30 202z" />
    <glyph glyph-name="one" unicode="1" 
d="M425 14c0 -9.33301 -4.66699 -14 -14 -14h-265c-9.33301 0 -14 4.66699 -14 14v38c0 9.33301 4.66699 14 14 14h102v489l-140 -81c-3.33301 -2.66699 -6.66602 -4 -9.99902 -4c-2.66699 0 -5.33398 3 -8.00098 9l-12 22c-2 3.33301 -3 6.66602 -3 9.99902
c0 2.66699 2.66699 5.33398 8 8.00098l177 125h50c9.33301 0 14 -4.66699 14 -14v-564h87c9.33301 0 14 -4.66699 14 -14v-38z" />
    <glyph glyph-name="two" unicode="2" 
d="M430 14c0 -9.33301 -4.66406 -14.001 -13.9971 -14.001h-335c-8 0 -12 4.66699 -12 14c0 71.333 13.167 131.833 39.5 181.5s69.833 95.167 130.5 136.5c45.333 31.333 73.666 54.333 84.999 69c16.667 22 25 48.333 25 79c0 32.667 -8.83301 58.5 -26.5 77.5
s-41.5 28.5 -71.5 28.5c-51.333 0 -89 -33.333 -113 -100c-2 -5.33301 -4.66699 -8 -8 -8c-2 0 -4.66699 0.666992 -8 2l-44 13c-5.33301 2 -8 5 -8 9c0 8 4.33301 21.333 13 40s17.667 34 27 46c35.333 46 84 69 146 69c53.333 0 95.666 -16.333 126.999 -49
s47 -76.667 47 -132c0 -38.667 -8.5 -71.667 -25.5 -99s-47.833 -56.333 -92.5 -87c-52.667 -36.667 -90.334 -70.667 -113.001 -102s-36.667 -69.666 -42 -114.999h259c9.33301 0 14 -4.66699 14 -14v-45z" />
    <glyph glyph-name="three" unicode="3" 
d="M432 179c0 -58 -19.501 -104.668 -58.501 -140.001s-90.833 -53 -155.5 -53c-34 0 -69.667 5 -107 15s-56 19.667 -56 29c0 2 1 4.66699 3 8l19 45c2.66699 4 5.66699 6 9 6c0.666992 0 2.33398 -0.666992 5.00098 -2c44.667 -20 87.334 -30 128.001 -30
c42 0 74.5 11 97.5 33s34.5 52.667 34.5 92c0 82 -48.667 123 -146 123h-34c-9.33301 0 -14 4.66699 -14 14v40c0 9.33301 4.66699 14 14 14h33c39.333 0 70.666 10.833 93.999 32.5s35 50.834 35 87.501c0 29.333 -8.83301 53 -26.5 71s-41.167 27 -70.5 27
c-34.667 0 -67.334 -15.333 -98.001 -46c-12 -12 -19.333 -18 -22 -18c-3.33301 0 -5.66602 0.666992 -6.99902 2l-36 32c-2.66699 1.33301 -4 3 -4 5c0 10.667 16.333 28 49 52c36 26 76.333 39 121 39c50.667 0 91.834 -15 123.501 -45s47.5 -69 47.5 -117
c0 -71.333 -34.333 -120.333 -103 -147c27.333 -8.66699 48.666 -19 63.999 -31c40.667 -32 61 -78 61 -138z" />
    <glyph glyph-name="four" unicode="4" 
d="M469 156c0 -9.33301 -4.66797 -14 -14.001 -14h-79v-142c0 -9.33301 -4.66699 -14 -14 -14h-47c-9.33301 0 -14 4.66699 -14 14v142h-256c-9.33301 0 -14 4.66699 -14 14v56l259 429c3.33301 5.33301 7 8 11 8h6l50 -8c8 -1.33301 12 -4.33301 12 -9
c0 -2.66699 -1.33301 -5.66699 -4 -9l-255 -416h191l11 161c0.666992 8.66699 5.33398 13 14.001 13h36c9.33301 0 14 -4.66699 14 -14v-160h79c9.33301 0 14 -4.66699 14 -14v-37z" />
    <glyph glyph-name="five" unicode="5" 
d="M433 218c0 -70 -20.666 -126.167 -61.999 -168.5s-96.333 -63.5 -165 -63.5c-43.333 0 -85 5.33301 -125 16c-9.33301 2.66699 -14 7 -14 13c0 4 0.333008 6.66699 1 8l10 45c1.33301 4.66699 4.33301 7 9 7c1.33301 0 4.66602 -0.666992 9.99902 -2
c28 -10.667 60.667 -16 98 -16c56 0 96.167 14.5 120.5 43.5s36.5 67.5 36.5 115.5c0 40 -9.16699 71.167 -27.5 93.5s-43.833 33.5 -76.5 33.5c-40.667 0 -79.334 -18.333 -116.001 -55c-4 -4 -7.33301 -6 -10 -6l-8 1l-35 11c-7.33301 2 -11 5.33301 -11 10
c0 1.33301 0.333008 3.33301 1 6l31 321c0.666992 8.66699 5.33398 13 14.001 13h260c9.33301 0 14 -4.66699 14 -14v-42c0 -9.33301 -4.66699 -14 -14 -14h-209l-22 -203c38.667 28.667 78.667 43 120 43c50.667 0 91.667 -18 123 -54s47 -83.333 47 -142z" />
    <glyph glyph-name="six" unicode="6" 
d="M442 224c0 -70 -18 -127.169 -54 -171.502s-82.333 -66.5 -139 -66.5c-68 0 -118.667 30.667 -152 92c-25.333 46 -38 106.667 -38 182c0 120.667 25 217 75 289s117 108 201 108c20.667 0 40.167 -2.16699 58.5 -6.5s27.5 -9.16602 27.5 -14.499
c0 -1.33301 -0.333008 -3.33301 -1 -6l-12 -46c-0.666992 -3.33301 -2.66699 -5 -6 -5c-1.33301 0 -4 0.666992 -8 2c-21.333 7.33301 -42.333 11 -63 11c-53.333 0 -97 -23.667 -131 -71c-26.667 -37.333 -44.334 -86.666 -53.001 -147.999c38 43.333 80.333 65 127 65
c50.667 0 91.334 -19.5 122.001 -58.5s46 -90.833 46 -155.5zM361 222.998c0 97.333 -37.333 146 -112 146c-34.667 0 -61.5 -12.5 -80.5 -37.5s-28.5 -60.5 -28.5 -106.5c0 -112 36.667 -168 110 -168c74 0 111 55.333 111 166z" />
    <glyph glyph-name="seven" unicode="7" 
d="M426 607l-231 -606c-2.66699 -6.66699 -6 -10 -10 -10l-6 1l-54 7c-8 2 -12 5 -12 9c0 2 1 5 3 9l216 555h-258c-9.33301 0 -14 4.66699 -14 14v44c0 9.33301 4.66699 14 14 14h338c9.33301 0 14 -4.66699 14 -14v-23z" />
    <glyph glyph-name="eight" unicode="8" 
d="M460 167c0 -42 -15.001 -80.002 -45.001 -114.002c-39.333 -44.667 -94.333 -67 -165 -67c-63.333 0 -114.166 16.333 -152.499 49s-57.5 76.334 -57.5 131.001c0 52 19 94.333 57 127c19.333 16.667 49 32.667 89 48c-78.667 32.667 -118 84.334 -118 155.001
c0 44 15.333 81 46 111c34 33.333 80 50 138 50c52.667 0 95.667 -14 129 -42s50 -64.667 50 -110c0 -70.667 -37.667 -125 -113 -163c94.667 -36.667 142 -95 142 -175zM354.999 496.998c0 29.333 -9.49902 52.667 -28.499 70s-44.833 26 -77.5 26
c-30.667 0 -55.334 -8.66699 -74.001 -26s-28 -40 -28 -68c0 -49.333 35.333 -91.333 106 -126c68 30 102 71.333 102 124zM378 161.999c0 57.333 -43.334 104 -130.001 140c-28.667 -12 -50 -22.333 -64 -31c-41.333 -24.667 -62 -61 -62 -109
c0 -32.667 12 -59.167 36 -79.5s55.333 -30.5 94 -30.5c36.667 0 66.834 10.333 90.501 31s35.5 47 35.5 79z" />
    <glyph glyph-name="nine" unicode="9" 
d="M433 383c0 -123.333 -22.333 -220.334 -67 -291.001s-106.334 -106 -185.001 -106c-63.333 0 -95 8 -95 24v7l5 39c0 5.33301 2.66699 8 8 8c0.666992 0 3.33398 -0.666992 8.00098 -2c18.667 -5.33301 39 -8 61 -8c52.667 0 93.5 17.833 122.5 53.5
s49.5 93.167 61.5 172.5c-30.667 -51.333 -74 -77 -130 -77c-50.667 0 -91.5 20.333 -122.5 61s-46.5 94.334 -46.5 161.001c0 69.333 18 125.333 54 168s83 64 141 64c123.333 0 185 -91.333 185 -274zM352 431.999c0 102.667 -35.667 154 -107 154
c-34 0 -61 -14.167 -81 -42.5s-30 -66.5 -30 -114.5c0 -49.333 9.5 -88 28.5 -116s45.5 -42 79.5 -42c73.333 0 110 53.667 110 161z" />
    <glyph glyph-name="colon" unicode=":" horiz-adv-x="296" 
d="M219 403c0 -19.333 -6.83398 -35.833 -20.501 -49.5s-30.167 -20.5 -49.5 -20.5c-20 0 -36.833 6.83301 -50.5 20.5s-20.5 30.5 -20.5 50.5c0 19.333 7 35.833 21 49.5s31 20.5 51 20.5c18.667 0 34.834 -7 48.501 -21s20.5 -30.667 20.5 -50zM218.999 57
c0 -19.333 -6.83398 -36 -20.501 -50s-30.167 -21 -49.5 -21c-20 0 -36.833 6.83301 -50.5 20.5s-20.5 30.5 -20.5 50.5c0 19.333 7 35.833 21 49.5s31 20.5 51 20.5c18.667 0 34.834 -7 48.501 -21s20.5 -30.333 20.5 -49z" />
    <glyph glyph-name="semicolon" unicode=";" horiz-adv-x="296" 
d="M234 403c0 -19.333 -7.00098 -35.833 -21.001 -49.5s-30.667 -20.5 -50 -20.5s-35.833 6.83301 -49.5 20.5s-20.5 30.5 -20.5 50.5c0 19.333 7 35.833 21 49.5s31 20.5 51 20.5c18.667 0 34.834 -7 48.501 -21s20.5 -30.667 20.5 -50zM232.999 107
c0 -2 -1.33301 -5.33398 -4 -10.001l-115 -212c-3.33301 -6 -6.66602 -9 -9.99902 -9c-0.666992 0 -2.33398 0.333008 -5.00098 1l-3 1l-22 8c-7.33301 2.66699 -11 5.66699 -11 9c0 0.666992 0.666992 3.33398 2 8.00098l58 200c2 7.33301 7 11 15 11h81
c9.33301 0 14 -2.33301 14 -7z" />
    <glyph glyph-name="less" unicode="&#x3c;" horiz-adv-x="514" 
d="M501 97l-446 211v70l446 211v-81l-359 -165l359 -165v-81z" />
    <glyph glyph-name="equal" unicode="=" 
d="M478 299c0 -9.33301 -4.66699 -14 -14 -14h-428c-9.33301 0 -14 4.66699 -14 14v47c0 9.33301 4.66699 14 14 14h428c9.33301 0 14 -4.66699 14 -14v-47zM478 161c0 -9.33301 -4.66699 -14 -14 -14h-428c-9.33301 0 -14 4.66699 -14 14v47c0 9.33301 4.66699 14 14 14
h428c9.33301 0 14 -4.66699 14 -14v-47z" />
    <glyph glyph-name="greater" unicode="&#x3e;" horiz-adv-x="514" 
d="M500 308l-445 -211v81l358 165l-358 165v81l445 -211v-70z" />
    <glyph glyph-name="question" unicode="?" horiz-adv-x="426" 
d="M376 539c0 -86 -51 -142.667 -153 -170v-90c0 -9.33301 -4.66699 -14 -14 -14h-40c-9.33301 0 -14 4.66699 -14 14v123c0 10 5.66699 16.667 17 20c39.333 11.333 67 22 83 32c28 17.333 42 45 42 83c0 59.333 -34.667 89 -104 89c-34.667 0 -71 -8.33301 -109 -25
c-4 -1.33301 -7 -2 -9 -2c-4 0 -7 2.66699 -9 8l-14 38c-1.33301 3.33301 -2 5.66602 -2 6.99902c0 9.33301 17 18.833 51 28.5s67.333 14.5 100 14.5c54.667 0 97.5 -13.667 128.5 -41s46.5 -65.666 46.5 -114.999zM262 57c0 -19.333 -7.00098 -36 -21.001 -50
s-30.667 -21 -50 -21s-35.833 7 -49.5 21s-20.5 30.667 -20.5 50s7 35.833 21 49.5s31 20.5 51 20.5c18.667 0 34.834 -7 48.501 -21s20.5 -30.333 20.5 -49z" />
    <glyph glyph-name="at" unicode="@" horiz-adv-x="944" 
d="M876 365c0 -60.667 -12.667 -116 -38 -166s-60.666 -89.333 -105.999 -118c-33.333 -21.333 -67.666 -32 -102.999 -32c-54.667 0 -83 30 -85 90c-40.667 -59.333 -86.667 -89 -138 -89c-26.667 0 -47.667 10.167 -63 30.5s-23 47.833 -23 82.5c0 72 19 136.667 57 194
c32 48.667 72.667 73 122 73c30.667 0 57.667 -13.333 81 -40l10 24c2 4 5.33301 6 10 6h45c4 0 6 -1.33301 6 -4v-3l-1 -3l-49 -230c-1.33301 -6 -2 -15.333 -2 -28c0 -32 13.333 -48 40 -48c46 0 86.167 25.833 120.5 77.5s51.5 112.167 51.5 181.5
c0 67.333 -19 120.666 -57 159.999c-50 52 -120.667 78 -212 78c-114 0 -210 -40.167 -288 -120.5s-117 -179.166 -117 -296.499c0 -94 26.167 -167.833 78.5 -221.5s129.833 -80.5 232.5 -80.5c109.333 0 208.333 24 297 72c7.33301 4 12.666 6 15.999 6
c4.66699 0 8 -2.66699 10 -8l12 -29c1.33301 -3.33301 2 -6 2 -8c0 -6.66699 -5.66699 -12.667 -17 -18c-97.333 -48.667 -207 -73 -329 -73c-118.667 0 -210.167 32.5 -274.5 97.5s-96.5 151.167 -96.5 258.5c0 62.667 12.667 125 38 187s59.666 114.667 102.999 158
c89.333 89.333 200 134 332 134c110 0 196.667 -30.667 260 -92c50 -48 75 -115.333 75 -202zM566 338c-24 22 -47.667 33.001 -71 33.001c-29.333 0 -53.833 -23 -73.5 -69s-29.5 -91 -29.5 -135c0 -36.667 11.667 -55 35 -55c26 0 50.333 13.667 73 41
s38.667 61.666 48 102.999z" />
    <glyph glyph-name="A" unicode="A" horiz-adv-x="574" 
d="M580 12c0 -8 -4 -12 -12 -12h-203c-8 0 -12 4 -12 12v41c0 8 4 12 12 12h62l-40 141h-203l-40 -141h65c8 0 12 -4 12 -12v-41c0 -8 -4 -12 -12 -12h-201c-8 0 -12 4 -12 12v41c0 8 4 12 12 12h48l187 610c2 7.33301 7 11 15 11h59c8 0 13 -3.66699 15 -11l187 -610h49
c8 0 12 -4 12 -12v-41zM368 275l-59.999 220c-8.66699 31.333 -16.334 63.333 -23.001 96c-5.33301 -26 -13 -57.667 -23 -95l-59 -221h165z" />
    <glyph glyph-name="B" unicode="B" horiz-adv-x="574" 
d="M506 190c0 -46.667 -12.5 -86.999 -37.5 -120.999s-59.833 -55 -104.5 -63c-20 -4 -53 -6 -99 -6h-214c-8 0 -12 4 -12 12v41c0 8 4 12 12 12h63v556h-63c-8 0 -12 4 -12 12v41c0 8 4 12 12 12h231c64 0 109.333 -8.66699 136 -26c42.667 -27.333 64 -73.333 64 -138
c0 -76.667 -33.333 -131 -100 -163c32 -8.66699 55.667 -20.334 71 -35.001c35.333 -33.333 53 -78 53 -134zM393 513.001c0 38.667 -8.5 66 -25.5 82s-46.167 24 -87.5 24h-84v-236h64c38.667 0 66.667 6 84 18c32.667 22.667 49 60 49 112zM417 192.001
c0 82.667 -45.333 124 -136 124h-85v-249h90c39.333 0 69 8 89 24c28 22 42 55.667 42 101z" />
    <glyph glyph-name="C" unicode="C" horiz-adv-x="482" 
d="M441 56c0 -8.66699 -2.99902 -15.332 -8.99902 -19.999c-42.667 -33.333 -93 -50 -151 -50c-153.333 0 -230 121.333 -230 364c0 233.333 74 350 222 350c61.333 0 113 -17 155 -51c5.33301 -4.66699 8 -10.667 8 -18v-111c0 -8 -4 -12 -12 -12h-45c-8 0 -12 4 -12 12v85
c-32.667 18.667 -63.334 28 -92.001 28c-48 0 -82.5 -21.333 -103.5 -64s-31.5 -112.334 -31.5 -209.001c0 -204.667 47.333 -307 142 -307c28 0 58 9.33301 90 28v86c0 8 4 12 12 12h45c8 0 12 -4 12 -12v-111z" />
    <glyph glyph-name="D" unicode="D" horiz-adv-x="574" 
d="M521 349c0 -122.667 -22.001 -211.5 -66.001 -266.5s-115.333 -82.5 -214 -82.5h-190c-8 0 -12 4 -12 12v41c0 8 4 12 12 12h63v556h-63c-8 0 -12 4 -12 12v41c0 8 4 12 12 12h202c76.667 0 132.334 -12.667 167.001 -38c67.333 -49.333 101 -149 101 -299zM432.999 353
c0 130.667 -26.334 211.333 -79.001 242c-23.333 13.333 -57.666 20 -102.999 20h-55v-544h62c61.333 0 106.333 22 135 66c26.667 40.667 40 112.667 40 216z" />
    <glyph glyph-name="E" unicode="E" horiz-adv-x="482" 
d="M449 14c0 -9.33301 -4.66699 -14 -14 -14h-384c-8 0 -12 4 -12 12v41c0 8 4 12 12 12h63v556h-63c-8 0 -12 4 -12 12v41c0 8 4 12 12 12h377c9.33301 0 14 -5 14 -15v-135c0 -8 -4 -12 -12 -12h-45c-8 0 -12 4 -12 12v79h-177v-225h196c9.33301 0 14 -4.66699 14 -14v-39
c0 -9.33301 -4.66699 -14 -14 -14h-196v-252h184v88c0 8 4 12 12 12h45c8 0 12 -4 12 -12v-145z" />
    <glyph glyph-name="F" unicode="F" horiz-adv-x="463" 
d="M443 536c0 -8 -4 -12 -12 -12h-45c-8 0 -12 4 -12 12v79h-178v-232h196c9.33301 0 14 -4.66699 14 -14v-39c0 -9.33301 -4.66699 -14 -14 -14h-196v-251h75c8 0 12 -4 12 -12v-41c0 -8 -4 -12 -12 -12h-220c-8 0 -12 4 -12 12v41c0 8 4 12 12 12h63v556h-63
c-8 0 -12 4 -12 12v41c0 8 4 12 12 12h378c9.33301 0 14 -5 14 -15v-135z" />
    <glyph glyph-name="G" unicode="G" horiz-adv-x="537" 
d="M536 294c0 -8 -4 -11.998 -12 -11.998h-56v-241c0 -6 -3 -11 -9 -15c-42.667 -26.667 -98 -40 -166 -40c-78.667 0 -138.5 30.167 -179.5 90.5s-61.5 148.166 -61.5 263.499s20.667 204.166 62 266.499s100.333 93.5 177 93.5c24.667 0 52 -4.66699 82 -14
c32.667 -10 57 -22.333 73 -37c4.66699 -4 7 -9.66699 7 -17v-114c0 -8 -4 -12 -12 -12h-45c-8 0 -12 4 -12 12v88c-31.333 18 -62 27 -92 27c-41.333 0 -74 -15 -98 -45c-35.333 -44 -53 -122.667 -53 -236c0 -105.333 13.167 -181.5 39.5 -228.5s68.833 -70.5 127.5 -70.5
c22.667 0 48.667 6.33301 78 19v210h-78c-9.33301 0 -14 4.66699 -14 14v37c0 9.33301 4.66699 14 14 14h216c8 0 12 -4 12 -12v-41z" />
    <glyph glyph-name="H" unicode="H" horiz-adv-x="648" 
d="M609 12c0 -8 -4 -12 -12 -12h-209c-8 0 -12 4 -12 12v41c0 8 4 12 12 12h64v257h-256v-257h64c8 0 12 -4 12 -12v-41c0 -8 -4 -12 -12 -12h-209c-8 0 -12 4 -12 12v41c0 8 4 12 12 12h63v556h-63c-8 0 -12 4 -12 12v41c0 8 4 12 12 12h209c8 0 12 -4 12 -12v-41
c0 -8 -4 -12 -12 -12h-64v-230h256v230h-64c-8 0 -12 4 -12 12v41c0 8 4 12 12 12h209c8 0 12 -4 12 -12v-41c0 -8 -4 -12 -12 -12h-63v-556h63c8 0 12 -4 12 -12v-41z" />
    <glyph glyph-name="I" unicode="I" horiz-adv-x="352" 
d="M320 14c0 -9.33301 -4.66699 -14 -14 -14h-259c-9.33301 0 -14 4.66699 -14 14v37c0 9.33301 4.66699 14 14 14h88v556h-88c-9.33301 0 -14 4.66699 -14 14v37c0 9.33301 4.66699 14 14 14h259c9.33301 0 14 -4.66699 14 -14v-37c0 -9.33301 -4.66699 -14 -14 -14h-89
v-556h89c9.33301 0 14 -4.66699 14 -14v-37z" />
    <glyph glyph-name="J" unicode="J" horiz-adv-x="444" 
d="M366 212c0 -50 -1.66602 -83.833 -4.99902 -101.5s-11 -35.5 -23 -53.5c-32.667 -47.333 -84.334 -71 -155.001 -71c-57.333 0 -101.333 16.5 -132 49.5s-46 80.167 -46 141.5c0 13.333 3 20 9 20h59c5.33301 0 8 -3.33301 8 -10v-12c0 -81.333 34 -122 102 -122
c46 0 76.667 18 92 54c6 14 9 47.333 9 100v410h-173c-9.33301 0 -14 4.66699 -14 14v41c0 9.33301 4.66699 14 14 14h241c9.33301 0 14 -4.66699 14 -14v-460z" />
    <glyph glyph-name="K" unicode="K" horiz-adv-x="556" 
d="M561 12c0 -8 -4.33301 -12 -13 -12h-191c-8 0 -12 4 -12 12v41c0 8 4 12 12 12h48l-209 265v-265h61c8 0 12 -4 12 -12v-41c0 -8 -4 -12 -12 -12h-206c-8 0 -12 4 -12 12v41c0 8 4 12 12 12h63v556h-63c-8 0 -12 4 -12 12v41c0 8 4 12 12 12h206c8 0 12 -4 12 -12v-41
c0 -8 -4 -12 -12 -12h-61v-279l212 279h-49c-8 0 -12 4 -12 12v41c0 8 4 12 12 12h183c8 0 12 -4 12 -12v-41c0 -8 -4 -12 -12 -12h-45l-218 -280l220 -276h49c8.66699 0 13 -4 13 -12v-41z" />
    <glyph glyph-name="L" unicode="L" horiz-adv-x="463" 
d="M482 148c0 -2 -0.333008 -3.66699 -1 -5l-48 -132c-2.66699 -7.33301 -7.66699 -11 -15 -11h-367c-8 0 -12 4 -12 12v41c0 8 4 12 12 12h63v556h-63c-8 0 -12 4 -12 12v41c0 8 4 12 12 12h209c8 0 12 -4 12 -12v-41c0 -8 -4 -12 -12 -12h-64v-550h181l35 97
c2 5.33301 5 8 9 8c2.66699 0 4.66699 -0.333008 6 -1l47 -17c5.33301 -2 8 -5.33301 8 -10z" />
    <glyph glyph-name="M" unicode="M" horiz-adv-x="704" 
d="M681 12c0 -8 -3.99902 -12.001 -11.999 -12.001h-206c-8 0 -12 4 -12 12v41c0 8 4 12 12 12h69l-14 479c0 2 0.333008 17.667 1 47c-2.66699 -28 -7.33398 -51.667 -14.001 -71l-120 -349c-2.66699 -7.33301 -8 -11 -16 -11h-29c-7.33301 0 -12.333 3.66699 -15 11
l-116 349c-6 18.667 -10.667 42.334 -14 71.001c0.666992 -16.667 1 -32.334 1 -47.001v-23l-14 -456h70c8 0 12 -4 12 -12v-41c0 -8 -4 -12 -12 -12h-205c-8 0 -12 4 -12 12v41c0 8 4 12 12 12h55l32 556h-70c-8 0 -12 4 -12 12v41c0 8 4 12 12 12h146
c7.33301 0 12.333 -3.66699 15 -11l118 -345c6 -18 10.667 -38.667 14 -62c4 28.667 8.33301 49.334 13 62.001l120 345c2.66699 7.33301 7.66699 11 15 11h147c8 0 12 -4 12 -12v-41c0 -8 -4 -12 -12 -12h-68l32 -556h53c8 0 12 -4 12 -12v-41z" />
    <glyph glyph-name="N" unicode="N" horiz-adv-x="574" 
d="M568 633c0 -8 -3.99902 -12 -11.999 -12h-63v-607c0 -9.33301 -4.66699 -14 -14 -14h-54c-6.66699 -0 -11.667 3.33301 -15 10l-231 495c-11.333 24.667 -21 53.667 -29 87c6.66699 -34 10 -64.333 10 -91v-436h64c8 0 12 -4 12 -12v-41c0 -8 -4 -12 -12 -12h-200
c-8 0 -12 4 -12 12v41c0 8 4 12 12 12h63v556h-63c-8 0 -12 4 -12 12v41c0 8 4 12 12 12h140c7.33301 0 12.666 -3.33301 15.999 -10l221 -466c9.33301 -20 18 -45.667 26 -77c-4.66699 28 -7 54.667 -7 80v408h-63c-8 0 -12 4 -12 12v41c0 8 4 12 12 12h199
c8 0 12 -4 12 -12v-41z" />
    <glyph glyph-name="O" unicode="O" horiz-adv-x="556" 
d="M503 344c0 -238.667 -77 -358 -231 -358c-146.667 0 -220 117.667 -220 353c0 240.667 78 361 234 361c144.667 0 217 -118.667 217 -356zM414 337c0 109.333 -12.665 188.666 -37.998 237.999c-20 38.667 -52.667 58 -98 58c-48.667 0 -83 -21 -103 -63
c-22.667 -48 -34 -123 -34 -225c0 -103.333 13 -181.333 39 -234c19.333 -38.667 51.666 -58 96.999 -58c49.333 0 83.666 21 102.999 63c22.667 48.667 34 122.334 34 221.001z" />
    <glyph glyph-name="P" unicode="P" 
d="M486 502c0 -92 -33.667 -155.333 -101 -190c-28.667 -14.667 -67.334 -22 -116.001 -22h-73v-225h75c8 0 12 -4 12 -12v-41c0 -8 -4 -12 -12 -12h-220c-8 0 -12 4 -12 12v41c0 8 4 12 12 12h63v556h-63c-8 0 -12 4 -12 12v41c0 8 4 12 12 12h232
c60.667 0 103.334 -7.33301 128.001 -22c50 -29.333 75 -83.333 75 -162zM402 501c0 58 -19.001 94 -57.001 108c-14.667 5.33301 -38 8 -70 8h-79v-255h67c44.667 0 76.334 7.66699 95.001 23c29.333 24 44 62.667 44 116z" />
    <glyph glyph-name="Q" unicode="Q" horiz-adv-x="556" 
d="M547 -23c0 -3.33301 -1.33203 -6.00098 -3.99902 -8.00098l-53 -36c-2 -2 -5 -3 -9 -3c-18.667 0 -53.334 27.333 -104.001 82c-32.667 -17.333 -67.667 -26 -105 -26c-146.667 0 -220 118.333 -220 355c0 239.333 77 359 231 359c146.667 0 220 -119 220 -357
c0 -121.333 -22.667 -214.333 -68 -279c18 -19.333 53.667 -45.666 107 -78.999c3.33301 -2 5 -4.66699 5 -8zM414.001 336.999c0 109.333 -12.667 188.666 -38 237.999c-20 38.667 -52.667 58 -98 58c-48.667 0 -83 -21 -103 -63c-22.667 -48 -34 -123 -34 -225
c0 -103.333 12.667 -181.333 38 -234c18.667 -38.667 51 -58 97 -58c50 0 84.667 21 104 63c22.667 48.667 34 122.334 34 221.001z" />
    <glyph glyph-name="R" unicode="R" horiz-adv-x="556" 
d="M556 12c0 -8 -4 -11.999 -12 -11.999h-98c-8 0 -14 3.66699 -18 11l-159 300h-73v-246h64c8 0 12 -4 12 -12v-41c0 -8 -4 -12 -12 -12h-209c-8 0 -12 4 -12 12v41c0 8 4 12 12 12h63v556h-63c-8 0 -12 4 -12 12v41c0 8 4 12 12 12h231c56.667 0 98.667 -7 126 -21
c50.667 -26 76 -76 76 -150c0 -100.667 -43.667 -166.334 -131 -197.001l142 -253h49c8 0 12 -4 12 -12v-41zM400 509.001c0 50.667 -16.332 84.334 -48.999 101.001c-14.667 7.33301 -39.667 11 -75 11h-80v-247h78c35.333 0 62.666 7.66699 81.999 23
c29.333 23.333 44 60.666 44 111.999z" />
    <glyph glyph-name="S" unicode="S" horiz-adv-x="482" 
d="M440 181c0 -58 -19.501 -105.001 -58.501 -141.001s-90.167 -54 -153.5 -54c-29.333 0 -63.5 5 -102.5 15s-64.5 20.667 -76.5 32c-4.66699 4 -7 10.667 -7 20v116c0 8 4 12 12 12h45c8 0 12 -4 12 -12v-82c46 -18 86.333 -27 121 -27c36 0 64.833 10.167 86.5 30.5
s32.5 47.166 32.5 80.499c0 31.333 -8 56.5 -24 75.5s-49.667 42.833 -101 71.5c-64.667 36 -107 65.667 -127 89c-27.333 31.333 -41 69 -41 113c0 52.667 18.5 95.834 55.5 129.501s84.833 50.5 143.5 50.5c60.667 0 112.334 -13.667 155.001 -41c6 -4 9 -10.333 9 -19
v-115c0 -8 -4 -12 -12 -12h-45c-8 0 -12 4 -12 12v82c-32.667 13.333 -65.334 20 -98.001 20c-72 0 -108 -32.667 -108 -98c0 -26 6.66699 -47.167 20 -63.5s39 -35.166 77 -56.499c80.667 -45.333 130.334 -78.666 149.001 -99.999c32 -36.667 48 -79.334 48 -128.001z" />
    <glyph glyph-name="T" unicode="T" horiz-adv-x="445" 
d="M439 503c0 -8 -4 -12 -12 -12h-45c-8 0 -12 4 -12 12v116h-105v-554h71c8 0 12 -4 12 -12v-41c0 -8 -4 -12 -12 -12h-223c-8 0 -12 4 -12 12v41c0 8 4 12 12 12h70v554h-105v-116c0 -8 -4 -12 -12 -12h-45c-8 0 -12 4 -12 12v169c0 9.33301 4.66699 14 14 14h402
c9.33301 0 14 -5 14 -15v-168z" />
    <glyph glyph-name="U" unicode="U" horiz-adv-x="611" 
d="M594 633c0 -8 -4 -12 -12 -12h-64v-437c0 -61.333 -16.667 -108.333 -50 -141c-39.333 -38 -95.333 -57 -168 -57c-137.333 0 -206 66 -206 198v437h-63c-8 0 -12 4 -12 12v41c0 8 4 12 12 12h209c8 0 12 -4 12 -12v-41c0 -8 -4 -12 -12 -12h-64v-434
c0 -48.667 9.83301 -83.167 29.5 -103.5s52.5 -30.5 98.5 -30.5c90 0 135 44.667 135 134v434h-63c-8 0 -12 4 -12 12v41c0 8 4 12 12 12h206c8 0 12 -4 12 -12v-41z" />
    <glyph glyph-name="V" unicode="V" 
d="M513 633c0 -8 -3.99902 -12.001 -11.999 -12.001h-37l-165 -610c-2 -7.33301 -7 -11 -15 -11h-70c-8 0 -13 3.66699 -15 11l-163 610h-41c-8 0 -12 4 -12 12v41c0 8 4 12 12 12h187c8 0 12 -4 12 -12v-41c0 -8 -4 -12 -12 -12h-60l112 -467
c1.33301 -8 3.66602 -20 6.99902 -36l4 -20l4 -23c4.66699 28.667 9.66699 54.334 15 77.001l116 469h-54c-8 0 -12 4 -12 12v41c0 8 4 12 12 12h175c8 0 12 -4 12 -12v-41z" />
    <glyph glyph-name="W" unicode="W" horiz-adv-x="704" 
d="M717 633c0 -8 -4 -11.999 -12 -11.999h-42l-130 -609c-2 -8 -6.66699 -12 -14 -12h-66c-8.66699 0 -13.667 4 -15 12l-85 546l-104 -546c-1.33301 -8 -6 -12 -14 -12h-62c-8.66699 0 -13.667 4 -15 12l-116 609h-43c-8 0 -12 4 -12 12v41c0 8 4 12 12 12h188
c8 0 12 -4 12 -12v-41c0 -8 -4 -12 -12 -12h-64l76 -434c3.33301 -18.667 6.33301 -58 9 -118c1.33301 27.333 5 65.666 11 114.999l97 490c1.33301 8 6.33301 12 15 12h53c8.66699 0 13.667 -4 15 -12l82 -494c4 -22.667 7.66699 -61 11 -115
c0.666992 24 3.66699 62.333 9 115l81 441h-63c-8 0 -12 4 -12 12v41c0 8 4 12 12 12h186c8 0 12 -4 12 -12v-41z" />
    <glyph glyph-name="X" unicode="X" horiz-adv-x="519" 
d="M524 12c0 -8 -4 -12 -12 -12h-192c-8 0 -12 4 -12 12v41c0 8 4 12 12 12h54l-95 179c-8 15.333 -15 31.333 -21 48l-5 -12l-16 -35l-94 -180h53c8 0 12 -4 12 -12v-41c0 -8 -4 -12 -12 -12h-191c-7.33301 0 -11 4 -11 12v41c0 8 3.66699 12 11 12h48l158 293l-144 263
h-46c-8 0 -12 4 -12 12v41c0 8 4 12 12 12h192c8 0 12 -4 12 -12v-41c0 -8 -4 -12 -12 -12h-56l78 -144c6.66699 -12.667 14.667 -30 24 -52c7.33301 18.667 16.333 37.667 27 57l74 139h-47c-8 0 -12 4 -12 12v41c0 8 4 12 12 12h182c8 0 12 -4 12 -12v-41
c0 -8 -4 -12 -12 -12h-46l-146 -261l163 -295h46c8 0 12 -4 12 -12v-41z" />
    <glyph glyph-name="Y" unicode="Y" horiz-adv-x="481" 
d="M509 633c0 -8 -4 -11.999 -12 -11.999h-42l-170 -330v-226h70c8 0 12 -4 12 -12v-41c0 -8 -4 -12 -12 -12h-223c-8 0 -12 4 -12 12v41c0 8 4 12 12 12h71v224l-176 332h-38c-8 0 -12 4 -12 12v41c0 8 4 12 12 12h192c8 0 12 -4 12 -12v-41c0 -8 -4 -12 -12 -12h-58
l96 -197c10 -20.667 19 -41.334 27 -62.001c6.66699 18 15.667 39 27 63l92 196h-60c-8 0 -12 4 -12 12v41c0 8 4 12 12 12h192c8 0 12 -4 12 -12v-41z" />
    <glyph glyph-name="Z" unicode="Z" horiz-adv-x="482" 
d="M475 132c0 -0.666992 -0.332031 -2.33301 -0.999023 -5l-42 -115c-2.66699 -8 -8.33398 -12 -17.001 -12h-359c-9.33301 0 -14 4.66699 -14 14v52l294 550h-200v-75c0 -8 -4 -12 -12 -12h-45c-8 0 -12 4 -12 12v130c0 10 5 15 15 15h336c9.33301 0 14 -4.66699 14 -14
v-48l-295 -553h239l29 81c2 5.33301 5 8 9 8c2.66699 0 4.66699 -0.333008 6 -1l47 -17c5.33301 -2 8 -5.33301 8 -10z" />
    <glyph glyph-name="bracketleft" unicode="[" horiz-adv-x="370" 
d="M316 -191c0 -9.33301 -4.66699 -14 -14 -14h-172c-9.33301 0 -14 4.66699 -14 14v892c0 9.33301 4.66699 14 14 14h172c9.33301 0 14 -4.66699 14 -14v-34c0 -9.33301 -4.66699 -14 -14 -14h-109v-796h109c9.33301 0 14 -4.66699 14 -14v-34z" />
    <glyph glyph-name="backslash" unicode="\" 
d="M522 -222c0 -4.66699 -4.66602 -7 -13.999 -7h-38c-8.66699 0 -14.334 3.33301 -17.001 10l-387 930c-2 4.66699 -3 8 -3 10c0 4.66699 4.33301 7 13 7h40c8 0 13.333 -3.33301 16 -10l387 -930c2 -4.66699 3 -8 3 -10z" />
    <glyph glyph-name="bracketright" unicode="]" horiz-adv-x="370" 
d="M254 -191c0 -9.33301 -4.66699 -14 -14 -14h-172c-9.33301 0 -14 4.66699 -14 14v34c0 9.33301 4.66699 14 14 14h109v796h-110c-8.66699 0 -13 4.66699 -13 14v34c0 9.33301 4.33301 14 13 14h173c9.33301 0 14 -4.66699 14 -14v-892z" />
    <glyph glyph-name="asciicircum" unicode="^" horiz-adv-x="514" 
d="M503 385h-77l-149 247l-147 -247h-77l179 303h93z" />
    <glyph glyph-name="underscore" unicode="_" horiz-adv-x="514" 
d="M514 -127h-514v54h514v-54z" />
    <glyph glyph-name="grave" unicode="`" 
d="M305 580c0 -1.33301 -1.66797 -4.33203 -5.00098 -8.99902l-12 -17c-1.33301 -3.33301 -3.66602 -5 -6.99902 -5c-2.66699 0 -6 1 -10 3l-163 85c-6 3.33301 -9 6.66602 -9 9.99902c0 2 1.33301 5 4 9l29 42c4 5.33301 7.33301 8 10 8c2 0 5.33301 -1.66699 10 -5
l145 -111c5.33301 -4 8 -7.33301 8 -10z" />
    <glyph glyph-name="a" unicode="a" horiz-adv-x="463" 
d="M449 12c0 -8 -4 -12 -12 -12h-85c-15.333 0 -28 17.667 -38 53c-42.667 -42 -90.667 -63 -144 -63c-40 0 -71.667 12.333 -95 37s-35 58 -35 100c0 113.333 87.667 171.333 263 174v33c0 32 -6.83301 54.833 -20.5 68.5s-36.834 20.5 -69.501 20.5
c-34 0 -72.333 -9.66699 -115 -29c-4 -1.33301 -6.33301 -2 -7 -2c-3.33301 0 -5.66602 1.66699 -6.99902 5l-15 40l-1 8c0 9.33301 18 19.333 54 30s70.333 16 103 16c102 0 153 -46.667 153 -140v-189c0 -42.667 4 -76 12 -100h47c8 0 12 -4 12 -12v-38zM303 110v129
c-124 -0.666992 -186 -36 -186 -106c0 -23.333 6.66699 -42.5 20 -57.5s30.333 -22.5 51 -22.5c32.667 0 71 19 115 57z" />
    <glyph glyph-name="b" unicode="b" 
d="M449 272c0 -190.667 -61.333 -286 -184 -286c-47.333 0 -89.666 16.333 -126.999 49c-12.667 -30 -23.667 -45 -33 -45c-2.66699 0.666992 -5.33398 1.66699 -8.00098 3l-42 27c-2 1.33301 -3 3 -3 5s1 4.33301 3 7c18.667 25.333 28 60.333 28 105v518h-60
c-8 0 -12 4 -12 12v38c0 8 4 12 12 12h127c6 0 9 -3 9 -9v-263c47.333 32.667 91 49 131 49c106 0 159 -74 159 -222zM368 261c0 58.667 -7.33203 101.167 -21.999 127.5s-38.334 39.5 -71.001 39.5c-28.667 0 -67.667 -16.667 -117 -50v-285c32 -26 66 -39 102 -39
c72 0 108 69 108 207z" />
    <glyph glyph-name="c" unicode="c" horiz-adv-x="426" 
d="M396 38c0 -3.33301 -5.99902 -7.99902 -17.999 -13.999c-48.667 -25.333 -95.334 -38 -140.001 -38c-58.667 0 -104.667 21.5 -138 64.5s-50 102.833 -50 179.5c0 81.333 18.167 145.666 54.5 192.999s85.833 71 148.5 71c46.667 0 89.667 -12.667 129 -38
c7.33301 -4.66699 11 -11 11 -19v-86c0 -8 -4 -12 -12 -12h-42c-8 0 -12 4 -12 12v57c-28.667 13.333 -53 20 -73 20c-36.667 0 -65 -13 -85 -39c-23.333 -30 -35 -79.333 -35 -148c0 -124.667 38 -187 114 -187c33.333 0 72 12.667 116 38c4 1.33301 6.33301 2 7 2
c2.66699 0 4.66699 -2 6 -6l17 -42c1.33301 -3.33301 2 -6 2 -8z" />
    <glyph glyph-name="d" unicode="d" horiz-adv-x="518" 
d="M497 12c0 -8 -3.66699 -11.998 -11 -11.998h-89c-14 0 -24 17 -30 51c-60 -43.333 -112 -65 -156 -65c-50 0 -89.167 23 -117.5 69s-42.5 109.333 -42.5 190c0 77.333 16.167 138.166 48.5 182.499s76.5 66.5 132.5 66.5c36 0 74.333 -10.667 115 -32v193h-68
c-8 0 -12 4 -12 12v38c0 8 4 12 12 12h132c7.33301 -0.666992 11 -4.33398 11 -11.001v-548c0 -42 4.33301 -74 13 -96h51c7.33301 0 11 -4 11 -12v-38zM347 112.002l-0.00195312 282.999c-39.333 21.333 -74.666 32 -105.999 32c-38.667 0 -66.5 -14 -83.5 -42
s-25.5 -73.333 -25.5 -136c0 -69.333 7.5 -119.166 22.5 -149.499s39.5 -45.5 73.5 -45.5c36.667 0 76.334 19.333 119.001 58z" />
    <glyph glyph-name="e" unicode="e" horiz-adv-x="463" 
d="M431 241c0 -12 -3.66602 -18.001 -10.999 -18.001h-287c5.33301 -112.667 49.333 -169 132 -169c35.333 0 74 12 116 36c3.33301 2 6.66602 3 9.99902 3c2.66699 0 5 -1.66699 7 -5l18 -39c1.33301 -2.66699 2 -5 2 -7c0 -7.33301 -12 -16.666 -36 -27.999
c-40 -18.667 -81 -28 -123 -28c-63.333 0 -113.833 22.833 -151.5 68.5s-56.5 107.167 -56.5 184.5s18 139.166 54 185.499s84 69.5 144 69.5c84 0 139.667 -40 167 -120c10 -29.333 15 -73.666 15 -132.999zM350.001 284.999c-2 98.667 -37.333 148 -106 148
c-68 0 -105 -49.333 -111 -148h217z" />
    <glyph glyph-name="f" unicode="f" horiz-adv-x="296" 
d="M351 689l-0.999023 -6l-17 -41c-1.33301 -4 -4 -6 -8 -6c-2 0 -5 1 -9 3c-28.667 14 -54.667 21 -78 21c-24.667 0 -41.667 -9.66699 -51 -29c-6 -12 -9 -36.667 -9 -74v-77h145c7.33301 0 11 -2.33301 11 -7c0 -1.33301 -0.666992 -3.33301 -2 -6l-13 -40
c-2 -6 -6 -9 -12 -9h-129v-356h71c8 0 12 -4 12 -12v-38c0 -8 -4 -12 -12 -12h-202c-8 0 -12 4 -12 12v38c0 8 4 12 12 12h56v356h-66c-8 0 -12 3.66699 -12 11v39c0 8 4 12 12 12h66v78c0 54 8.66699 92.667 26 116c25.333 33.333 62.666 50 111.999 50
c23.333 0 47.5 -4 72.5 -12s37.5 -15.667 37.5 -23z" />
    <glyph glyph-name="g" unicode="g" 
d="M444 462c0 -2 -2.00293 -6.33301 -6.00293 -13c-16.667 -26.667 -25 -60.334 -25 -101.001v-154c0 -52.667 1.66699 -109.667 5 -171c1.33301 -24.667 2 -44 2 -58c0 -117.333 -58.667 -176 -176 -176c-54 0 -104 12.333 -150 37c-12 6.66699 -18 12.334 -18 17.001
c0 2 0.666992 4.33301 2 7l18 40c2 4 4.33301 6 7 6s5.33398 -1 8.00098 -3c46 -24.667 89.333 -37 130 -37c42.667 0 72.334 12 89.001 36c10 14.667 15 39 15 73c0 15.333 -0.333008 32.166 -1 50.499s-1 35.833 -1 52.5c-43.333 -36.667 -89.333 -55 -138 -55
c-47.333 0 -84.833 20 -112.5 60s-41.5 94.333 -41.5 163c0 82.667 16.333 146.334 49 191.001s79 67 139 67c39.333 0 79.333 -14 120 -42c10.667 30.667 20 46 28 46c2.66699 0 5.33398 -0.666992 8.00098 -2l45 -28c2.66699 -1.33301 4 -3.33301 4 -6zM337.997 130v270
c-36.667 18.667 -68 28 -94 28c-76.667 0 -115 -58 -115 -174c0 -115.333 30 -173 90 -173c34 0 73.667 16.333 119 49z" />
    <glyph glyph-name="h" unicode="h" horiz-adv-x="537" 
d="M517 12c0 -8 -3.66797 -12 -11.001 -12h-121c-8 0 -12 4 -12 12v333c0 32 -4.83301 54 -14.5 66s-27.5 18 -53.5 18c-38 0 -82.333 -21 -133 -63v-304h57c8 0 12 -4 12 -12v-38c0 -8 -4 -12 -12 -12h-189c-8 0 -12 4 -12 12v38c0 8 4 12 12 12h57v593h-61
c-8 0 -12 4 -12 12v38c0 8 4 12 12 12h126c6.66699 0 10 -3.66699 10 -11v-278c48.667 44 100 66 154 66c54.667 0 91.334 -19.333 110.001 -58c8.66699 -18 13 -49 13 -93v-281h57c7.33301 0 11 -4 11 -12v-38z" />
    <glyph glyph-name="i" unicode="i" horiz-adv-x="278" 
d="M205 655c0 -16.667 -5.83203 -30.834 -17.499 -42.501s-25.834 -17.5 -42.501 -17.5s-31 6 -43 18s-18 26.333 -18 43s6 30.834 18 42.501s26.667 17.5 44 17.5c16 0 29.833 -6 41.5 -18s17.5 -26.333 17.5 -43zM272.001 12c0 -8 -4 -12 -12 -12h-220c-8 0 -12 4 -12 12
v38c0 8 4 12 12 12h72v356h-80c-7.33301 0 -11 3.66699 -11 11v39c0 8 3.66699 12 11 12h144c7.33301 0 11 -4 11 -12v-406h73c8 0 12 -4 12 -12v-38z" />
    <glyph glyph-name="j" unicode="j" horiz-adv-x="259" 
d="M197 655c0 -16.667 -5.83203 -30.834 -17.499 -42.501s-25.834 -17.5 -42.501 -17.5s-31 6 -43 18s-18 26.333 -18 43s6 30.834 18 42.501s26.667 17.5 44 17.5c16 0 29.833 -6 41.5 -18s17.5 -26.333 17.5 -43zM181.001 -53c0 -52.667 -11 -91 -33 -115
c-26.667 -29.333 -63.667 -44 -111 -44c-24 0 -50.5 4.66699 -79.5 14s-43.5 17.666 -43.5 24.999c0 2.66699 0.666992 5.33398 2 8.00098l19 40c1.33301 4 4 6 8 6c0.666992 0 3 -0.666992 7 -2c32 -16.667 62 -25 90 -25c30.667 0 50 11 58 33
c5.33301 14.667 8 40.667 8 78v453h-80c-7.33301 0 -11 3.66699 -11 11v39c0 8 3.66699 12 11 12h144c7.33301 0 11 -4 11 -12v-521z" />
    <glyph glyph-name="k" unicode="k" 
d="M496 12c0 -8 -3.99902 -11.999 -11.999 -11.999h-93c-6.66699 0 -12.334 2.66699 -17.001 8l-202 238v-184h57c8 0 12 -4 12 -12v-38c0 -8 -4 -12 -12 -12h-188c-8 0 -12 4 -12 12v38c0 8 4 12 12 12h56v593h-61c-8 0 -12 4 -12 12v38c0 8 4 12 12 12h125
c7.33301 -0.666992 11 -4.33398 11 -11.001v-446l159 162h-49c-8 0 -12 4 -12 12v34c0 8 4 12 12 12h189c8 0 12 -4 12 -12v-38c0 -8 -4 -12 -12 -12h-51l-162 -158l174 -198h52c8 0 12 -4 12 -12v-38z" />
    <glyph glyph-name="l" unicode="l" horiz-adv-x="259" 
d="M265 15c0 -5.33301 -9.49805 -10.833 -28.498 -16.5s-37.833 -8.5 -56.5 -8.5c-57.333 0 -91.333 23.333 -102 70c-3.33301 14.667 -5 55.667 -5 123v472h-61c-8 0 -12 4 -12 12v38c0 8 4 12 12 12h126c6.66699 0 10 -3.66699 10 -11v-525c0 -46 1 -76.333 3 -91
c3.33301 -25.333 16.666 -38 39.999 -38c14 0 29 4 45 12c4 1.33301 6.66699 2 8 2c3.33301 0 5.66602 -2.33301 6.99902 -7l12 -37c1.33301 -4 2 -6.33301 2 -7z" />
    <glyph glyph-name="m" unicode="m" horiz-adv-x="741" 
d="M721 12c0 -8 -3.99902 -12 -11.999 -12h-119c-7.33301 0 -11 4 -11 12v344c0 48.667 -21.333 73 -64 73c-28.667 0 -62.334 -13.333 -101.001 -40v-327h56c8 0 12 -4 12 -12v-38c0 -8 -4 -12 -12 -12h-120c-7.33301 0 -11 4 -11 12v343c0 49.333 -21.333 74 -64 74
c-28.667 0 -62.334 -14.333 -101.001 -43v-324h58c8 0 12 -4 12 -12v-38c0 -8 -4 -12 -12 -12h-188c-8 0 -12 4 -12 12v38c0 8 4 12 12 12h56v309c0 17.333 -2.66699 33 -8 47h-55c-8 0 -12 4 -12 12v38c0 8 4 12 12 12h97c10 0 19.667 -15.333 29 -46
c49.333 40 96.333 60 141 60c48 0 80 -19.667 96 -59c54.667 39.333 103.334 59 146.001 59c43.333 0 73.333 -14.667 90 -44c11.333 -20 17 -52.333 17 -97v-291h56c8 0 12 -4 12 -12v-38z" />
    <glyph glyph-name="n" unicode="n" horiz-adv-x="537" 
d="M517 12c0 -8 -3.99902 -12 -11.999 -12h-120c-7.33301 0 -11 4 -11 12v334c0 55.333 -22.333 83 -67 83c-40.667 0 -84.334 -21 -131.001 -63v-304h56c8 0 12 -4 12 -12v-38c0 -8 -4 -12 -12 -12h-188c-8 0 -12 4 -12 12v38c0 8 4 12 12 12h56v293
c0 25.333 -2 46.333 -6 63h-57c-8 0 -12 4 -12 12v38c0 8 4 12 12 12h101c12.667 0 23 -18 31 -54c56 45.333 109.667 68 161 68c50 0 84 -16 102 -48c11.333 -20 17 -53.667 17 -101v-283h56c8 0 12 -4 12 -12v-38z" />
    <glyph glyph-name="o" unicode="o" 
d="M449 243c0 -80.667 -18 -143.666 -54 -188.999s-86.333 -68 -151 -68c-60.667 0 -108 22.167 -142 66.5s-51 106.166 -51 185.499c0 80.667 18 143.5 54 188.5s86.333 67.5 151 67.5c60.667 0 108 -22.167 142 -66.5s51 -105.833 51 -184.5zM368 244.001
c0 124.667 -39.665 187.001 -118.998 187.001c-78 0 -117 -61 -117 -183c0 -68.667 10.333 -120.334 31 -155.001c17.333 -29.333 46.666 -44 87.999 -44c39.333 0 67.666 14 84.999 42c21.333 34.667 32 85.667 32 153z" />
    <glyph glyph-name="p" unicode="p" 
d="M449 250c0 -82 -14.834 -146.5 -44.501 -193.5s-70.167 -70.5 -121.5 -70.5c-37.333 0 -76.666 14.667 -117.999 44v-170h63c8 0 12 -4 12 -12v-38c0 -8 -4 -12 -12 -12h-196c-8 0 -12 4 -12 12v38c0 8 4 12 12 12h58v481c0 34.667 -3.33301 60.334 -10 77.001h-55
c-7.33301 0 -11 4 -11 12v38c0 8 3.66699 12 11 12h88c10 0 17 -2.33301 21 -7s9.66699 -17.334 17 -38.001c50 39.333 98 59 144 59c58 0 98.167 -22.833 120.5 -68.5s33.5 -104.167 33.5 -175.5zM367.999 247c0 58 -5 100.667 -15 128c-12.667 34.667 -36.667 52 -72 52
c-29.333 0 -68 -16.333 -116 -49v-282c42.667 -28 79 -42 109 -42c34 0 58.167 14.833 72.5 44.5s21.5 79.167 21.5 148.5z" />
    <glyph glyph-name="q" unicode="q" 
d="M489 -190c0 -8 -3.99902 -12 -11.999 -12h-197c-8 0 -12 4 -12 12v38c0 8 4 12 12 12h63v185c-42 -39.333 -86.333 -59 -133 -59c-48.667 0 -87.334 22.167 -116.001 66.5s-43 104.5 -43 180.5c0 81.333 16 145.166 48 191.499s76 69.5 132 69.5c44 0 88.333 -16 133 -48
c13.333 33.333 23.333 50 30 50c2 0 4 -0.666992 6 -2l42 -25c3.33301 -2 5 -4.66699 5 -8c0 -1.33301 -0.666992 -3.66602 -2 -6.99902l-4 -8c-14.667 -31.333 -22 -64.333 -22 -99v-487h58c8 0 12 -4 12 -12v-38zM343.001 111l-0.00195312 278
c-39.333 25.333 -74.666 38 -105.999 38c-70 0 -105 -61.667 -105 -185c0 -68.667 9.66699 -118.667 29 -150c16 -25.333 39 -38 69 -38c32.667 0 70.334 19 113.001 57z" />
    <glyph glyph-name="r" unicode="r" horiz-adv-x="333" 
d="M335 478c0 -2 -0.666992 -4.66699 -2 -8l-24 -55c-2 -2.66699 -3.66699 -4 -5 -4c-0.666992 0 -2 0.333008 -4 1c-16 4.66699 -26 7 -30 7c-20 0 -51.667 -25.333 -95 -76v-281h64c8 0 12 -4 12 -12v-38c0 -8 -4 -12 -12 -12h-196c-7.33301 0 -11 4 -11 12v38
c0 8 3.66699 12 11 12h57v250c0 48 -3.66699 83.333 -11 106h-53c-8 0 -12 4 -12 12v38c0 8 4 12 12 12h90c17.333 0 30.333 -23.333 39 -70l40 44c26 26.667 52.667 40 80 40c10.667 0 21.667 -1.83301 33 -5.5s17 -7.16699 17 -10.5z" />
    <glyph glyph-name="s" unicode="s" horiz-adv-x="389" 
d="M355 129c0 -43.333 -14.501 -78 -43.501 -104s-67.833 -39 -116.5 -39c-31.333 0 -64.666 5.66699 -99.999 17s-53 22.333 -53 33v93c0 8 4 12 12 12h42c8 0 12 -4 12 -12v-58c34 -13.333 64 -20 90 -20c24 0 43.333 6.66699 58 20s22 31 22 53
c0 30 -21.333 54.667 -64 74c-52.667 24 -90 45 -112 63c-30.667 24.667 -46 56 -46 94c0 40.667 14.167 74 42.5 100s64.833 39 109.5 39c40.667 0 80 -9.66699 118 -29c7.33301 -4 11 -9.66699 11 -17v-87c0 -8 -4 -12 -12 -12h-42c-8 0 -12 4 -12 12v55
c-22.667 9.33301 -44 14 -64 14c-50.667 0 -76 -22.333 -76 -67c0 -20 6.66699 -36.333 20 -49c7.33301 -6.66699 15.5 -12.5 24.5 -17.5s35.5 -18.167 79.5 -39.5c37.333 -18 63.333 -36.5 78 -55.5s22 -43.167 22 -72.5z" />
    <glyph glyph-name="t" unicode="t" horiz-adv-x="333" 
d="M335 30c0 -8 -15.3301 -16.665 -45.9971 -25.998s-58.667 -14 -84 -14c-62.667 0 -101.334 24.333 -116.001 73c-4 13.333 -6 37.666 -6 72.999v282h-71c-8 0 -12 3.66699 -12 11v39c0 8 4 12 12 12h71v137c0 6.66699 3.33301 11 10 13l52 14
c3.33301 1.33301 5.33301 2 6 2c4.66699 0 7 -4 7 -12v-154h150c6 0 9 -2.33301 9 -7c0 -1.33301 -0.333008 -3.33301 -1 -6l-11 -39c-2 -6.66699 -6.66699 -10 -14 -10h-133v-282c0 -32 3.33301 -52.333 10 -61c10 -13.333 26.667 -20 50 -20
c20.667 0 50.667 8.33301 90 25c3.33301 1.33301 5.66602 2 6.99902 2c3.33301 0 5.66602 -2 6.99902 -6l11 -41c1.33301 -2.66699 2 -4.33398 2 -5.00098z" />
    <glyph glyph-name="u" unicode="u" horiz-adv-x="537" 
d="M512 12c0 -8 -3.99902 -12 -11.999 -12h-87c-14 0 -26 15.667 -36 47c-50 -40.667 -99.333 -61 -148 -61c-92 0 -138 44.667 -138 134v298h-56c-8 0 -12 4 -12 12v38c0 8 4 12 12 12h119c8 0 12 -4 12 -12v-298c0 -44 5.16699 -74.333 15.5 -91s29.166 -25 56.499 -25
c45.333 0 87.333 17.333 126 52v312h-61c-8 0 -12 4 -12 12v38c0 8 4 12 12 12h124c8 0 12 -4 12 -12v-335c0 -27.333 3 -51 9 -71h52c8 0 12 -4 12 -12v-38z" />
    <glyph glyph-name="v" unicode="v" horiz-adv-x="444" 
d="M454 430c0 -8 -4.00098 -12 -12.001 -12h-29l-165 -416c-2.66699 -6 -7 -9 -13 -9h-39c-6 0 -10 3 -12 9l-153 416h-33c-8 0 -12 4 -12 12v38c0 8 4 12 12 12h169c8 0 12 -4 12 -12v-34c0 -8 -4 -12 -12 -12h-55l106 -331c4.66699 17.333 11.334 38 20.001 62l97 269h-59
c-8 0 -12 4 -12 12v34c0 8 4 12 12 12h166c8 0 12 -4 12 -12v-38z" />
    <glyph glyph-name="w" unicode="w" horiz-adv-x="630" 
d="M647 430c0 -8 -4.00098 -12 -12.001 -12h-39l-120 -415c-2 -6.66699 -6.33301 -10 -13 -10h-38c-6.66699 0 -11 3.33301 -13 10l-78 303c-2.66699 10 -6 29.333 -10 58l-3 21c-2 -24 -7.33301 -50 -16 -78l-94 -305c-2 -6 -6 -9 -12 -9h-37
c-7.33301 0 -11.666 3.33301 -12.999 10l-103 415h-37c-8 0 -12 4 -12 12v38c0 8 4 12 12 12h174c8 0 12 -4 12 -12v-34c0 -8 -4 -12 -12 -12h-65l61 -289c0.666992 -3.33301 3 -16.333 7 -39c0.666992 6.66699 4.66699 25 12 55l95 324c2 6 6 9 12 9h40
c7.33301 0 11.666 -3 12.999 -9l89 -376c0.666992 4 3.33398 17 8.00098 39l71 286h-54c-8 0 -12 4 -12 12v34c0 8 4 12 12 12h163c8 0 12 -4 12 -12v-38z" />
    <glyph glyph-name="x" unicode="x" horiz-adv-x="482" 
d="M467 12c0 -8 -3.66699 -12 -11 -12h-161c-8 0 -12 4 -12 12v34c0 8 4 12 12 12h36l-61 93c-2 2.66699 -5.33301 7.66699 -10 15l-10 16l-6 11c-3.33301 -4.66699 -8 -12 -14 -22c-2.66699 -4 -7 -10 -13 -18l-66 -95h46c8 0 12 -4 12 -12v-34c0 -8 -4 -12 -12 -12h-169
c-8 0 -12 4 -12 12v38c0 8 4 12 12 12h37l140 183l-122 173h-45c-8 0 -12 4 -12 12v38c0 8 4 12 12 12h167c8 0 12 -4 12 -12v-34c0 -8 -4 -12 -12 -12h-38l47 -72c6 -8.66699 16 -24.667 30 -48l18 28l14 20l50 72h-38c-8 0 -12 4 -12 12v34c0 8 4 12 12 12h156
c8 0 12 -4 12 -12v-38c0 -8 -4 -12 -12 -12h-35l-124 -164l133 -192h38c7.33301 0 11 -4 11 -12v-38z" />
    <glyph glyph-name="y" unicode="y" horiz-adv-x="444" 
d="M467 430c0 -8 -4 -11.999 -12 -11.999h-37l-102 -356c-24 -83.333 -46.333 -147 -67 -191c-26 -54.667 -66 -82 -120 -82c-24.667 0 -52 6 -82 18s-45 22.667 -45 32c0 2 0.666992 4 2 6l20 40c1.33301 3.33301 3.66602 5 6.99902 5c2 0 4.33301 -1 7 -3
c34.667 -23.333 64.334 -35 89.001 -35c33.333 0 59 28.333 77 85l20 63h-36c-6 0 -10 3 -12 9l-145 409h-40c-8 0 -12 4 -12 12v38c0 8 4 12 12 12h183c8 0 12 -4 12 -12v-34c0 -8 -4 -12 -12 -12h-64l110 -321c5.33301 -16 12 -40 20 -72
c6 27.333 11.333 50.666 16 69.999l84 323h-59c-8 0 -12 4 -12 12v34c0 8 4 12 12 12h174c8 0 12 -4 12 -12v-38z" />
    <glyph glyph-name="z" unicode="z" horiz-adv-x="426" 
d="M419 123l-0.999023 -7l-43 -107c-2.66699 -6 -7.33398 -9 -14.001 -9h-312c-8 0 -12 4 -12 12v40l254 366h-167v-71c0 -8 -4 -12 -12 -12h-42c-8 0 -12 4 -12 12v121c0 8 3.66699 12 11 12h304c7.33301 0 11 -4 11 -12v-41l-249 -362h187l31 77c2 5.33301 5 8 9 8
c2 0 4 -0.333008 6 -1l43 -17c5.33301 -2 8 -5 8 -9z" />
    <glyph glyph-name="braceleft" unicode="{" horiz-adv-x="426" 
d="M374 -191c0 -9.33301 -4.66797 -14 -14.001 -14h-19c-58 0 -100.333 12.167 -127 36.5s-40 62.833 -40 115.5v198c0 32 -6.83301 54.833 -20.5 68.5s-36.167 20.5 -67.5 20.5h-20c-9.33301 0 -14 4.66699 -14 14v34c0 9.33301 4.66699 14 14 14h19
c32 0 54.833 6.83301 68.5 20.5s20.5 36.5 20.5 68.5v178c0 52.667 13.333 91.167 40 115.5s69 36.5 127 36.5h19c9.33301 0 14 -4.66699 14 -14v-34c0 -9.33301 -4.66699 -14 -14 -14h-17c-34 0 -58 -6.66699 -72 -20s-21 -36.333 -21 -69v-178c0 -32 -5 -57 -15 -75
s-28 -33.333 -54 -46c26 -13.333 44 -28.833 54 -46.5s15 -42.5 15 -74.5v-198c0 -31.333 6.83301 -54 20.5 -68s35.834 -21 66.501 -21h23c9.33301 0 14 -4.66699 14 -14v-34z" />
    <glyph glyph-name="bar" unicode="|" horiz-adv-x="514" 
d="M319 -171h-82v857h82v-857z" />
    <glyph glyph-name="braceright" unicode="}" horiz-adv-x="426" 
d="M374 228c0 -9.33301 -4.66504 -14 -13.998 -14h-20c-31.333 0 -53.833 -6.83301 -67.5 -20.5s-20.5 -36.5 -20.5 -68.5v-178c0 -52.667 -13.333 -91.167 -40 -115.5s-69 -36.5 -127 -36.5h-19c-9.33301 0 -14 4.66699 -14 14v34c0 9.33301 4.66699 14 14 14h17
c34 0 58 6.66699 72 20s21 36.333 21 69v178c0 32 5 56.833 15 74.5s28 33.167 54 46.5c-26.667 14 -44.834 29.667 -54.501 47s-14.5 42 -14.5 74v198c0 31.333 -6.83301 54 -20.5 68s-35.834 21 -66.501 21h-23c-9.33301 0 -14 4.66699 -14 14v34
c0 9.33301 4.66699 14 14 14h19c58 0 100.333 -12.167 127 -36.5s40 -62.833 40 -115.5v-198c0 -32 6.83301 -54.833 20.5 -68.5s36.167 -20.5 67.5 -20.5h20c9.33301 0 14 -4.66699 14 -14v-34z" />
    <glyph glyph-name="asciitilde" unicode="~" horiz-adv-x="686" 
d="M611 715c-37.333 -78 -83.667 -117 -139 -117c-24 0 -63.333 13.667 -118 41c-45.333 22.667 -78.666 34 -99.999 34c-32 0 -62.667 -25.333 -92 -76l-44 34c37.333 77.333 83.666 116 138.999 116c26 0 65.333 -13.333 118 -40c46 -23.333 78.667 -35 98 -35
c34 0 65.333 25.667 94 77z" />
    <glyph glyph-name="nonbreakingspace" unicode="&#xa0;" horiz-adv-x="206" 
 />
    <glyph glyph-name="exclamdown" unicode="&#xa1;" horiz-adv-x="333" 
d="M237 423c0 -19.333 -7.00098 -35.833 -21.001 -49.5s-30.667 -20.5 -50 -20.5s-35.833 7 -49.5 21s-20.5 30.667 -20.5 50s7 35.833 21 49.5s31 20.5 51 20.5c18.667 0 34.834 -7 48.501 -21s20.5 -30.667 20.5 -50zM218.999 -197c0 -6 -4.66992 -9 -14.0029 -9h-75
c-9.33301 0 -13.666 4.66699 -12.999 14l22 394c0.666992 8.66699 5.33398 13 14.001 13h28c8.66699 0 13.334 -4.33301 14.001 -13z" />
    <glyph glyph-name="cent" unicode="&#xa2;" 
d="M441 520c0 -2.66699 -1.00098 -5.33203 -3.00098 -7.99902l-21 -38c-2 -4 -4.66699 -6 -8 -6c-2.66699 0 -5.66699 1 -9 3c-27.333 16.667 -53 26.667 -77 30v-366c22.667 4 50.334 14.667 83.001 32c3.33301 2 6 3 8 3c3.33301 0 5.33301 -2 6 -6l17 -42
c1.33301 -2.66699 2 -5 2 -7c0 -6.66699 -12.667 -15.167 -38 -25.5s-51.333 -17.833 -78 -22.5v-59c0 -8.66699 -4.66699 -13 -14 -13h-25c-9.33301 0 -14 4.33301 -14 13v55c-56.667 4.66699 -100.167 28 -130.5 70s-45.5 99.667 -45.5 173
c0 75.333 15.667 136.333 47 183s74.333 73 129 79v53c0 9.33301 4.66699 14 14 14h25c9.33301 0 14 -4.66699 14 -14v-52c37.333 -4.66699 69.333 -14.334 96 -29.001c14.667 -8 22 -14.667 22 -20zM269.999 133.002v365.999c-66 -15.333 -99 -75.666 -99 -180.999
c0 -112 33 -173.667 99 -185z" />
    <glyph glyph-name="sterling" unicode="&#xa3;" 
d="M511 58c0 -1.33301 -0.999023 -3.99902 -2.99902 -7.99902l-15 -40c-3.33301 -6.66699 -8.66602 -10 -15.999 -10h-411c-9.33301 0 -14 4.66699 -14 14v38c0 9.33301 4.66699 14 14 14h85c10 45.333 15 85 15 119c0 36 -5.66699 77 -17 123h-90
c-9.33301 0 -14 4.66699 -14 14v37c0 9.33301 4.66699 14 14 14h76c-10.667 42 -16 76.333 -16 103c0 54 19.167 97.5 57.5 130.5s88.833 49.5 151.5 49.5c31.333 0 63.5 -5 96.5 -15s49.5 -19.667 49.5 -29c0 -2.66699 -0.666992 -5.33398 -2 -8.00098l-19 -38
c-2.66699 -4 -5.33398 -6 -8.00098 -6c-3.33301 0 -7 1 -11 3c-36.667 18.667 -73.667 28 -111 28c-38.667 0 -69.834 -10.333 -93.501 -31s-35.5 -47.667 -35.5 -81c0 -22 5 -57.333 15 -106h134c9.33301 0 14 -4.66699 14 -14v-37c0 -9.33301 -4.66699 -14 -14 -14h-119
c12 -51.333 18 -93 18 -125c0 -34 -5 -72.667 -15 -116h270c9.33301 0 14 -3 14 -9z" />
    <glyph glyph-name="currency" unicode="&#xa4;" horiz-adv-x="529" 
d="M509 141c0 -2 -2 -4.99902 -6 -8.99902l-27 -27c-4 -4 -7.33301 -6 -10 -6c-2 0 -5 2 -9 6l-50 50c-40 -27.333 -89.667 -41 -149 -41c-54.667 0 -100.667 12.667 -138 38l-47 -47c-4 -4 -7.33301 -6 -10 -6c-2 0 -5 2 -9 6l-27 27c-4 4 -6 7.33301 -6 10s2 5.66699 6 9
l47 48c-25.333 40.667 -38 88 -38 142c0 54.667 13.333 102.667 40 144l-49 50c-4 3.33301 -6 6.66602 -6 9.99902c0 2 2 5 6 9l27 27c4 4 7.33301 6 10 6c2 0 5 -2 9 -6l50 -50c39.333 26.667 88.333 40 147 40c54.667 0 101.334 -12.333 140.001 -37l47 47
c3.33301 4 6.66602 6 9.99902 6c2 0 5 -2 9 -6l27 -27c4 -4 6 -7.33301 6 -10c0 -2 -2 -5 -6 -9l-48 -48c26 -40.667 39 -87.667 39 -141c0 -56 -13.667 -104.333 -41 -145l50 -50c4 -4 6 -7.33301 6 -10zM413 346.001c0 106 -49.667 159.001 -149 159.001
c-98 0 -147 -52 -147 -156c0 -60 13 -103.667 39 -131c24 -25.333 60.667 -38 110 -38c48 0 83.667 12 107 36c26.667 27.333 40 70.666 40 129.999z" />
    <glyph glyph-name="yen" unicode="&#xa5;" 
d="M502 633c0 -8 -3.66797 -12.001 -11.001 -12.001h-43l-104 -220h128c7.33301 0 11 -4 11 -12v-21c0 -8 -3.66699 -12 -11 -12h-149l-31 -64h180c7.33301 0 11 -4 11 -12v-21c0 -8 -3.66699 -12 -11 -12h-180v-182h70c8 0 12 -4 12 -12v-41c0 -8 -4 -12 -12 -12h-221
c-8 0 -12 4 -12 12v41c0 8 4 12 12 12h71v182h-184c-7.33301 0 -11 4 -11 12v21c0 8 3.66699 12 11 12h182l-32 64h-150c-7.33301 0 -11 4 -11 12v21c0 8 3.66699 12 11 12h128l-107 220h-37c-8 0 -12 4 -12 12v41c0 8 4 12 12 12h185c8 0 12 -4 12 -12v-41
c0 -8 -4 -12 -12 -12h-60l89 -197c6.66699 -13.333 16.334 -34.666 29.001 -63.999c3.33301 9.33301 12.333 31 27 65l85 196h-62c-8 0 -12 4 -12 12v41c0 8 4 12 12 12h186c7.33301 0 11 -4 11 -12v-41z" />
    <glyph glyph-name="brokenbar" unicode="&#xa6;" horiz-adv-x="514" 
d="M319 342h-82v344h82v-344zM319 -171h-82v329h82v-329z" />
    <glyph glyph-name="section" unicode="&#xa7;" 
d="M422 213c0 -58 -39.666 -109.335 -118.999 -154.002c37.333 -20.667 63.166 -40.167 77.499 -58.5s21.5 -41.166 21.5 -68.499c0 -40.667 -16 -74.834 -48 -102.501s-71.333 -41.5 -118 -41.5c-28.667 0 -62.167 7.33301 -100.5 22s-57.5 27.667 -57.5 39
c0 2 1.33301 5.66699 4 11l18 36c2.66699 5.33301 5.66699 8 9 8s6.33301 -1.33301 9 -4c46 -30.667 87.333 -46 124 -46c23.333 0 42.333 6.66699 57 20s22 30.333 22 51c0 21.333 -6.83301 38.833 -20.5 52.5s-43.5 31.834 -89.5 54.501c-52 26 -87.167 49.5 -105.5 70.5
s-27.5 48.167 -27.5 81.5c0 62 39 113.333 117 154c-62 29.333 -93 68.666 -93 117.999c0 38.667 15.167 70.667 45.5 96s68.5 38 114.5 38c26.667 0 54.834 -5.66699 84.501 -17s44.5 -22 44.5 -32c0 -1.33301 -1.33301 -4.66602 -4 -9.99902l-18 -38
c-2.66699 -5.33301 -5.33398 -8 -8.00098 -8s-11.334 4.66699 -26.001 14c-24 15.333 -50.333 23 -79 23c-23.333 0 -42.166 -5.66699 -56.499 -17s-21.5 -26.333 -21.5 -45c0 -19.333 9.33301 -35.666 28 -48.999c12.667 -8.66699 40 -24 82 -46
c50.667 -26 85.667 -50 105 -72s29 -48.667 29 -80zM346.001 202.998c0 21.333 -7.33301 39.667 -22 55s-41.334 32.333 -80.001 51c-59.333 -32 -89 -70.667 -89 -116c0 -30.667 14 -54.667 42 -72c6.66699 -4 24.334 -13.667 53.001 -29c64 34.667 96 71.667 96 111z" />
    <glyph glyph-name="dieresis" unicode="&#xa8;" 
d="M402 630c0 -14.667 -5.33301 -27.167 -16 -37.5s-23.334 -15.5 -38.001 -15.5s-27.167 5.33301 -37.5 16s-15.5 23.334 -15.5 38.001s5.33301 27.167 16 37.5s23.334 15.5 38.001 15.5s27.167 -5.33301 37.5 -16s15.5 -23.334 15.5 -38.001zM205 630
c0 -14.667 -5.16699 -27.167 -15.5 -37.5s-22.833 -15.5 -37.5 -15.5s-27.334 5.33301 -38.001 16s-16 23.334 -16 38.001s5.33301 27.167 16 37.5s23.334 15.5 38.001 15.5s27.167 -5.33301 37.5 -16s15.5 -23.334 15.5 -38.001z" />
    <glyph glyph-name="copyright" unicode="&#xa9;" horiz-adv-x="707" 
d="M673 343c0 -98 -31.168 -181.833 -93.501 -251.5s-137.5 -104.5 -225.5 -104.5s-163.333 34.833 -226 104.5s-94 153.167 -94 250.5c0 100 31.333 184.5 94 253.5s139.334 103.5 230.001 103.5c86 0 160 -35 222 -105s93 -153.667 93 -251zM619.999 342
c0 86 -25.998 158.668 -77.998 218.001s-115.667 89 -191 89c-72.667 0 -134.834 -30 -186.501 -90s-77.5 -132 -77.5 -216c0 -84.667 26.167 -156.834 78.5 -216.501s115.166 -89.5 188.499 -89.5s136 29.833 188 89.5s78 131.5 78 215.5zM462.001 177.001
c0 -7.33301 -2.66797 -13 -8.00098 -17c-28.667 -20.667 -61.667 -31 -99 -31c-101.333 0 -152 72.667 -152 218c0 140 49 210 147 210c40 0 73.667 -10.333 101 -31c5.33301 -4 8 -9.33301 8 -16v-64c0 -9.33301 -4.66699 -14 -14 -14h-29c-9.33301 0 -14 4.66699 -14 14
v45c-18 8.66699 -35 13 -51 13c-28 0 -48 -11.667 -60 -35s-18 -62 -18 -116c0 -114 27.333 -171 82 -171c16.667 0 33.334 4.33301 50.001 13v46c0 9.33301 4.66699 14 14 14h29c9.33301 0 14 -4.66699 14 -14v-64z" />
    <glyph glyph-name="ordfeminine" unicode="&#xaa;" horiz-adv-x="315" 
d="M299 281c0 -8.66699 -4.33203 -13 -12.999 -13h-53c-12 0 -21.333 8.66699 -28 26c-26 -22 -56.667 -33 -92 -33c-28.667 0 -51.334 7.66699 -68.001 23s-25 36.333 -25 63c0 67.333 57.667 103 173 107v13c0 31.333 -17.667 47 -53 47c-18 0 -42.333 -6 -73 -18
c-5.33301 -1.33301 -8.33301 -2 -9 -2c-4.66699 0 -8 2.66699 -10 8l-9 23c-1.33301 2.66699 -2 5 -2 7c0 8 11.667 15.667 35 23s48 11 74 11c72.667 0 109 -29.667 109 -89v-109c0 -24 2 -41.333 6 -52h25c8.66699 0 13 -4.33301 13 -13v-22zM193.001 341
l-0.000976562 65.001c-32 -1.33301 -55 -4.33301 -69 -9c-28 -8.66699 -42 -24.334 -42 -47.001c0 -27.333 14 -41 42 -41c10 0 22.333 3.5 37 10.5s25.334 14.167 32.001 21.5z" />
    <glyph glyph-name="guillemotleft" unicode="&#xab;" horiz-adv-x="481" 
d="M436 39c0 -2 -3.33398 -5 -10.001 -9l-27 -15c-4.66699 -2 -7.66699 -3 -9 -3c-2.66699 0 -6 2.33301 -10 7l-168 211c-2.66699 4.66699 -4 8 -4 10c0 1.33301 1.33301 4.33301 4 9l168 211c4 4.66699 7.33301 7 10 7s5.33398 -1 8.00098 -3l28 -15
c6 -3.33301 9 -6.33301 9 -9s-1.33301 -6 -4 -10l-129 -190l129 -191c3.33301 -4.66699 5 -8 5 -10zM249.999 39c0 -2.66699 -3.00098 -5.66797 -9.00098 -9.00098l-28 -15c-4 -2 -7 -3 -9 -3s-5 2.33301 -9 7l-168 211c-2.66699 3.33301 -4 6.66602 -4 9.99902
c0 2.66699 1.33301 5.66699 4 9l168 211c2.66699 4.66699 6 7 10 7c2.66699 0 5.33398 -1 8.00098 -3l28 -15c6 -3.33301 9 -6.66602 9 -9.99902c0 -2 -1.33301 -5 -4 -9l-129 -190l129 -191c2.66699 -5.33301 4 -8.66602 4 -9.99902z" />
    <glyph glyph-name="logicalnot" unicode="&#xac;" horiz-adv-x="514" 
d="M501 0h-79v214h-367v72h446v-286z" />
    <glyph glyph-name="sfthyphen" unicode="&#xad;" horiz-adv-x="352" 
d="M315 232c0 -9.33301 -4.66699 -14 -14 -14h-250c-9.33301 0 -14 4.66699 -14 14v47c0 9.33301 4.66699 14 14 14h250c9.33301 0 14 -4.66699 14 -14v-47z" />
    <glyph glyph-name="registered" unicode="&#xae;" horiz-adv-x="707" 
d="M673 343c0 -98 -31.168 -181.833 -93.501 -251.5s-137.5 -104.5 -225.5 -104.5s-163.333 34.833 -226 104.5s-94 153.167 -94 250.5c0 100 31.333 184.5 94 253.5s139.334 103.5 230.001 103.5c86 0 160 -35 222 -105s93 -153.667 93 -251zM619.999 342
c0 86 -25.998 158.668 -77.998 218.001s-115.667 89 -191 89c-72.667 0 -134.834 -30 -186.501 -90s-77.5 -132 -77.5 -216c0 -84.667 26.167 -156.834 78.5 -216.501s115.166 -89.5 188.499 -89.5s136 29.833 188 89.5s78 131.5 78 215.5zM520.001 160.001
c0 -8.66699 -4.66699 -13 -14 -13h-60c-7.33301 0 -13 3.33301 -17 10l-94 166h-34v-126h32c9.33301 0 14 -4.33301 14 -13v-24c0 -8.66699 -4.66699 -13 -14 -13h-128c-9.33301 0 -14 4.33301 -14 13v24c0 8.66699 4.66699 13 14 13h32v299h-32
c-9.33301 0 -14 4.33301 -14 13v24c0 8.66699 4.66699 13 14 13h141c37.333 0 64 -4 80 -12c33.333 -16.667 50 -47 50 -91c0 -56 -25.333 -93.667 -76 -113l80 -133h26c9.33301 0 14 -4.33301 14 -13v-24zM411.001 440.001c0 21.333 -5 36 -15 44s-27.667 12 -53 12h-42
v-125h40c46.667 0 70 23 70 69z" />
    <glyph glyph-name="macron" unicode="&#xaf;" 
d="M372 599c0 -9.33301 -4.66699 -14 -14 -14h-217c-9.33301 0 -14 4.66699 -14 14v35c0 9.33301 4.66699 14 14 14h217c9.33301 0 14 -4.66699 14 -14v-35z" />
    <glyph glyph-name="macron" unicode="&#x2c9;" 
d="M372 599c0 -9.33301 -4.66699 -14 -14 -14h-217c-9.33301 0 -14 4.66699 -14 14v35c0 9.33301 4.66699 14 14 14h217c9.33301 0 14 -4.66699 14 -14v-35z" />
    <glyph glyph-name="degree" unicode="&#xb0;" 
d="M405 545c0 -42.667 -15.166 -79 -45.499 -109s-66.833 -45 -109.5 -45s-79 15 -109 45s-45 66.333 -45 109c0 43.333 15.167 80 45.5 110s67.166 45 110.499 45c42 0 78 -15.167 108 -45.5s45 -66.833 45 -109.5zM341.001 545c0 25.333 -8.83203 46.833 -26.499 64.5
s-39.5 26.5 -65.5 26.5c-24.667 0 -45.667 -8.83301 -63 -26.5s-26 -39.167 -26 -64.5s8.66699 -46.833 26 -64.5s38.666 -26.5 63.999 -26.5s46.833 8.83301 64.5 26.5s26.5 39.167 26.5 64.5z" />
    <glyph glyph-name="plusminus" unicode="&#xb1;" 
d="M478 230c0 -9.33301 -4.66699 -14 -14 -14h-177v-155c0 -9.33301 -4.66699 -14 -14 -14h-47c-9.33301 0 -14 4.66699 -14 14v155h-176c-9.33301 0 -14 4.66699 -14 14v47c0 9.33301 4.66699 14 14 14h176v177c0 8.66699 4.66699 13 14 13h47
c9.33301 0 14 -4.33301 14 -13v-177h177c9.33301 0 14 -4.66699 14 -14v-47zM483 -41c0 -9.33301 -4.66699 -14 -14 -14h-438c-9.33301 0 -14 4.66699 -14 14v44c0 9.33301 4.66699 14 14 14h438c9.33301 0 14 -4.66699 14 -14v-44z" />
    <glyph glyph-name="twosuperior" unicode="&#xb2;" horiz-adv-x="352" 
d="M298 285c0 -12 -6.33203 -17.999 -18.999 -17.999h-206c-12.667 0 -19 6 -19 18c0 39.333 7.33301 73.333 22 102c16.667 32 47 62.333 91 91c25.333 16 42 29 50 39s12 22.333 12 37c0 34 -17 51 -51 51c-26.667 0 -47 -18 -61 -54
c-3.33301 -8.66699 -7.33301 -12.667 -12 -12l-10 1l-27 7c-8 3.33301 -12 8 -12 14c0 17.333 9 36.666 27 57.999c23.333 28 56 42 98 42c35.333 0 63.666 -9.5 84.999 -28.5s32 -44.5 32 -76.5c0 -26 -6.83301 -48.167 -20.5 -66.5s-39.167 -39.5 -76.5 -63.5
c-44.667 -28.667 -70 -61 -76 -97h154c12.667 0 19 -6 19 -18v-26z" />
    <glyph glyph-name="threesuperior" unicode="&#xb3;" horiz-adv-x="352" 
d="M301 379c0 -36 -13.3311 -64.833 -39.998 -86.5s-62.334 -32.5 -107.001 -32.5c-26 0 -51.333 3.33301 -76 10s-37 13.667 -37 21c0 3.33301 0.666992 6.33301 2 9l13 26c2.66699 5.33301 6 8 10 8c1.33301 0 7 -2 17 -6c21.333 -8.66699 45.666 -13 72.999 -13
c52.667 0 79 22 79 66c0 42.667 -29.667 64 -89 64h-23c-10 0 -15 5 -15 15v23c0 10 5 15 15 15h23c52 0 78 21 78 63c0 33.333 -19.333 50 -58 50c-22 0 -45.333 -11 -70 -33c-4 -3.33301 -7 -5 -9 -5c-2.66699 0 -5.66699 1 -9 3l-23 19c-3.33301 2 -5 4.33301 -5 7
c0 10 12.167 22.667 36.5 38s51.5 23 81.5 23c35.333 0 64 -9.33301 86 -28s33 -43 33 -73c0 -34.667 -17.667 -63 -53 -85c44.667 -19.333 67 -52 67 -98z" />
    <glyph glyph-name="acute" unicode="&#xb4;" 
d="M401 645c0 -2 -3.00098 -4.66699 -9.00098 -8l-164 -85c-5.33301 -2.66699 -8.66602 -4 -9.99902 -4c-2.66699 0 -5.66699 2.66699 -9 8l-10 15c-2.66699 4 -4 7.33301 -4 10c0 2 2.66699 5 8 9l145 111c4.66699 3.33301 8 5 10 5c2.66699 0 6 -2.66699 10 -8l29 -42
c2.66699 -4 4 -7.66699 4 -11z" />
    <glyph glyph-name="mu" unicode="&#xb5;" horiz-adv-x="537" 
d="M513 12c0 -8 -3.99902 -11.999 -11.999 -11.999h-87c-14 0 -26 15.667 -36 47c-50.667 -40.667 -100 -61 -148 -61c-21.333 0 -42.333 3.33301 -63 10v-187c0 -7.33301 -3.66699 -11 -11 -11h-53c-7.33301 0 -11 3.66699 -11 11v660c0 7.33301 3.66699 11 11 11h53
c7.33301 0 11 -3.66699 11 -11v-299c0 -44 5.16699 -74.333 15.5 -91s29.166 -25 56.499 -25c44 0 86 17.333 126 52v363c0 7.33301 3.66699 11 11 11h53c7.33301 0 11 -3.66699 11 -11v-336c0 -28.667 3 -52.334 9 -71.001h52c8 0 12 -4 12 -12v-38z" />
    <glyph glyph-name="mu" unicode="&#x3bc;" horiz-adv-x="537" 
d="M513 12c0 -8 -3.99902 -11.999 -11.999 -11.999h-87c-14 0 -26 15.667 -36 47c-50.667 -40.667 -100 -61 -148 -61c-21.333 0 -42.333 3.33301 -63 10v-187c0 -7.33301 -3.66699 -11 -11 -11h-53c-7.33301 0 -11 3.66699 -11 11v660c0 7.33301 3.66699 11 11 11h53
c7.33301 0 11 -3.66699 11 -11v-299c0 -44 5.16699 -74.333 15.5 -91s29.166 -25 56.499 -25c44 0 86 17.333 126 52v363c0 7.33301 3.66699 11 11 11h53c7.33301 0 11 -3.66699 11 -11v-336c0 -28.667 3 -52.334 9 -71.001h52c8 0 12 -4 12 -12v-38z" />
    <glyph glyph-name="paragraph" unicode="&#xb6;" horiz-adv-x="611" 
d="M558 635c0 -9.33301 -4.66699 -14 -14 -14h-66v-793c0 -9.33301 -4.66699 -14 -14 -14h-41c-9.33301 0 -14 4.66699 -14 14v793h-65v-793c0 -9.33301 -4.66699 -14 -14 -14h-41c-9.33301 0 -14 4.66699 -14 14v347c-30 -4.66699 -55.333 -7 -76 -7
c-122.667 0 -184 87.667 -184 263c0 118 36.333 195.667 109 233c28.667 14.667 79 22 151 22h269c9.33301 0 14 -4.66699 14 -14v-37zM275 238l0.000976562 383c-60.667 0 -99.334 -5 -116.001 -15c-38 -23.333 -57 -82 -57 -176c0 -69.333 10 -119.5 30 -150.5
s52.333 -46.5 97 -46.5c14 0 29.333 1.66699 46 5z" />
    <glyph glyph-name="middot" unicode="&#xb7;" horiz-adv-x="257" 
d="M196 244c0 -18.667 -6.5 -34.501 -19.5 -47.501s-28.833 -19.5 -47.5 -19.5s-34.5 6.66699 -47.5 20s-19.5 29.333 -19.5 48s6.5 34.334 19.5 47.001s29.167 19 48.5 19c18 0 33.5 -6.66699 46.5 -20s19.5 -29 19.5 -47z" />
    <glyph glyph-name="cedilla" unicode="&#xb8;" 
d="M379 -119c0 -23.333 -9.49902 -42.3311 -28.499 -56.998s-43.5 -22 -73.5 -22c-40 0 -60 6.33301 -60 19c0 -0.666992 0.333008 1.66602 1 6.99902l4 31c0 3.33301 1.66699 5 5 5c2.66699 0 4.66699 -0.333008 6 -1c12.667 -4.66699 28 -7 46 -7
c26.667 0 40 7.66699 40 23s-16.333 23 -49 23c-20.667 0 -30.334 4.33301 -29.001 13c0.666992 4.66699 1 8.66699 1 12l8 73h58l-5 -54c28 -3.33301 47.667 -9.83301 59 -19.5s17 -24.834 17 -45.501z" />
    <glyph glyph-name="onesuperior" unicode="&#xb9;" horiz-adv-x="352" 
d="M297 282c0 -10 -4.99902 -15 -14.999 -15h-175c-10 0 -15 5 -15 15v22c0 10 5 15 15 15h61v266l-82 -42c-2.66699 -2 -6.33398 -3 -11.001 -3c-2.66699 0 -6 3 -10 9l-8 12l-3 9c0 4 2.66699 7.66699 8 11l118 73h35c10 0 15 -5 15 -15v-320h52c10 0 15 -5 15 -15v-22z
" />
    <glyph glyph-name="ordmasculine" unicode="&#xba;" horiz-adv-x="334" 
d="M299 415c0 -49.333 -12 -87.5 -36 -114.5s-57.333 -40.5 -100 -40.5c-40.667 0 -72.167 13.333 -94.5 40s-33.5 64 -33.5 112c0 48.667 12 86.5 36 113.5s57.333 40.5 100 40.5c40 0 71.333 -13.333 94 -40s34 -63.667 34 -111zM235 416c0 67.333 -22.667 101 -68 101
s-68 -33.333 -68 -100c0 -72 23 -108 69 -108c44.667 0 67 35.667 67 107z" />
    <glyph glyph-name="guillemotright" unicode="&#xbb;" horiz-adv-x="481" 
d="M459 239c0 -2 -1.66699 -5 -5 -9l-167 -211c-4 -4.66699 -7.33301 -7 -10 -7c-2 0 -5 1 -9 3l-28 15c-6 3.33301 -9 6.33301 -9 9c0 2 1.66699 5.33301 5 10l129 190l-129 191c-3.33301 4.66699 -5 8 -5 10c0 2.66699 3 5.66699 9 9l28 15c4 2 7 3 9 3
s5.33301 -2.33301 10 -7l167 -211c3.33301 -4 5 -7.33301 5 -10zM273 239c0 -3.33301 -1.33301 -6.33203 -4 -8.99902l-167 -211c-4 -4.66699 -7.66699 -7 -11 -7c-1.33301 0 -4 1 -8 3l-28 15c-6 3.33301 -9 6.33301 -9 9s1.66699 6 5 10l128 190l-128 191
c-3.33301 4.66699 -5 7.66699 -5 9c0 3.33301 3 6.66602 9 9.99902l28 15c4 2 7 3 9 3s5 -2.33301 9 -7l168 -211c2.66699 -2.66699 4 -6 4 -10z" />
    <glyph glyph-name="onequarter" unicode="&#xbc;" horiz-adv-x="834" 
d="M785 97c0 -10 -5.00098 -15.001 -15.001 -15.001h-47v-75c0 -10 -5 -15 -15 -15h-32c-10 0 -15 5 -15 15v75h-163c-10 0 -15 5 -15 15v35l172 251c3.33301 5.33301 7.33301 8 12 8c0.666992 0 2.33398 -0.333008 5.00098 -1l33 -4
c9.33301 -1.33301 14 -4.66602 14 -9.99902c0 -3.33301 -1.33301 -7 -4 -11l-161 -231h107l7 87c0.666992 9.33301 6 14 16 14h24c10 0 15 -5 15 -15v-86h47c10 0 15 -5 15 -15v-22zM572.999 651.999c0 -2 -1 -4.66699 -3 -8l-272 -653c-2.66699 -6.66699 -9 -10 -19 -10
h-38c-8.66699 0 -13 2.33301 -13 7c0 2.66699 0.666992 5.66699 2 9l272 653c2.66699 6.66699 8 10 16 10h41c9.33301 0 14 -2.66699 14 -8zM290.999 281.999c0 -10 -4.99902 -15 -14.999 -15h-175c-10 0 -15 5 -15 15v22c0 10 5 15 15 15h61v266l-82 -42
c-2.66699 -2 -6.33398 -3 -11.001 -3c-2.66699 0 -6 3 -10 9l-8 12l-3 9c0 4 2.66699 7.66699 8 11l118 73h35c10 0 15 -5 15 -15v-320h52c10 0 15 -5 15 -15v-22z" />
    <glyph glyph-name="onehalf" unicode="&#xbd;" horiz-adv-x="833" 
d="M760 18c0 -12 -6.33301 -18.001 -19 -18.001h-206c-12.667 0 -19 6 -19 18c0 39.333 7.33301 73.333 22 102c16.667 32.667 47 63 91 91c25.333 16 42 29 50 39s12 22.333 12 37c0 34 -17 51 -51 51c-26.667 0 -47 -18 -61 -54
c-3.33301 -8.66699 -7.33301 -12.667 -12 -12s-8 1 -10 1l-27 8c-8 2.66699 -12 7 -12 13c0 16.667 9 35.667 27 57c24 28.667 56.667 43 98 43c35.333 0 63.666 -9.5 84.999 -28.5s32 -44.5 32 -76.5c0 -26 -6.83301 -48.167 -20.5 -66.5s-39.167 -39.5 -76.5 -63.5
c-45.333 -29.333 -70.666 -61.666 -75.999 -96.999h154c12.667 0 19 -6 19 -18v-26zM580 651.999c0 -2 -1 -4.66699 -3 -8l-272 -653c-2.66699 -6.66699 -9 -10 -19 -10h-37c-9.33301 0 -14 2.33301 -14 7c0 1.33301 1 4.33301 3 9l272 653
c2.66699 6.66699 7.66699 10 15 10h42c8.66699 0 13 -2.66699 13 -8zM302 281.999c0 -10 -4.99902 -15 -14.999 -15h-175c-10 0 -15 5 -15 15v22c0 10 5 15 15 15h61v266l-82 -42c-2.66699 -2 -6.33398 -3 -11.001 -3c-2.66699 0 -6 3 -10 9l-8 12l-3 9
c0 4 2.66699 7.66699 8 11l118 73h35c10 0 15 -5 15 -15v-320h52c10 0 15 -5 15 -15v-22z" />
    <glyph glyph-name="threequarters" unicode="&#xbe;" horiz-adv-x="834" 
d="M786 97c0 -10 -5.00098 -15.001 -15.001 -15.001h-46v-75c0 -10 -5 -15 -15 -15h-32c-10 0 -15 5 -15 15v75h-163c-10 0 -15 5 -15 15v35l172 251c3.33301 5.33301 7.33301 8 12 8c0.666992 0 2.33398 -0.333008 5.00098 -1l33 -4
c9.33301 -1.33301 14 -4.66602 14 -9.99902c0 -3.33301 -1.33301 -7 -4 -11l-161 -231h108l6 87c0.666992 9.33301 6 14 16 14h24c10 0 15 -5 15 -15v-86h46c10 0 15 -5 15 -15v-22zM600.999 651.999c0 -2 -0.666992 -4.66699 -2 -8l-273 -653
c-2.66699 -6.66699 -8.66699 -10 -18 -10h-38c-8.66699 0 -13 2.33301 -13 7c0 2.66699 0.666992 5.66699 2 9l272 653c2.66699 6.66699 8 10 16 10h41c8.66699 0 13 -2.66699 13 -8zM312.999 378.999c0 -36 -13.3311 -64.833 -39.998 -86.5s-62.334 -32.5 -107.001 -32.5
c-26 0 -51.333 3.33301 -76 10s-37 13.667 -37 21c0 3.33301 0.666992 6.33301 2 9l13 26c2.66699 5.33301 6 8 10 8c1.33301 0 7 -2 17 -6c21.333 -8.66699 45.666 -13 72.999 -13c52.667 0 79 22 79 66c0 42.667 -29.667 64 -89 64h-23c-10 0 -15 5 -15 15v23
c0 10 5 15 15 15h23c52 0 78 21 78 63c0 33.333 -19.333 50 -58 50c-22 0 -45.333 -11 -70 -33c-4 -3.33301 -7 -5 -9 -5c-2.66699 0 -5.66699 1 -9 3l-23 19c-3.33301 2 -5 4.33301 -5 7c0 10 12.167 22.667 36.5 38s51.5 23 81.5 23c35.333 0 64 -9.33301 86 -28
s33 -43 33 -73c0 -34.667 -17.667 -63 -53 -85c44.667 -19.333 67 -52 67 -98z" />
    <glyph glyph-name="questiondown" unicode="&#xbf;" horiz-adv-x="426" 
d="M305 423c0 -18.667 -6.83398 -35 -20.501 -49s-30.167 -21 -49.5 -21c-20 0 -36.833 7 -50.5 21s-20.5 30.667 -20.5 50s7 35.833 21 49.5s31 20.5 51 20.5c18.667 0 34.834 -7 48.501 -21s20.5 -30.667 20.5 -50zM375.999 -172
c0 -9.33301 -16.999 -18.832 -50.999 -28.499s-67.667 -14.5 -101 -14.5c-54.667 0 -97.334 13.667 -128.001 41s-46 65.666 -46 114.999c0 86 51 142.667 153 170v90c0 9.33301 4.66699 14 14 14h40c9.33301 0 14 -4.66699 14 -14v-123c0 -10 -5.66699 -16.667 -17 -20
c-36 -10 -63.667 -20.667 -83 -32c-28 -16.667 -42 -44.334 -42 -83.001c0 -59.333 34.333 -89 103 -89c34 0 70.667 8 110 24c3.33301 1.33301 6.33301 2 9 2c4.66699 0 7.66699 -2.33301 9 -7l14 -38c1.33301 -3.33301 2 -5.66602 2 -6.99902z" />
    <glyph glyph-name="Agrave" unicode="&#xc0;" horiz-adv-x="574" 
d="M370 781c0 -1.33301 -1.33203 -4.33398 -3.99902 -9.00098l-11 -19c-2 -3.33301 -4.66699 -5 -8 -5c-1.33301 0 -4.66602 1 -9.99902 3l-174 69c-6.66699 2.66699 -10 6 -10 10c0 2.66699 1 5.66699 3 9l26 45c3.33301 5.33301 6.66602 8 9.99902 8
s6.66602 -1.33301 9.99902 -4l159 -97c6 -3.33301 9 -6.66602 9 -9.99902zM580.001 11.999c0 -8 -4 -12 -12 -12h-203c-8 0 -12 4 -12 12v41c0 8 4 12 12 12h62l-40 141h-203l-40 -141h65c8 0 12 -4 12 -12v-41c0 -8 -4 -12 -12 -12h-201c-8 0 -12 4 -12 12v41
c0 8 4 12 12 12h48l187 610c2 7.33301 7 11 15 11h59c8 0 13 -3.66699 15 -11l187 -610h49c8 0 12 -4 12 -12v-41zM368.001 274.999l-59.999 220c-8.66699 31.333 -16.334 63.333 -23.001 96c-5.33301 -26 -13 -57.667 -23 -95l-59 -221h165z" />
    <glyph glyph-name="Aacute" unicode="&#xc1;" horiz-adv-x="574" 
d="M422 829c0 -3.33301 -3.33203 -6.33301 -9.99902 -9l-176 -70c-3.33301 -1.33301 -6.33301 -2 -9 -2c-3.33301 0 -6.33301 2.66699 -9 8l-9 16c-2.66699 3.33301 -4 6.66602 -4 9.99902c0 2.66699 3 5.66699 9 9l159 97c3.33301 2.66699 6.33301 4 9 4
c3.33301 0 6.66602 -2.66699 9.99902 -8l26 -45c2.66699 -3.33301 4 -6.66602 4 -9.99902zM580.001 12c0 -8 -4 -12 -12 -12h-203c-8 0 -12 4 -12 12v41c0 8 4 12 12 12h62l-40 141h-203l-40 -141h65c8 0 12 -4 12 -12v-41c0 -8 -4 -12 -12 -12h-201c-8 0 -12 4 -12 12v41
c0 8 4 12 12 12h48l187 610c2 7.33301 7 11 15 11h59c8 0 13 -3.66699 15 -11l187 -610h49c8 0 12 -4 12 -12v-41zM368.001 275l-59.999 220c-8.66699 31.333 -16.334 63.333 -23.001 96c-5.33301 -26 -13 -57.667 -23 -95l-59 -221h165z" />
    <glyph glyph-name="Acircumflex" unicode="&#xc2;" horiz-adv-x="574" 
d="M422 779c0 -1.33301 -1.33301 -4.33105 -4 -8.99805l-12 -15c-4 -4.66699 -7.33301 -7 -10 -7s-6 1 -10 3l-98 53l-98 -53c-4 -2 -7.33301 -3 -10 -3s-6 2.33301 -10 7l-12 15c-2.66699 3.33301 -4 6.66602 -4 9.99902s2.33301 6.66602 7 9.99902l108 74
c8 5.33301 14.333 8 19 8c4 0 10 -2.66699 18 -8l109 -74c4.66699 -3.33301 7 -7 7 -11zM580 12.002c0 -8 -4 -12 -12 -12h-203c-8 0 -12 4 -12 12v41c0 8 4 12 12 12h62l-40 141h-203l-40 -141h65c8 0 12 -4 12 -12v-41c0 -8 -4 -12 -12 -12h-201c-8 0 -12 4 -12 12v41
c0 8 4 12 12 12h48l187 610c2 7.33301 7 11 15 11h59c8 0 13 -3.66699 15 -11l187 -610h49c8 0 12 -4 12 -12v-41zM368 275.002l-59.999 220c-8.66699 31.333 -16.334 63.333 -23.001 96c-5.33301 -26 -13 -57.667 -23 -95l-59 -221h165z" />
    <glyph glyph-name="Atilde" unicode="&#xc3;" horiz-adv-x="574" 
d="M440 843c0 -12 -9.16895 -28.166 -27.502 -48.499s-40.833 -30.5 -67.5 -30.5c-15.333 0 -36 7 -62 21c-23.333 12.667 -41 19 -53 19c-18 0 -32.667 -10 -44 -30c-2.66699 -5.33301 -6 -8 -10 -8c-2 0 -4 0.666992 -6 2l-28 11c-5.33301 2 -8 5 -8 9
c0 10 9.66699 26 29 48c17.333 20 39 30 65 30c18.667 0 47.334 -10.667 86.001 -32c10 -5.33301 19.333 -8 28 -8c20.667 0 36.334 10 47.001 30c2.66699 5.33301 5.66699 8 9 8l7 -1l27 -12c5.33301 -2.66699 8 -5.33398 8 -8.00098zM579.998 12.001c0 -8 -4 -12 -12 -12
h-203c-8 0 -12 4 -12 12v41c0 8 4 12 12 12h62l-40 141h-203l-40 -141h65c8 0 12 -4 12 -12v-41c0 -8 -4 -12 -12 -12h-201c-8 0 -12 4 -12 12v41c0 8 4 12 12 12h48l187 610c2 7.33301 7 11 15 11h59c8 0 13 -3.66699 15 -11l187 -610h49c8 0 12 -4 12 -12v-41z
M367.998 275.001l-59.999 220c-8.66699 31.333 -16.334 63.333 -23.001 96c-5.33301 -26 -13 -57.667 -23 -95l-59 -221h165z" />
    <glyph glyph-name="Adieresis" unicode="&#xc4;" horiz-adv-x="574" 
d="M444 811c0 -14.667 -5.33398 -27.5 -16.001 -38.5s-23.667 -16.5 -39 -16.5s-28.333 5.33301 -39 16s-16 23.667 -16 39s5.5 28.333 16.5 39s24.167 16 39.5 16c14.667 0 27.334 -5.5 38.001 -16.5s16 -23.833 16 -38.5zM241.999 812c0 -15.333 -5.33301 -28.5 -16 -39.5
s-23.667 -16.5 -39 -16.5s-28.5 5.5 -39.5 16.5s-16.5 24.167 -16.5 39.5s5.5 28.333 16.5 39s24.167 16 39.5 16s28.333 -5.33301 39 -16s16 -23.667 16 -39zM579.999 12c0 -8 -4 -12 -12 -12h-203c-8 0 -12 4 -12 12v41c0 8 4 12 12 12h62l-40 141h-203l-40 -141h65
c8 0 12 -4 12 -12v-41c0 -8 -4 -12 -12 -12h-201c-8 0 -12 4 -12 12v41c0 8 4 12 12 12h48l187 610c2 7.33301 7 11 15 11h59c8 0 13 -3.66699 15 -11l187 -610h49c8 0 12 -4 12 -12v-41zM367.999 275l-59.999 220c-8.66699 31.333 -16.334 63.333 -23.001 96
c-5.33301 -26 -13 -57.667 -23 -95l-59 -221h165z" />
    <glyph glyph-name="Aring" unicode="&#xc5;" horiz-adv-x="574" 
d="M379 824c0 -25.333 -9.00098 -47 -27.001 -65s-39.667 -27 -65 -27s-46.833 9 -64.5 27s-26.5 39.667 -26.5 65s9 46.833 27 64.5s40 26.5 66 26.5c24.667 0 45.834 -9 63.501 -27s26.5 -39.333 26.5 -64zM579.999 12c0 -8 -4 -12 -12 -12h-203c-8 0 -12 4 -12 12v41
c0 8 4 12 12 12h62l-40 141h-203l-40 -141h65c8 0 12 -4 12 -12v-41c0 -8 -4 -12 -12 -12h-201c-8 0 -12 4 -12 12v41c0 8 4 12 12 12h48l187 610c2 7.33301 7 11 15 11h59c8 0 13 -3.66699 15 -11l187 -610h49c8 0 12 -4 12 -12v-41zM328.999 824
c0 12 -4.16699 22.333 -12.5 31s-18.166 13 -29.499 13s-21 -4.33301 -29 -13s-12 -19 -12 -31c0 -12.667 4.16699 -23.334 12.5 -32.001s18.166 -13 29.499 -13s21 4.33301 29 13s12 19.334 12 32.001zM367.999 275l-59.999 220c-8.66699 31.333 -16.334 63.333 -23.001 96
c-5.33301 -26 -13 -57.667 -23 -95l-59 -221h165z" />
    <glyph glyph-name="AE" unicode="&#xc6;" horiz-adv-x="704" 
d="M672 14c0 -9.33301 -4.66699 -14 -14 -14h-385c-8 0 -12 4 -12 12v41c0 8 4 12 12 12h64v143h-185l-64 -143h53c8 0 12 -4 12 -12v-41c0 -8 -4 -12 -12 -12h-181c-8 0 -12 4 -12 12v41c0 8 4 12 12 12h41l292 611c3.33301 6.66699 8.33301 10 15 10h343
c9.33301 0 14 -5 14 -15v-135c0 -8 -4 -12 -12 -12h-45c-8 0 -12 4 -12 12v79h-177v-225h196c9.33301 0 14 -4.66699 14 -14v-39c0 -9.33301 -4.66699 -14 -14 -14h-196v-252h184v88c0 8 4 12 12 12h45c8 0 12 -4 12 -12v-145zM338 632
c-6.66699 -20 -23.667 -60.667 -51 -122l-106 -236h156v304c0 20.667 0.333008 38.667 1 54z" />
    <glyph glyph-name="Ccedilla" unicode="&#xc7;" horiz-adv-x="482" 
d="M441 56c0 -10.667 -8.66699 -21 -26 -31c-32.667 -19.333 -65.667 -31.333 -99 -36l-2 -45c26 -3.33301 44.333 -9 55 -17c15.333 -10 23 -26.667 23 -50c0 -24 -9.66699 -43.5 -29 -58.5s-44.666 -22.5 -75.999 -22.5c-41.333 0 -62 6.33301 -62 19
c0 2.66699 0.333008 5.33398 1 8.00098l4 31c0 4 2 6 6 6c4.66699 0 13 -1.5 25 -4.5s21.333 -4.5 28 -4.5c27.333 0 41 8 41 24s-17.667 24 -53 24c-18.667 0 -27.667 4.33301 -27 13l1 13l6 62c-52.667 6.66699 -93.667 26 -123 58c-55.333 60 -83 161.667 -83 305
c0 233.333 74 350 222 350c61.333 0 113 -17 155 -51c5.33301 -4.66699 8 -10.667 8 -18v-111c0 -8 -4 -12 -12 -12h-45c-8 0 -12 4 -12 12v85c-32.667 18.667 -63.334 28 -92.001 28c-48 0 -82.5 -21.333 -103.5 -64s-31.5 -112.334 -31.5 -209.001
c0 -204.667 47.333 -307 142 -307c28 0 58 9.33301 90 28v86c0 8 4 12 12 12h45c8 0 12 -4 12 -12v-111z" />
    <glyph glyph-name="Egrave" unicode="&#xc8;" horiz-adv-x="482" 
d="M323 781c0 -1.33301 -1.33203 -4.33398 -3.99902 -9.00098l-11 -19c-2 -3.33301 -4.66699 -5 -8 -5c-1.33301 0 -4.66602 1 -9.99902 3l-174 69c-6.66699 2.66699 -10 6 -10 10c0 2.66699 1 5.66699 3 9l26 45c3.33301 5.33301 6.66602 8 9.99902 8
s6.66602 -1.33301 9.99902 -4l159 -97c6 -3.33301 9 -6.66602 9 -9.99902zM449.001 13.999c0 -9.33301 -4.66699 -14 -14 -14h-384c-8 0 -12 4 -12 12v41c0 8 4 12 12 12h63v556h-63c-8 0 -12 4 -12 12v41c0 8 4 12 12 12h377c9.33301 0 14 -5 14 -15v-135
c0 -8 -4 -12 -12 -12h-45c-8 0 -12 4 -12 12v79h-177v-225h196c9.33301 0 14 -4.66699 14 -14v-39c0 -9.33301 -4.66699 -14 -14 -14h-196v-252h184v88c0 8 4 12 12 12h45c8 0 12 -4 12 -12v-145z" />
    <glyph glyph-name="Eacute" unicode="&#xc9;" horiz-adv-x="482" 
d="M396 829c0 -3.33301 -3.33203 -6.33301 -9.99902 -9l-176 -70c-3.33301 -1.33301 -6.33301 -2 -9 -2c-3.33301 0 -6.33301 2.66699 -9 8l-9 16c-2.66699 3.33301 -4 6.66602 -4 9.99902c0 2.66699 3 5.66699 9 9l159 97c3.33301 2.66699 6.33301 4 9 4
c3.33301 0 6.66602 -2.66699 9.99902 -8l26 -45c2.66699 -3.33301 4 -6.66602 4 -9.99902zM449.001 14c0 -9.33301 -4.66699 -14 -14 -14h-384c-8 0 -12 4 -12 12v41c0 8 4 12 12 12h63v556h-63c-8 0 -12 4 -12 12v41c0 8 4 12 12 12h377c9.33301 0 14 -5 14 -15v-135
c0 -8 -4 -12 -12 -12h-45c-8 0 -12 4 -12 12v79h-177v-225h196c9.33301 0 14 -4.66699 14 -14v-39c0 -9.33301 -4.66699 -14 -14 -14h-196v-252h184v88c0 8 4 12 12 12h45c8 0 12 -4 12 -12v-145z" />
    <glyph glyph-name="Ecircumflex" unicode="&#xca;" horiz-adv-x="482" 
d="M375 779c0 -1.33301 -1.33301 -4.33105 -4 -8.99805l-12 -15c-4 -4.66699 -7.33301 -7 -10 -7s-6 1 -10 3l-98 53l-98 -53c-4 -2 -7.33301 -3 -10 -3s-6 2.33301 -10 7l-12 15c-2.66699 3.33301 -4 6.66602 -4 9.99902s2.33301 6.66602 7 9.99902l108 74
c8 5.33301 14.333 8 19 8c4 0 10 -2.66699 18 -8l109 -74c4.66699 -3.33301 7 -7 7 -11zM449 14.002c0 -9.33301 -4.66699 -14 -14 -14h-384c-8 0 -12 4 -12 12v41c0 8 4 12 12 12h63v556h-63c-8 0 -12 4 -12 12v41c0 8 4 12 12 12h377c9.33301 0 14 -5 14 -15v-135
c0 -8 -4 -12 -12 -12h-45c-8 0 -12 4 -12 12v79h-177v-225h196c9.33301 0 14 -4.66699 14 -14v-39c0 -9.33301 -4.66699 -14 -14 -14h-196v-252h184v88c0 8 4 12 12 12h45c8 0 12 -4 12 -12v-145z" />
    <glyph glyph-name="Edieresis" unicode="&#xcb;" horiz-adv-x="482" 
d="M397 811c0 -14.667 -5.33398 -27.5 -16.001 -38.5s-23.667 -16.5 -39 -16.5s-28.333 5.33301 -39 16s-16 23.667 -16 39s5.5 28.333 16.5 39s24.167 16 39.5 16c14.667 0 27.334 -5.5 38.001 -16.5s16 -23.833 16 -38.5zM194.999 812c0 -15.333 -5.33301 -28.5 -16 -39.5
s-23.667 -16.5 -39 -16.5s-28.5 5.5 -39.5 16.5s-16.5 24.167 -16.5 39.5s5.5 28.333 16.5 39s24.167 16 39.5 16s28.333 -5.33301 39 -16s16 -23.667 16 -39zM448.999 14c0 -9.33301 -4.66699 -14 -14 -14h-384c-8 0 -12 4 -12 12v41c0 8 4 12 12 12h63v556h-63
c-8 0 -12 4 -12 12v41c0 8 4 12 12 12h377c9.33301 0 14 -5 14 -15v-135c0 -8 -4 -12 -12 -12h-45c-8 0 -12 4 -12 12v79h-177v-225h196c9.33301 0 14 -4.66699 14 -14v-39c0 -9.33301 -4.66699 -14 -14 -14h-196v-252h184v88c0 8 4 12 12 12h45c8 0 12 -4 12 -12v-145z" />
    <glyph glyph-name="Igrave" unicode="&#xcc;" horiz-adv-x="352" 
d="M245 781c0 -1.33301 -1.33203 -4.33398 -3.99902 -9.00098l-11 -19c-2 -3.33301 -4.66699 -5 -8 -5c-1.33301 0 -4.66602 1 -9.99902 3l-174 69c-6.66699 2.66699 -10 6 -10 10c0 2.66699 1 5.66699 3 9l26 45c3.33301 5.33301 6.66602 8 9.99902 8
s6.66602 -1.33301 9.99902 -4l159 -97c6 -3.33301 9 -6.66602 9 -9.99902zM320.001 13.999c0 -9.33301 -4.66699 -14 -14 -14h-259c-9.33301 0 -14 4.66699 -14 14v37c0 9.33301 4.66699 14 14 14h88v556h-88c-9.33301 0 -14 4.66699 -14 14v37c0 9.33301 4.66699 14 14 14
h259c9.33301 0 14 -4.66699 14 -14v-37c0 -9.33301 -4.66699 -14 -14 -14h-89v-556h89c9.33301 0 14 -4.66699 14 -14v-37z" />
    <glyph glyph-name="Iacute" unicode="&#xcd;" horiz-adv-x="352" 
d="M325 829c0 -3.33301 -3.33203 -6.33301 -9.99902 -9l-176 -70c-3.33301 -1.33301 -6.33301 -2 -9 -2c-3.33301 0 -6.33301 2.66699 -9 8l-9 16c-2.66699 3.33301 -4 6.66602 -4 9.99902c0 2.66699 3 5.66699 9 9l159 97c3.33301 2.66699 6.33301 4 9 4
c3.33301 0 6.66602 -2.66699 9.99902 -8l26 -45c2.66699 -3.33301 4 -6.66602 4 -9.99902zM320.001 14c0 -9.33301 -4.66699 -14 -14 -14h-259c-9.33301 0 -14 4.66699 -14 14v37c0 9.33301 4.66699 14 14 14h88v556h-88c-9.33301 0 -14 4.66699 -14 14v37
c0 9.33301 4.66699 14 14 14h259c9.33301 0 14 -4.66699 14 -14v-37c0 -9.33301 -4.66699 -14 -14 -14h-89v-556h89c9.33301 0 14 -4.66699 14 -14v-37z" />
    <glyph glyph-name="Icircumflex" unicode="&#xce;" horiz-adv-x="352" 
d="M311 779c0 -1.33301 -1.33301 -4.33105 -4 -8.99805l-12 -15c-4 -4.66699 -7.33301 -7 -10 -7s-6 1 -10 3l-98 53l-98 -53c-4 -2 -7.33301 -3 -10 -3s-6 2.33301 -10 7l-12 15c-2.66699 3.33301 -4 6.66602 -4 9.99902s2.33301 6.66602 7 9.99902l108 74
c8 5.33301 14.333 8 19 8c4 0 10 -2.66699 18 -8l109 -74c4.66699 -3.33301 7 -7 7 -11zM320 14.002c0 -9.33301 -4.66699 -14 -14 -14h-259c-9.33301 0 -14 4.66699 -14 14v37c0 9.33301 4.66699 14 14 14h88v556h-88c-9.33301 0 -14 4.66699 -14 14v37
c0 9.33301 4.66699 14 14 14h259c9.33301 0 14 -4.66699 14 -14v-37c0 -9.33301 -4.66699 -14 -14 -14h-89v-556h89c9.33301 0 14 -4.66699 14 -14v-37z" />
    <glyph glyph-name="Idieresis" unicode="&#xcf;" horiz-adv-x="352" 
d="M319 811c0 -14.667 -5.33398 -27.5 -16.001 -38.5s-23.667 -16.5 -39 -16.5s-28.333 5.33301 -39 16s-16 23.667 -16 39s5.5 28.333 16.5 39s24.167 16 39.5 16c14.667 0 27.334 -5.5 38.001 -16.5s16 -23.833 16 -38.5zM143.999 812c0 -15.333 -5.33301 -28.5 -16 -39.5
s-23.667 -16.5 -39 -16.5s-28.5 5.5 -39.5 16.5s-16.5 24.167 -16.5 39.5s5.5 28.333 16.5 39s24.167 16 39.5 16s28.333 -5.33301 39 -16s16 -23.667 16 -39zM319.999 14c0 -9.33301 -4.66699 -14 -14 -14h-259c-9.33301 0 -14 4.66699 -14 14v37
c0 9.33301 4.66699 14 14 14h88v556h-88c-9.33301 0 -14 4.66699 -14 14v37c0 9.33301 4.66699 14 14 14h259c9.33301 0 14 -4.66699 14 -14v-37c0 -9.33301 -4.66699 -14 -14 -14h-89v-556h89c9.33301 0 14 -4.66699 14 -14v-37z" />
    <glyph glyph-name="Eth" unicode="&#xd0;" horiz-adv-x="574" 
d="M522 350c0 -123.333 -22 -212.501 -66 -267.501s-115.333 -82.5 -214 -82.5h-192c-7.33301 0 -11 4 -11 12v41c0 8 3.66699 12 11 12h65v260h-62c-9.33301 0 -14 4.66699 -14 14v37c0 9.33301 4.66699 14 14 14h62v231h-65c-7.33301 0 -11 4 -11 12v41
c0 8 3.66699 12 11 12h203c77.333 0 133.333 -12.667 168 -38c67.333 -49.333 101 -148.666 101 -297.999zM434 352.999c0 130.667 -26.334 211.333 -79.001 242c-23.333 13.333 -57.666 20 -102.999 20h-55v-225h120c9.33301 0 14 -4.66699 14 -14v-37
c0 -9.33301 -4.66699 -14 -14 -14h-120v-254h62c61.333 0 106.333 22 135 66c26.667 40.667 40 112.667 40 216z" />
    <glyph glyph-name="Ntilde" unicode="&#xd1;" horiz-adv-x="574" 
d="M450 843c0 -12 -9.16895 -28.166 -27.502 -48.499s-40.833 -30.5 -67.5 -30.5c-15.333 0 -36 7 -62 21c-23.333 12.667 -41 19 -53 19c-18 0 -32.667 -10 -44 -30c-2.66699 -5.33301 -6 -8 -10 -8c-2 0 -4 0.666992 -6 2l-28 11c-5.33301 2 -8 5 -8 9
c0 10 9.66699 26 29 48c17.333 20 39 30 65 30c18.667 0 47.334 -10.667 86.001 -32c10 -5.33301 19.333 -8 28 -8c20.667 0 36.334 10 47.001 30c2.66699 5.33301 5.66699 8 9 8l7 -1l27 -12c5.33301 -2.66699 8 -5.33398 8 -8.00098zM567.998 633.001
c0 -8 -3.99902 -12 -11.999 -12h-63v-607c0 -9.33301 -4.66699 -14 -14 -14h-54c-6.66699 0 -11.667 3.33301 -15 10l-231 495c-11.333 24.667 -21 53.667 -29 87c6.66699 -34 10 -64.333 10 -91v-436h64c8 0 12 -4 12 -12v-41c0 -8 -4 -12 -12 -12h-200c-8 0 -12 4 -12 12
v41c0 8 4 12 12 12h63v556h-63c-8 0 -12 4 -12 12v41c0 8 4 12 12 12h140c7.33301 0 12.666 -3.33301 15.999 -10l221 -466c9.33301 -20 18 -45.667 26 -77c-4.66699 28 -7 54.667 -7 80v408h-63c-8 0 -12 4 -12 12v41c0 8 4 12 12 12h199c8 0 12 -4 12 -12v-41z" />
    <glyph glyph-name="Ograve" unicode="&#xd2;" horiz-adv-x="556" 
d="M339 781c0 -1.33301 -1.33203 -4.33398 -3.99902 -9.00098l-11 -19c-2 -3.33301 -4.66699 -5 -8 -5c-1.33301 0 -4.66602 1 -9.99902 3l-174 69c-6.66699 2.66699 -10 6 -10 10c0 2.66699 1 5.66699 3 9l26 45c3.33301 5.33301 6.66602 8 9.99902 8
s6.66602 -1.33301 9.99902 -4l159 -97c6 -3.33301 9 -6.66602 9 -9.99902zM503.001 343.999c0 -238.667 -77 -358 -231 -358c-146.667 0 -220 117.667 -220 353c0 240.667 78 361 234 361c144.667 0 217 -118.667 217 -356zM414.001 336.999
c0 109.333 -12.665 188.666 -37.998 237.999c-20 38.667 -52.667 58 -98 58c-48.667 0 -83 -21 -103 -63c-22.667 -48 -34 -123 -34 -225c0 -103.333 13 -181.333 39 -234c19.333 -38.667 51.666 -58 96.999 -58c49.333 0 83.666 21 102.999 63
c22.667 48.667 34 122.334 34 221.001z" />
    <glyph glyph-name="Oacute" unicode="&#xd3;" horiz-adv-x="556" 
d="M433 829c0 -3.33301 -3.33203 -6.33301 -9.99902 -9l-176 -70c-3.33301 -1.33301 -6.33301 -2 -9 -2c-3.33301 0 -6.33301 2.66699 -9 8l-9 16c-2.66699 3.33301 -4 6.66602 -4 9.99902c0 2.66699 3 5.66699 9 9l159 97c3.33301 2.66699 6.33301 4 9 4
c3.33301 0 6.66602 -2.66699 9.99902 -8l26 -45c2.66699 -3.33301 4 -6.66602 4 -9.99902zM503.001 344c0 -238.667 -77 -358 -231 -358c-146.667 0 -220 117.667 -220 353c0 240.667 78 361 234 361c144.667 0 217 -118.667 217 -356zM414.001 337
c0 109.333 -12.665 188.666 -37.998 237.999c-20 38.667 -52.667 58 -98 58c-48.667 0 -83 -21 -103 -63c-22.667 -48 -34 -123 -34 -225c0 -103.333 13 -181.333 39 -234c19.333 -38.667 51.666 -58 96.999 -58c49.333 0 83.666 21 102.999 63
c22.667 48.667 34 122.334 34 221.001z" />
    <glyph glyph-name="Ocircumflex" unicode="&#xd4;" horiz-adv-x="556" 
d="M412 779c0 -1.33301 -1.33301 -4.33105 -4 -8.99805l-12 -15c-4 -4.66699 -7.33301 -7 -10 -7s-6 1 -10 3l-98 53l-98 -53c-4 -2 -7.33301 -3 -10 -3s-6 2.33301 -10 7l-12 15c-2.66699 3.33301 -4 6.66602 -4 9.99902s2.33301 6.66602 7 9.99902l108 74
c8 5.33301 14.333 8 19 8c4 0 10 -2.66699 18 -8l109 -74c4.66699 -3.33301 7 -7 7 -11zM503 344.002c0 -238.667 -77 -358 -231 -358c-146.667 0 -220 117.667 -220 353c0 240.667 78 361 234 361c144.667 0 217 -118.667 217 -356zM414 337.002
c0 109.333 -12.665 188.666 -37.998 237.999c-20 38.667 -52.667 58 -98 58c-48.667 0 -83 -21 -103 -63c-22.667 -48 -34 -123 -34 -225c0 -103.333 13 -181.333 39 -234c19.333 -38.667 51.666 -58 96.999 -58c49.333 0 83.666 21 102.999 63
c22.667 48.667 34 122.334 34 221.001z" />
    <glyph glyph-name="Otilde" unicode="&#xd5;" horiz-adv-x="556" 
d="M430 843c0 -12 -9.16895 -28.166 -27.502 -48.499s-40.833 -30.5 -67.5 -30.5c-15.333 0 -36 7 -62 21c-23.333 12.667 -41 19 -53 19c-18 0 -32.667 -10 -44 -30c-2.66699 -5.33301 -6 -8 -10 -8c-2 0 -4 0.666992 -6 2l-28 11c-5.33301 2 -8 5 -8 9
c0 10 9.66699 26 29 48c17.333 20 39 30 65 30c18.667 0 47.334 -10.667 86.001 -32c10 -5.33301 19.333 -8 28 -8c20.667 0 36.334 10 47.001 30c2.66699 5.33301 5.66699 8 9 8l7 -1l27 -12c5.33301 -2.66699 8 -5.33398 8 -8.00098zM502.998 344.001
c0 -238.667 -77 -358 -231 -358c-146.667 0 -220 117.667 -220 353c0 240.667 78 361 234 361c144.667 0 217 -118.667 217 -356zM413.998 337.001c0 109.333 -12.665 188.666 -37.998 237.999c-20 38.667 -52.667 58 -98 58c-48.667 0 -83 -21 -103 -63
c-22.667 -48 -34 -123 -34 -225c0 -103.333 13 -181.333 39 -234c19.333 -38.667 51.666 -58 96.999 -58c49.333 0 83.666 21 102.999 63c22.667 48.667 34 122.334 34 221.001z" />
    <glyph glyph-name="Odieresis" unicode="&#xd6;" horiz-adv-x="556" 
d="M434 811c0 -14.667 -5.33398 -27.5 -16.001 -38.5s-23.667 -16.5 -39 -16.5s-28.333 5.33301 -39 16s-16 23.667 -16 39s5.5 28.333 16.5 39s24.167 16 39.5 16c14.667 0 27.334 -5.5 38.001 -16.5s16 -23.833 16 -38.5zM231.999 812c0 -15.333 -5.33301 -28.5 -16 -39.5
s-23.667 -16.5 -39 -16.5s-28.5 5.5 -39.5 16.5s-16.5 24.167 -16.5 39.5s5.5 28.333 16.5 39s24.167 16 39.5 16s28.333 -5.33301 39 -16s16 -23.667 16 -39zM502.999 344c0 -238.667 -77 -358 -231 -358c-146.667 0 -220 117.667 -220 353c0 240.667 78 361 234 361
c144.667 0 217 -118.667 217 -356zM413.999 337c0 109.333 -12.665 188.666 -37.998 237.999c-20 38.667 -52.667 58 -98 58c-48.667 0 -83 -21 -103 -63c-22.667 -48 -34 -123 -34 -225c0 -103.333 13 -181.333 39 -234c19.333 -38.667 51.666 -58 96.999 -58
c49.333 0 83.666 21 102.999 63c22.667 48.667 34 122.334 34 221.001z" />
    <glyph glyph-name="multiply" unicode="&#xd7;" 
d="M434 119c0 -2 -2.00195 -5.00098 -6.00195 -9.00098l-34 -34c-4 -4 -7 -6 -9 -6c-3.33301 0 -6.66602 2 -9.99902 6l-125 126l-125 -126c-3.33301 -4 -6.33301 -6 -9 -6c-3.33301 0 -6.66602 2 -9.99902 6l-34 34c-4 3.33301 -6 6.33301 -6 9s2 6 6 10l126 125l-126 124
c-4 4 -6 7.66699 -6 11c0 2 2 5 6 9l34 34c4 4 7.33301 6 10 6c2 0 5 -2 9 -6l125 -126l125 126c4 4 7 6 9 6c2.66699 0 6 -2 10 -6l34 -34c4 -4 6 -7.33301 6 -10c0 -1.33301 -2 -4.66602 -6 -9.99902l-126 -124l126 -125c4 -4 6 -7.33301 6 -10z" />
    <glyph glyph-name="Oslash" unicode="&#xd8;" horiz-adv-x="556" 
d="M503 344c0 -238.667 -76.668 -357.999 -230.001 -357.999c-51.333 0 -94.666 15.333 -129.999 46l-33 -64c-3.33301 -6 -6.33301 -9 -9 -9s-5.66699 1 -9 3l-29 14c-6.66699 3.33301 -10 6.33301 -10 9c0 1.33301 1.33301 4.66602 4 9.99902l46 89
c-34 63.333 -51 148.666 -51 255.999c0 240 76.667 360 230 360c44 0 83.667 -12.333 119 -37l34 66c3.33301 6 6.33301 9 9 9c2 0 5 -1 9 -3l30 -15c6 -3.33301 9 -6 9 -8c0 -4.66699 -1 -8 -3 -10l-45 -87c39.333 -61.333 59 -151.666 59 -270.999zM363.999 600.001
c-21.333 22 -49.333 32.999 -84 32.999c-51.333 0 -88.333 -22.833 -111 -68.5s-34 -120.5 -34 -224.5c0 -57.333 4.33301 -115.666 13 -174.999zM419.999 344c0 82.667 -6 148 -18 196l-219 -442c21.333 -30 52 -45 92 -45c51.333 0 88.333 22.5 111 67.5
s34 119.5 34 223.5z" />
    <glyph glyph-name="Ugrave" unicode="&#xd9;" horiz-adv-x="611" 
d="M354 781c0 -1.33301 -1.33203 -4.33398 -3.99902 -9.00098l-11 -19c-2 -3.33301 -4.66699 -5 -8 -5c-1.33301 0 -4.66602 1 -9.99902 3l-174 69c-6.66699 2.66699 -10 6 -10 10c0 2.66699 1 5.66699 3 9l26 45c3.33301 5.33301 6.66602 8 9.99902 8
s6.66602 -1.33301 9.99902 -4l159 -97c6 -3.33301 9 -6.66602 9 -9.99902zM594.001 632.999c0 -8 -4 -12 -12 -12h-64v-437c0 -61.333 -16.667 -108.333 -50 -141c-39.333 -38 -95.333 -57 -168 -57c-137.333 0 -206 66 -206 198v437h-63c-8 0 -12 4 -12 12v41
c0 8 4 12 12 12h209c8 0 12 -4 12 -12v-41c0 -8 -4 -12 -12 -12h-64v-434c0 -48.667 9.83301 -83.167 29.5 -103.5s52.5 -30.5 98.5 -30.5c90 0 135 44.667 135 134v434h-63c-8 0 -12 4 -12 12v41c0 8 4 12 12 12h206c8 0 12 -4 12 -12v-41z" />
    <glyph glyph-name="Uacute" unicode="&#xda;" horiz-adv-x="611" 
d="M475 829c0 -3.33301 -3.33203 -6.33301 -9.99902 -9l-176 -70c-3.33301 -1.33301 -6.33301 -2 -9 -2c-3.33301 0 -6.33301 2.66699 -9 8l-9 16c-2.66699 3.33301 -4 6.66602 -4 9.99902c0 2.66699 3 5.66699 9 9l159 97c3.33301 2.66699 6.33301 4 9 4
c3.33301 0 6.66602 -2.66699 9.99902 -8l26 -45c2.66699 -3.33301 4 -6.66602 4 -9.99902zM594.001 633c0 -8 -4 -12 -12 -12h-64v-437c0 -61.333 -16.667 -108.333 -50 -141c-39.333 -38 -95.333 -57 -168 -57c-137.333 0 -206 66 -206 198v437h-63c-8 0 -12 4 -12 12v41
c0 8 4 12 12 12h209c8 0 12 -4 12 -12v-41c0 -8 -4 -12 -12 -12h-64v-434c0 -48.667 9.83301 -83.167 29.5 -103.5s52.5 -30.5 98.5 -30.5c90 0 135 44.667 135 134v434h-63c-8 0 -12 4 -12 12v41c0 8 4 12 12 12h206c8 0 12 -4 12 -12v-41z" />
    <glyph glyph-name="Ucircumflex" unicode="&#xdb;" horiz-adv-x="611" 
d="M440 779c0 -1.33301 -1.33301 -4.33105 -4 -8.99805l-12 -15c-4 -4.66699 -7.33301 -7 -10 -7s-6 1 -10 3l-98 53l-98 -53c-4 -2 -7.33301 -3 -10 -3s-6 2.33301 -10 7l-12 15c-2.66699 3.33301 -4 6.66602 -4 9.99902s2.33301 6.66602 7 9.99902l108 74
c8 5.33301 14.333 8 19 8c4 0 10 -2.66699 18 -8l109 -74c4.66699 -3.33301 7 -7 7 -11zM594 633.002c0 -8 -4 -12 -12 -12h-64v-437c0 -61.333 -16.667 -108.333 -50 -141c-39.333 -38 -95.333 -57 -168 -57c-137.333 0 -206 66 -206 198v437h-63c-8 0 -12 4 -12 12v41
c0 8 4 12 12 12h209c8 0 12 -4 12 -12v-41c0 -8 -4 -12 -12 -12h-64v-434c0 -48.667 9.83301 -83.167 29.5 -103.5s52.5 -30.5 98.5 -30.5c90 0 135 44.667 135 134v434h-63c-8 0 -12 4 -12 12v41c0 8 4 12 12 12h206c8 0 12 -4 12 -12v-41z" />
    <glyph glyph-name="Udieresis" unicode="&#xdc;" horiz-adv-x="611" 
d="M468 811c0 -14.667 -5.33398 -27.5 -16.001 -38.5s-23.667 -16.5 -39 -16.5s-28.333 5.33301 -39 16s-16 23.667 -16 39s5.5 28.333 16.5 39s24.167 16 39.5 16c14.667 0 27.334 -5.5 38.001 -16.5s16 -23.833 16 -38.5zM265.999 812c0 -15.333 -5.33301 -28.5 -16 -39.5
s-23.667 -16.5 -39 -16.5s-28.5 5.5 -39.5 16.5s-16.5 24.167 -16.5 39.5s5.5 28.333 16.5 39s24.167 16 39.5 16s28.333 -5.33301 39 -16s16 -23.667 16 -39zM593.999 633c0 -8 -4 -12 -12 -12h-64v-437c0 -61.333 -16.667 -108.333 -50 -141
c-39.333 -38 -95.333 -57 -168 -57c-137.333 0 -206 66 -206 198v437h-63c-8 0 -12 4 -12 12v41c0 8 4 12 12 12h209c8 0 12 -4 12 -12v-41c0 -8 -4 -12 -12 -12h-64v-434c0 -48.667 9.83301 -83.167 29.5 -103.5s52.5 -30.5 98.5 -30.5c90 0 135 44.667 135 134v434h-63
c-8 0 -12 4 -12 12v41c0 8 4 12 12 12h206c8 0 12 -4 12 -12v-41z" />
    <glyph glyph-name="Yacute" unicode="&#xdd;" horiz-adv-x="481" 
d="M438 829c0 -3.33301 -3.33203 -6.33301 -9.99902 -9l-176 -70c-3.33301 -1.33301 -6.33301 -2 -9 -2c-3.33301 0 -6.33301 2.66699 -9 8l-9 16c-2.66699 3.33301 -4 6.66602 -4 9.99902c0 2.66699 3 5.66699 9 9l159 97c3.33301 2.66699 6.33301 4 9 4
c3.33301 0 6.66602 -2.66699 9.99902 -8l26 -45c2.66699 -3.33301 4 -6.66602 4 -9.99902zM509.001 633c0 -8 -4 -11.999 -12 -11.999h-42l-170 -330v-226h70c8 0 12 -4 12 -12v-41c0 -8 -4 -12 -12 -12h-223c-8 0 -12 4 -12 12v41c0 8 4 12 12 12h71v224l-176 332h-38
c-8 0 -12 4 -12 12v41c0 8 4 12 12 12h192c8 0 12 -4 12 -12v-41c0 -8 -4 -12 -12 -12h-58l96 -197c10 -20.667 19 -41.334 27 -62.001c6.66699 18 15.667 39 27 63l92 196h-60c-8 0 -12 4 -12 12v41c0 8 4 12 12 12h192c8 0 12 -4 12 -12v-41z" />
    <glyph glyph-name="Thorn" unicode="&#xde;" 
d="M486 387c0 -89.333 -33.667 -151 -101 -185c-29.333 -14.667 -68 -22 -116 -22h-73v-115h75c8 0 12 -4 12 -12v-41c0 -8 -4 -12 -12 -12h-220c-8 0 -12 4 -12 12v41c0 8 4 12 12 12h63v556h-63c-8 0 -12 4 -12 12v41c0 8 4 12 12 12h209c8 0 12 -4 12 -12v-39
c0 -8 -4 -12 -12 -12h-64v-54h87c60 0 102.667 -7.66699 128 -23c50 -30.667 75 -83.667 75 -159zM402 385c0 55.333 -18.999 90.999 -56.999 106.999c-12.667 5.33301 -36.334 8 -71.001 8h-78v-248h66c44 0 76 7.66699 96 23c29.333 22.667 44 59.334 44 110.001z" />
    <glyph glyph-name="germandbls" unicode="&#xdf;" horiz-adv-x="611" 
d="M548 150c0 -53.333 -15.6689 -94.667 -47.002 -124c-26 -24.667 -64.333 -37 -115 -37c-28 0 -54.667 3.5 -80 10.5s-38 14.167 -38 21.5c0 2.66699 0.333008 5 1 7l12 42c1.33301 4.66699 3.66602 7 6.99902 7c2 0 5 -0.666992 9 -2
c30.667 -14.667 62.334 -22 95.001 -22c55.333 0 83 28 83 84c0 24 -6 43.333 -18 58s-43 39.667 -93 75c-32.667 23.333 -53.667 40 -63 50c-18 19.333 -27 43.333 -27 72c0 38 18 72.333 54 103s54 60.334 54 89.001c0 24.667 -8.5 44.167 -25.5 58.5
s-39.833 21.5 -68.5 21.5c-33.333 0 -59.833 -8.5 -79.5 -25.5s-29.5 -49.5 -29.5 -97.5v-529c0 -8 -3.66699 -12 -11 -12h-121c-8 0 -12 4 -12 12v38c0 8 4 12 12 12h57v480c0 58.667 13.667 102.667 41 132c31.333 34 81.333 51 150 51
c50.667 0 90.834 -11.5 120.501 -34.5s44.5 -54.167 44.5 -93.5c0 -32 -8.66699 -60.333 -26 -85c-4.66699 -6.66699 -21.667 -24 -51 -52c-22.667 -21.333 -34 -40 -34 -56c0 -13.333 4.33301 -24.333 13 -33s39.334 -32.334 92.001 -71.001
c62.667 -46.667 94 -96.667 94 -150z" />
    <glyph glyph-name="agrave" unicode="&#xe0;" horiz-adv-x="463" 
d="M280 580c0 -1.33301 -1.66797 -4.33203 -5.00098 -8.99902l-12 -17c-1.33301 -3.33301 -3.66602 -5 -6.99902 -5c-2.66699 0 -6 1 -10 3l-163 85c-6 3.33301 -9 6.66602 -9 9.99902c0 2 1.33301 5 4 9l29 42c4 5.33301 7.33301 8 10 8c2 0 5.33301 -1.66699 10 -5
l145 -111c5.33301 -4 8 -7.33301 8 -10zM448.999 12.001c0 -8 -4 -12 -12 -12h-85c-15.333 0 -28 17.667 -38 53c-42.667 -42 -90.667 -63 -144 -63c-40 0 -71.667 12.333 -95 37s-35 58 -35 100c0 113.333 87.667 171.333 263 174v33c0 32 -6.83301 54.833 -20.5 68.5
s-36.834 20.5 -69.501 20.5c-34 0 -72.333 -9.66699 -115 -29c-4 -1.33301 -6.33301 -2 -7 -2c-3.33301 0 -5.66602 1.66699 -6.99902 5l-15 40l-1 8c0 9.33301 18 19.333 54 30s70.333 16 103 16c102 0 153 -46.667 153 -140v-189c0 -42.667 4 -76 12 -100h47
c8 0 12 -4 12 -12v-38zM302.999 110.001v129c-124 -0.666992 -186 -36 -186 -106c0 -23.333 6.66699 -42.5 20 -57.5s30.333 -22.5 51 -22.5c32.667 0 71 19 115 57z" />
    <glyph glyph-name="aacute" unicode="&#xe1;" horiz-adv-x="463" 
d="M376 645c0 -2 -3.00098 -4.66699 -9.00098 -8l-164 -85c-5.33301 -2.66699 -8.66602 -4 -9.99902 -4c-2.66699 0 -5.66699 2.66699 -9 8l-10 15c-2.66699 4 -4 7.33301 -4 10c0 2 2.66699 5 8 9l145 111c4.66699 3.33301 8 5 10 5c2.66699 0 6 -2.66699 10 -8l29 -42
c2.66699 -4 4 -7.66699 4 -11zM448.999 12c0 -8 -4 -12 -12 -12h-85c-15.333 0 -28 17.667 -38 53c-42.667 -42 -90.667 -63 -144 -63c-40 0 -71.667 12.333 -95 37s-35 58 -35 100c0 113.333 87.667 171.333 263 174v33c0 32 -6.83301 54.833 -20.5 68.5
s-36.834 20.5 -69.501 20.5c-34 0 -72.333 -9.66699 -115 -29c-4 -1.33301 -6.33301 -2 -7 -2c-3.33301 0 -5.66602 1.66699 -6.99902 5l-15 40l-1 8c0 9.33301 18 19.333 54 30s70.333 16 103 16c102 0 153 -46.667 153 -140v-189c0 -42.667 4 -76 12 -100h47
c8 0 12 -4 12 -12v-38zM302.999 110v129c-124 -0.666992 -186 -36 -186 -106c0 -23.333 6.66699 -42.5 20 -57.5s30.333 -22.5 51 -22.5c32.667 0 71 19 115 57z" />
    <glyph glyph-name="acircumflex" unicode="&#xe2;" horiz-adv-x="463" 
d="M348 595c0 -2 -1.66602 -5.33203 -4.99902 -9.99902l-13 -18c-2.66699 -3.33301 -5.33398 -5 -8.00098 -5c-2 0 -5 1.33301 -9 4l-92 59l-92 -59c-4 -2.66699 -7 -4 -9 -4s-5.33301 2.33301 -10 7l-11 16c-3.33301 4.66699 -5 8 -5 10
c0 3.33301 2.33301 6.66602 7 9.99902l111 87c3.33301 3.33301 6.33301 5 9 5s5.66699 -1.66699 9 -5l111 -87c4.66699 -4.66699 7 -8 7 -10zM449.001 12.001c0 -8 -4 -12 -12 -12h-85c-15.333 0 -28 17.667 -38 53c-42.667 -42 -90.667 -63 -144 -63
c-40 0 -71.667 12.333 -95 37s-35 58 -35 100c0 113.333 87.667 171.333 263 174v33c0 32 -6.83301 54.833 -20.5 68.5s-36.834 20.5 -69.501 20.5c-34 0 -72.333 -9.66699 -115 -29c-4 -1.33301 -6.33301 -2 -7 -2c-3.33301 0 -5.66602 1.66699 -6.99902 5l-15 40l-1 8
c0 9.33301 18 19.333 54 30s70.333 16 103 16c102 0 153 -46.667 153 -140v-189c0 -42.667 4 -76 12 -100h47c8 0 12 -4 12 -12v-38zM303.001 110.001v129c-124 -0.666992 -186 -36 -186 -106c0 -23.333 6.66699 -42.5 20 -57.5s30.333 -22.5 51 -22.5
c32.667 0 71 19 115 57z" />
    <glyph glyph-name="atilde" unicode="&#xe3;" horiz-adv-x="463" 
d="M370 658c0 -9.33301 -8.50195 -24.833 -25.502 -46.5s-39.5 -32.5 -67.5 -32.5c-15.333 0 -35.333 7 -60 21c-22 12.667 -39 19 -51 19c-17.333 0 -31.666 -10 -42.999 -30c-2.66699 -5.33301 -5.66699 -8 -9 -8l-6 1l-27 12c-5.33301 2.66699 -8 5.66699 -8 9
c0 9.33301 9.33301 25.333 28 48c16.667 20 37.667 30 63 30c16.667 0 36.834 -6.66699 60.501 -20s40.5 -20 50.5 -20c20.667 0 35.667 10 45 30c2.66699 5.33301 5.66699 8 9 8l7 -1l27 -12c4.66699 -2 7 -4.66699 7 -8zM448.998 12c0 -8 -4 -12 -12 -12h-85
c-15.333 0 -28 17.667 -38 53c-42.667 -42 -90.667 -63 -144 -63c-40 0 -71.667 12.333 -95 37s-35 58 -35 100c0 113.333 87.667 171.333 263 174v33c0 32 -6.83301 54.833 -20.5 68.5s-36.834 20.5 -69.501 20.5c-34 0 -72.333 -9.66699 -115 -29
c-4 -1.33301 -6.33301 -2 -7 -2c-3.33301 0 -5.66602 1.66699 -6.99902 5l-15 40l-1 8c0 9.33301 18 19.333 54 30s70.333 16 103 16c102 0 153 -46.667 153 -140v-189c0 -42.667 4 -76 12 -100h47c8 0 12 -4 12 -12v-38zM302.998 110v129
c-124 -0.666992 -186 -36 -186 -106c0 -23.333 6.66699 -42.5 20 -57.5s30.333 -22.5 51 -22.5c32.667 0 71 19 115 57z" />
    <glyph glyph-name="adieresis" unicode="&#xe4;" horiz-adv-x="463" 
d="M369 630c0 -14.667 -5.33301 -27.167 -16 -37.5s-23.334 -15.5 -38.001 -15.5s-27.167 5.33301 -37.5 16s-15.5 23.334 -15.5 38.001s5.33301 27.167 16 37.5s23.334 15.5 38.001 15.5s27.167 -5.33301 37.5 -16s15.5 -23.334 15.5 -38.001zM172 630
c0 -14.667 -5.16699 -27.167 -15.5 -37.5s-22.833 -15.5 -37.5 -15.5s-27.334 5.33301 -38.001 16s-16 23.334 -16 38.001s5.33301 27.167 16 37.5s23.334 15.5 38.001 15.5s27.167 -5.33301 37.5 -16s15.5 -23.334 15.5 -38.001zM449 12c0 -8 -4 -12 -12 -12h-85
c-15.333 0 -28 17.667 -38 53c-42.667 -42 -90.667 -63 -144 -63c-40 0 -71.667 12.333 -95 37s-35 58 -35 100c0 113.333 87.667 171.333 263 174v33c0 32 -6.83301 54.833 -20.5 68.5s-36.834 20.5 -69.501 20.5c-34 0 -72.333 -9.66699 -115 -29
c-4 -1.33301 -6.33301 -2 -7 -2c-3.33301 0 -5.66602 1.66699 -6.99902 5l-15 40l-1 8c0 9.33301 18 19.333 54 30s70.333 16 103 16c102 0 153 -46.667 153 -140v-189c0 -42.667 4 -76 12 -100h47c8 0 12 -4 12 -12v-38zM303 110v129c-124 -0.666992 -186 -36 -186 -106
c0 -23.333 6.66699 -42.5 20 -57.5s30.333 -22.5 51 -22.5c32.667 0 71 19 115 57z" />
    <glyph glyph-name="aring" unicode="&#xe5;" horiz-adv-x="463" 
d="M314 626c0 -24.667 -8.66602 -45.668 -25.999 -63.001s-38.333 -26 -63 -26s-45.667 8.83301 -63 26.5s-26 38.834 -26 63.501s8.83301 45.5 26.5 62.5s39.167 25.5 64.5 25.5c23.333 0 43.666 -8.66699 60.999 -26s26 -38.333 26 -63zM449.001 11.999
c0 -8 -4 -12 -12 -12h-85c-15.333 0 -28 17.667 -38 53c-42.667 -42 -90.667 -63 -144 -63c-40 0 -71.667 12.333 -95 37s-35 58 -35 100c0 113.333 87.667 171.333 263 174v33c0 32 -6.83301 54.833 -20.5 68.5s-36.834 20.5 -69.501 20.5c-34 0 -72.333 -9.66699 -115 -29
c-4 -1.33301 -6.33301 -2 -7 -2c-3.33301 0 -5.66602 1.66699 -6.99902 5l-15 40l-1 8c0 9.33301 18 19.333 54 30s70.333 16 103 16c102 0 153 -46.667 153 -140v-189c0 -42.667 4 -76 12 -100h47c8 0 12 -4 12 -12v-38zM266.001 625.999
c0 12 -4.16797 22.167 -12.501 30.5s-18.166 12.5 -29.499 12.5c-10.667 0 -20 -4.33301 -28 -13s-12 -18.667 -12 -30c0 -12 4 -22.167 12 -30.5s17.667 -12.5 29 -12.5s21 4.16699 29 12.5s12 18.5 12 30.5zM303 109.999v129c-124 -0.666992 -186 -36 -186 -106
c0 -23.333 6.66699 -42.5 20 -57.5s30.333 -22.5 51 -22.5c32.667 0 71 19 115 57z" />
    <glyph glyph-name="ae" unicode="&#xe6;" horiz-adv-x="704" 
d="M671 248c0 -12 -4.33398 -18.002 -13.001 -18.002h-286c0.666992 -55.333 12.834 -98.833 36.501 -130.5s55.167 -47.5 94.5 -47.5c35.333 0 73.666 12.333 114.999 37c4.66699 2.66699 8.33398 4 11.001 4c4 0 6.66699 -1.66699 8 -5l18 -39c1.33301 -4 2 -6.66699 2 -8
c0 -6 -12.333 -15 -37 -27c-38.667 -18.667 -79.334 -28 -122.001 -28c-62.667 0 -114.667 26.333 -156 79c-54.667 -50 -112.667 -75 -174 -75c-42 0 -75 12.167 -99 36.5s-36 57.833 -36 100.5c0 108.667 89.667 164.334 269 167.001v40c0 31.333 -7.33301 54 -22 68
s-38.667 21 -72 21c-28.667 0 -67.334 -9.66699 -116.001 -29c-3.33301 -1.33301 -6 -2 -8 -2c-3.33301 0 -5.66602 1.66699 -6.99902 5l-14 39c-1.33301 4 -2 7 -2 9c0 9.33301 18 19.333 54 30s69.667 16 101 16c58 0 103 -20.667 135 -62
c36.667 43.333 83.334 65 140.001 65c58 0 102.5 -21.167 133.5 -63.5s46.5 -103.166 46.5 -182.499zM588.999 291.998c-8.66699 94 -44 141.001 -106 141.001c-38.667 0 -67.667 -16.333 -87 -49c-10.667 -18.667 -18 -49.334 -22 -92.001h215zM301.999 109.999
l-0.00195312 122c-69.333 -2 -118.666 -10.667 -147.999 -26s-44 -40 -44 -74c0 -23.333 6.83301 -42.333 20.5 -57s31.834 -22 54.501 -22c39.333 0 78.333 19 117 57z" />
    <glyph glyph-name="ccedilla" unicode="&#xe7;" horiz-adv-x="426" 
d="M396 38c0 -6 -13.502 -14.499 -40.502 -25.499s-53.167 -18.833 -78.5 -23.5l-4 -43c28 -3.33301 47.833 -9.83301 59.5 -19.5s17.5 -24.834 17.5 -45.501c0 -23.333 -9.5 -42.333 -28.5 -57s-43.833 -22 -74.5 -22c-40 0 -60 6.33301 -60 19
c0 0.666992 0.333008 2.33398 1 5.00098v2l4 31c0 3.33301 2 5 6 5c4.66699 0 12.834 -1.33301 24.501 -4s20.834 -4 27.501 -4c26.667 0 40 7.66699 40 23s-17 23 -51 23c-18.667 0 -27.667 5 -27 15c0 4.66699 0.333008 8 1 10l6 60c-112.667 15.333 -169 96.333 -169 243
c0 81.333 18.167 145.666 54.5 192.999s85.833 71 148.5 71c46.667 0 89.667 -12.667 129 -38c7.33301 -4.66699 11 -11 11 -19v-86c0 -8 -4 -12 -12 -12h-42c-8 0 -12 4 -12 12v57c-28.667 13.333 -53 20 -73 20c-36.667 0 -65 -13 -85 -39
c-23.333 -30 -35 -79.333 -35 -148c0 -124.667 38 -187 114 -187c33.333 0 72 12.667 116 38c4 1.33301 6.33301 2 7 2c3.33301 0 5.33301 -2 6 -6l17 -42c1.33301 -3.33301 2 -6 2 -8z" />
    <glyph glyph-name="egrave" unicode="&#xe8;" horiz-adv-x="463" 
d="M314 580c0 -1.33301 -1.66797 -4.33203 -5.00098 -8.99902l-12 -17c-1.33301 -3.33301 -3.66602 -5 -6.99902 -5c-2.66699 0 -6 1 -10 3l-163 85c-6 3.33301 -9 6.66602 -9 9.99902c0 2 1.33301 5 4 9l29 42c4 5.33301 7.33301 8 10 8c2 0 5.33301 -1.66699 10 -5
l145 -111c5.33301 -4 8 -7.33301 8 -10zM430.999 241.001c0 -12 -3.66602 -18.001 -10.999 -18.001h-287c5.33301 -112.667 49.333 -169 132 -169c35.333 0 74 12 116 36c3.33301 2 6.66602 3 9.99902 3c2.66699 0 5 -1.66699 7 -5l18 -39c1.33301 -2.66699 2 -5 2 -7
c0 -7.33301 -12 -16.666 -36 -27.999c-40 -18.667 -81 -28 -123 -28c-63.333 0 -113.833 22.833 -151.5 68.5s-56.5 107.167 -56.5 184.5s18 139.166 54 185.499s84 69.5 144 69.5c84 0 139.667 -40 167 -120c10 -29.333 15 -73.666 15 -132.999zM350 285
c-2 98.667 -37.333 148 -106 148c-68 0 -105 -49.333 -111 -148h217z" />
    <glyph glyph-name="eacute" unicode="&#xe9;" horiz-adv-x="463" 
d="M396 645c0 -2 -3.00098 -4.66699 -9.00098 -8l-164 -85c-5.33301 -2.66699 -8.66602 -4 -9.99902 -4c-2.66699 0 -5.66699 2.66699 -9 8l-10 15c-2.66699 4 -4 7.33301 -4 10c0 2 2.66699 5 8 9l145 111c4.66699 3.33301 8 5 10 5c2.66699 0 6 -2.66699 10 -8l29 -42
c2.66699 -4 4 -7.66699 4 -11zM430.999 241c0 -12 -3.66602 -18.001 -10.999 -18.001h-287c5.33301 -112.667 49.333 -169 132 -169c35.333 0 74 12 116 36c3.33301 2 6.66602 3 9.99902 3c2.66699 0 5 -1.66699 7 -5l18 -39c1.33301 -2.66699 2 -5 2 -7
c0 -7.33301 -12 -16.666 -36 -27.999c-40 -18.667 -81 -28 -123 -28c-63.333 0 -113.833 22.833 -151.5 68.5s-56.5 107.167 -56.5 184.5s18 139.166 54 185.499s84 69.5 144 69.5c84 0 139.667 -40 167 -120c10 -29.333 15 -73.666 15 -132.999zM350 284.999
c-2 98.667 -37.333 148 -106 148c-68 0 -105 -49.333 -111 -148h217z" />
    <glyph glyph-name="ecircumflex" unicode="&#xea;" horiz-adv-x="463" 
d="M372 595c0 -2 -1.66602 -5.33203 -4.99902 -9.99902l-13 -18c-2.66699 -3.33301 -5.33398 -5 -8.00098 -5c-2 0 -5 1.33301 -9 4l-92 59l-92 -59c-4 -2.66699 -7 -4 -9 -4s-5.33301 2.33301 -10 7l-11 16c-3.33301 4.66699 -5 8 -5 10
c0 3.33301 2.33301 6.66602 7 9.99902l111 87c3.33301 3.33301 6.33301 5 9 5s5.66699 -1.66699 9 -5l111 -87c4.66699 -4.66699 7 -8 7 -10zM431.001 241.001c0 -12 -3.66602 -18.001 -10.999 -18.001h-287c5.33301 -112.667 49.333 -169 132 -169c35.333 0 74 12 116 36
c3.33301 2 6.66602 3 9.99902 3c2.66699 0 5 -1.66699 7 -5l18 -39c1.33301 -2.66699 2 -5 2 -7c0 -7.33301 -12 -16.666 -36 -27.999c-40 -18.667 -81 -28 -123 -28c-63.333 0 -113.833 22.833 -151.5 68.5s-56.5 107.167 -56.5 184.5s18 139.166 54 185.499
s84 69.5 144 69.5c84 0 139.667 -40 167 -120c10 -29.333 15 -73.666 15 -132.999zM350.002 285c-2 98.667 -37.333 148 -106 148c-68 0 -105 -49.333 -111 -148h217z" />
    <glyph glyph-name="edieresis" unicode="&#xeb;" horiz-adv-x="463" 
d="M397 630c0 -14.667 -5.33301 -27.167 -16 -37.5s-23.334 -15.5 -38.001 -15.5s-27.167 5.33301 -37.5 16s-15.5 23.334 -15.5 38.001s5.33301 27.167 16 37.5s23.334 15.5 38.001 15.5s27.167 -5.33301 37.5 -16s15.5 -23.334 15.5 -38.001zM200 630
c0 -14.667 -5.16699 -27.167 -15.5 -37.5s-22.833 -15.5 -37.5 -15.5s-27.334 5.33301 -38.001 16s-16 23.334 -16 38.001s5.33301 27.167 16 37.5s23.334 15.5 38.001 15.5s27.167 -5.33301 37.5 -16s15.5 -23.334 15.5 -38.001zM431 241
c0 -12 -3.66602 -18.001 -10.999 -18.001h-287c5.33301 -112.667 49.333 -169 132 -169c35.333 0 74 12 116 36c3.33301 2 6.66602 3 9.99902 3c2.66699 0 5 -1.66699 7 -5l18 -39c1.33301 -2.66699 2 -5 2 -7c0 -7.33301 -12 -16.666 -36 -27.999
c-40 -18.667 -81 -28 -123 -28c-63.333 0 -113.833 22.833 -151.5 68.5s-56.5 107.167 -56.5 184.5s18 139.166 54 185.499s84 69.5 144 69.5c84 0 139.667 -40 167 -120c10 -29.333 15 -73.666 15 -132.999zM350.001 284.999c-2 98.667 -37.333 148 -106 148
c-68 0 -105 -49.333 -111 -148h217z" />
    <glyph glyph-name="igrave" unicode="&#xec;" horiz-adv-x="278" 
d="M194 580c0 -1.33301 -1.66797 -4.33203 -5.00098 -8.99902l-12 -17c-1.33301 -3.33301 -3.66602 -5 -6.99902 -5c-2.66699 0 -6 1 -10 3l-163 85c-6 3.33301 -9 6.66602 -9 9.99902c0 2 1.33301 5 4 9l29 42c4 5.33301 7.33301 8 10 8c2 0 5.33301 -1.66699 10 -5
l145 -111c5.33301 -4 8 -7.33301 8 -10zM271.999 12.001c0 -8 -4 -12 -12 -12h-220c-8 0 -12 4 -12 12v38c0 8 4 12 12 12h72v356h-80c-7.33301 0 -11 3.66699 -11 11v39c0 8 3.66699 12 11 12h144c7.33301 0 11 -4 11 -12v-406h73c8 0 12 -4 12 -12v-38z" />
    <glyph glyph-name="iacute" unicode="&#xed;" horiz-adv-x="278" 
d="M294 645c0 -2 -3.00098 -4.66699 -9.00098 -8l-164 -85c-5.33301 -2.66699 -8.66602 -4 -9.99902 -4c-2.66699 0 -5.66699 2.66699 -9 8l-10 15c-2.66699 4 -4 7.33301 -4 10c0 2 2.66699 5 8 9l145 111c4.66699 3.33301 8 5 10 5c2.66699 0 6 -2.66699 10 -8l29 -42
c2.66699 -4 4 -7.66699 4 -11zM271.999 12c0 -8 -4 -12 -12 -12h-220c-8 0 -12 4 -12 12v38c0 8 4 12 12 12h72v356h-80c-7.33301 0 -11 3.66699 -11 11v39c0 8 3.66699 12 11 12h144c7.33301 0 11 -4 11 -12v-406h73c8 0 12 -4 12 -12v-38z" />
    <glyph glyph-name="icircumflex" unicode="&#xee;" horiz-adv-x="278" 
d="M266 595c0 -2 -1.66602 -5.33203 -4.99902 -9.99902l-13 -18c-2.66699 -3.33301 -5.33398 -5 -8.00098 -5c-2 0 -5 1.33301 -9 4l-92 59l-92 -59c-4 -2.66699 -7 -4 -9 -4s-5.33301 2.33301 -10 7l-11 16c-3.33301 4.66699 -5 8 -5 10
c0 3.33301 2.33301 6.66602 7 9.99902l111 87c3.33301 3.33301 6.33301 5 9 5s5.66699 -1.66699 9 -5l111 -87c4.66699 -4.66699 7 -8 7 -10zM272.001 12.001c0 -8 -4 -12 -12 -12h-220c-8 0 -12 4 -12 12v38c0 8 4 12 12 12h72v356h-80c-7.33301 0 -11 3.66699 -11 11v39
c0 8 3.66699 12 11 12h144c7.33301 0 11 -4 11 -12v-406h73c8 0 12 -4 12 -12v-38z" />
    <glyph glyph-name="idieresis" unicode="&#xef;" horiz-adv-x="278" 
d="M267 630c0 -14.667 -5.33301 -27.167 -16 -37.5s-23.334 -15.5 -38.001 -15.5s-27.167 5.33301 -37.5 16s-15.5 23.334 -15.5 38.001s5.33301 27.167 16 37.5s23.334 15.5 38.001 15.5s27.167 -5.33301 37.5 -16s15.5 -23.334 15.5 -38.001zM125 630
c0 -14.667 -5.16699 -27.167 -15.5 -37.5s-22.833 -15.5 -37.5 -15.5s-27.334 5.33301 -38.001 16s-16 23.334 -16 38.001s5.33301 27.167 16 37.5s23.334 15.5 38.001 15.5s27.167 -5.33301 37.5 -16s15.5 -23.334 15.5 -38.001zM272 12c0 -8 -4 -12 -12 -12h-220
c-8 0 -12 4 -12 12v38c0 8 4 12 12 12h72v356h-80c-7.33301 0 -11 3.66699 -11 11v39c0 8 3.66699 12 11 12h144c7.33301 0 11 -4 11 -12v-406h73c8 0 12 -4 12 -12v-38z" />
    <glyph glyph-name="eth" unicode="&#xf0;" 
d="M449 268c0 -88.667 -18.1631 -157.831 -54.4961 -207.498s-86.833 -74.5 -151.5 -74.5c-60.667 0 -107.834 22.167 -141.501 66.5s-50.5 106.166 -50.5 185.499c0 78 17.667 140.167 53 186.5s82.666 69.5 141.999 69.5c36 0 68.333 -12.333 97 -37
c-22.667 58 -45.334 106 -68.001 144l-85 -43l-8 -2c-2.66699 0 -5.33398 2.33301 -8.00098 7l-11 23c-2 3.33301 -3 6 -3 8c0 2.66699 2.66699 5.33398 8 8.00098l84 41c-7.33301 13.333 -17.333 30.333 -30 51c-6 8 -9 13.333 -9 16c0 3.33301 4 5.66602 12 6.99902l39 7
c1.33301 0.666992 3 1 5 1c8 0 22.333 -16.667 43 -50l79 39c2 1.33301 4.66699 2 8 2c2 0 4.33301 -2.33301 7 -7l11 -22c1.33301 -2.66699 2 -5.33398 2 -8.00098c0 -3.33301 -2.33301 -6 -7 -8l-75 -38c74.667 -124 112 -245.667 112 -365zM368.004 244.003
c0 124.667 -39.665 187.001 -118.998 187.001c-78 0 -117 -61 -117 -183c0 -68.667 10.333 -120.334 31 -155.001c17.333 -29.333 46.666 -44 87.999 -44c39.333 0 67.666 14 84.999 42c21.333 34.667 32 85.667 32 153z" />
    <glyph glyph-name="ntilde" unicode="&#xf1;" horiz-adv-x="537" 
d="M422 658c0 -9.33301 -8.50195 -24.833 -25.502 -46.5s-39.5 -32.5 -67.5 -32.5c-15.333 0 -35.333 7 -60 21c-22 12.667 -39 19 -51 19c-17.333 0 -31.666 -10 -42.999 -30c-2.66699 -5.33301 -5.66699 -8 -9 -8l-6 1l-27 12c-5.33301 2.66699 -8 5.66699 -8 9
c0 9.33301 9.33301 25.333 28 48c16.667 20 37.667 30 63 30c16.667 0 36.834 -6.66699 60.501 -20s40.5 -20 50.5 -20c20.667 0 35.667 10 45 30c2.66699 5.33301 5.66699 8 9 8l7 -1l27 -12c4.66699 -2 7 -4.66699 7 -8zM516.998 12c0 -8 -3.99902 -12 -11.999 -12h-120
c-7.33301 0 -11 4 -11 12v334c0 55.333 -22.333 83 -67 83c-40.667 0 -84.334 -21 -131.001 -63v-304h56c8 0 12 -4 12 -12v-38c0 -8 -4 -12 -12 -12h-188c-8 0 -12 4 -12 12v38c0 8 4 12 12 12h56v293c0 25.333 -2 46.333 -6 63h-57c-8 0 -12 4 -12 12v38c0 8 4 12 12 12
h101c12.667 0 23 -18 31 -54c56 45.333 109.667 68 161 68c50 0 84 -16 102 -48c11.333 -20 17 -53.667 17 -101v-283h56c8 0 12 -4 12 -12v-38z" />
    <glyph glyph-name="ograve" unicode="&#xf2;" 
d="M305 580c0 -1.33301 -1.66797 -4.33203 -5.00098 -8.99902l-12 -17c-1.33301 -3.33301 -3.66602 -5 -6.99902 -5c-2.66699 0 -6 1 -10 3l-163 85c-6 3.33301 -9 6.66602 -9 9.99902c0 2 1.33301 5 4 9l29 42c4 5.33301 7.33301 8 10 8c2 0 5.33301 -1.66699 10 -5
l145 -111c5.33301 -4 8 -7.33301 8 -10zM448.999 243.001c0 -80.667 -18 -143.666 -54 -188.999s-86.333 -68 -151 -68c-60.667 0 -108 22.167 -142 66.5s-51 106.166 -51 185.499c0 80.667 18 143.5 54 188.5s86.333 67.5 151 67.5c60.667 0 108 -22.167 142 -66.5
s51 -105.833 51 -184.5zM367.999 244.002c0 124.667 -39.665 187.001 -118.998 187.001c-78 0 -117 -61 -117 -183c0 -68.667 10.333 -120.334 31 -155.001c17.333 -29.333 46.666 -44 87.999 -44c39.333 0 67.666 14 84.999 42c21.333 34.667 32 85.667 32 153z" />
    <glyph glyph-name="oacute" unicode="&#xf3;" 
d="M401 645c0 -2 -3.00098 -4.66699 -9.00098 -8l-164 -85c-5.33301 -2.66699 -8.66602 -4 -9.99902 -4c-2.66699 0 -5.66699 2.66699 -9 8l-10 15c-2.66699 4 -4 7.33301 -4 10c0 2 2.66699 5 8 9l145 111c4.66699 3.33301 8 5 10 5c2.66699 0 6 -2.66699 10 -8l29 -42
c2.66699 -4 4 -7.66699 4 -11zM448.999 243c0 -80.667 -18 -143.666 -54 -188.999s-86.333 -68 -151 -68c-60.667 0 -108 22.167 -142 66.5s-51 106.166 -51 185.499c0 80.667 18 143.5 54 188.5s86.333 67.5 151 67.5c60.667 0 108 -22.167 142 -66.5
s51 -105.833 51 -184.5zM367.999 244.001c0 124.667 -39.665 187.001 -118.998 187.001c-78 0 -117 -61 -117 -183c0 -68.667 10.333 -120.334 31 -155.001c17.333 -29.333 46.666 -44 87.999 -44c39.333 0 67.666 14 84.999 42c21.333 34.667 32 85.667 32 153z" />
    <glyph glyph-name="ocircumflex" unicode="&#xf4;" 
d="M377 595c0 -2 -1.66602 -5.33203 -4.99902 -9.99902l-13 -18c-2.66699 -3.33301 -5.33398 -5 -8.00098 -5c-2 0 -5 1.33301 -9 4l-92 59l-92 -59c-4 -2.66699 -7 -4 -9 -4s-5.33301 2.33301 -10 7l-11 16c-3.33301 4.66699 -5 8 -5 10
c0 3.33301 2.33301 6.66602 7 9.99902l111 87c3.33301 3.33301 6.33301 5 9 5s5.66699 -1.66699 9 -5l111 -87c4.66699 -4.66699 7 -8 7 -10zM449.001 243.001c0 -80.667 -18 -143.666 -54 -188.999s-86.333 -68 -151 -68c-60.667 0 -108 22.167 -142 66.5
s-51 106.166 -51 185.499c0 80.667 18 143.5 54 188.5s86.333 67.5 151 67.5c60.667 0 108 -22.167 142 -66.5s51 -105.833 51 -184.5zM368.001 244.002c0 124.667 -39.665 187.001 -118.998 187.001c-78 0 -117 -61 -117 -183c0 -68.667 10.333 -120.334 31 -155.001
c17.333 -29.333 46.666 -44 87.999 -44c39.333 0 67.666 14 84.999 42c21.333 34.667 32 85.667 32 153z" />
    <glyph glyph-name="otilde" unicode="&#xf5;" 
d="M399 658c0 -9.33301 -8.50195 -24.833 -25.502 -46.5s-39.5 -32.5 -67.5 -32.5c-15.333 0 -35.333 7 -60 21c-22 12.667 -39 19 -51 19c-17.333 0 -31.666 -10 -42.999 -30c-2.66699 -5.33301 -5.66699 -8 -9 -8l-6 1l-27 12c-5.33301 2.66699 -8 5.66699 -8 9
c0 9.33301 9.33301 25.333 28 48c16.667 20 37.667 30 63 30c16.667 0 36.834 -6.66699 60.501 -20s40.5 -20 50.5 -20c20.667 0 35.667 10 45 30c2.66699 5.33301 5.66699 8 9 8l7 -1l27 -12c4.66699 -2 7 -4.66699 7 -8zM448.998 243c0 -80.667 -18 -143.666 -54 -188.999
s-86.333 -68 -151 -68c-60.667 0 -108 22.167 -142 66.5s-51 106.166 -51 185.499c0 80.667 18 143.5 54 188.5s86.333 67.5 151 67.5c60.667 0 108 -22.167 142 -66.5s51 -105.833 51 -184.5zM367.998 244.001c0 124.667 -39.665 187.001 -118.998 187.001
c-78 0 -117 -61 -117 -183c0 -68.667 10.333 -120.334 31 -155.001c17.333 -29.333 46.666 -44 87.999 -44c39.333 0 67.666 14 84.999 42c21.333 34.667 32 85.667 32 153z" />
    <glyph glyph-name="odieresis" unicode="&#xf6;" 
d="M402 630c0 -14.667 -5.33301 -27.167 -16 -37.5s-23.334 -15.5 -38.001 -15.5s-27.167 5.33301 -37.5 16s-15.5 23.334 -15.5 38.001s5.33301 27.167 16 37.5s23.334 15.5 38.001 15.5s27.167 -5.33301 37.5 -16s15.5 -23.334 15.5 -38.001zM205 630
c0 -14.667 -5.16699 -27.167 -15.5 -37.5s-22.833 -15.5 -37.5 -15.5s-27.334 5.33301 -38.001 16s-16 23.334 -16 38.001s5.33301 27.167 16 37.5s23.334 15.5 38.001 15.5s27.167 -5.33301 37.5 -16s15.5 -23.334 15.5 -38.001zM449 243
c0 -80.667 -18 -143.666 -54 -188.999s-86.333 -68 -151 -68c-60.667 0 -108 22.167 -142 66.5s-51 106.166 -51 185.499c0 80.667 18 143.5 54 188.5s86.333 67.5 151 67.5c60.667 0 108 -22.167 142 -66.5s51 -105.833 51 -184.5zM368 244.001
c0 124.667 -39.665 187.001 -118.998 187.001c-78 0 -117 -61 -117 -183c0 -68.667 10.333 -120.334 31 -155.001c17.333 -29.333 46.666 -44 87.999 -44c39.333 0 67.666 14 84.999 42c21.333 34.667 32 85.667 32 153z" />
    <glyph glyph-name="divide" unicode="&#xf7;" 
d="M306 428c0 -16 -5.5 -29.5 -16.5 -40.5s-24.167 -16.5 -39.5 -16.5c-16 0 -29.5 5.5 -40.5 16.5s-16.5 24.5 -16.5 40.5c0 15.333 5.5 28.5 16.5 39.5s24.5 16.5 40.5 16.5c15.333 0 28.5 -5.5 39.5 -16.5s16.5 -24.167 16.5 -39.5zM478 230
c0 -9.33301 -4.66699 -14 -14 -14h-428c-9.33301 0 -14 4.66699 -14 14v47c0 9.33301 4.66699 14 14 14h428c9.33301 0 14 -4.66699 14 -14v-47zM306 79c0 -15.333 -5.5 -28.5 -16.5 -39.5s-24.167 -16.5 -39.5 -16.5c-16 0 -29.5 5.5 -40.5 16.5s-16.5 24.167 -16.5 39.5
c0 16 5.5 29.5 16.5 40.5s24.5 16.5 40.5 16.5c15.333 0 28.5 -5.5 39.5 -16.5s16.5 -24.5 16.5 -40.5z" />
    <glyph glyph-name="oslash" unicode="&#xf8;" 
d="M449 243c0 -80.667 -18 -143.667 -54 -189s-86.333 -68 -151 -68c-34.667 0 -65.667 7.33301 -93 22l-30 -56c-2 -4.66699 -4.33301 -7 -7 -7c-2 0 -4.66699 1 -8 3l-32 16c-4.66699 3.33301 -7 6 -7 8c0 1.33301 1 4 3 8l36 66c-36.667 45.333 -55 109.333 -55 192
c0 80.667 17.833 143.5 53.5 188.5s85.5 67.5 149.5 67.5c34 0 64.667 -7 92 -21l28 51c2 4.66699 4.33301 7 7 7c1.33301 0 4 -0.666992 8 -2l31 -17c5.33301 -2.66699 8 -5.33398 8 -8.00098c0 -1.33301 -1 -3.66602 -3 -6.99902l-33 -61c38 -44 57 -108.333 57 -193z
M375 250c0 48 -7 91 -21 129l-163 -313c18 -11.333 38.333 -17 61 -17c41.333 0 71.333 14 90 42c22 32.667 33 85.667 33 159zM309 415c-17.333 10.667 -37 16 -59 16c-82.667 0 -124 -62.667 -124 -188c0 -52 6.66699 -99 20 -141z" />
    <glyph glyph-name="ugrave" unicode="&#xf9;" horiz-adv-x="537" 
d="M323 580c0 -1.33301 -1.66797 -4.33203 -5.00098 -8.99902l-12 -17c-1.33301 -3.33301 -3.66602 -5 -6.99902 -5c-2.66699 0 -6 1 -10 3l-163 85c-6 3.33301 -9 6.66602 -9 9.99902c0 2 1.33301 5 4 9l29 42c4 5.33301 7.33301 8 10 8c2 0 5.33301 -1.66699 10 -5
l145 -111c5.33301 -4 8 -7.33301 8 -10zM511.999 12.001c0 -8 -3.99902 -12 -11.999 -12h-87c-14 0 -26 15.667 -36 47c-50 -40.667 -99.333 -61 -148 -61c-92 0 -138 44.667 -138 134v298h-56c-8 0 -12 4 -12 12v38c0 8 4 12 12 12h119c8 0 12 -4 12 -12v-298
c0 -44 5.16699 -74.333 15.5 -91s29.166 -25 56.499 -25c45.333 0 87.333 17.333 126 52v312h-61c-8 0 -12 4 -12 12v38c0 8 4 12 12 12h124c8 0 12 -4 12 -12v-335c0 -27.333 3 -51 9 -71h52c8 0 12 -4 12 -12v-38z" />
    <glyph glyph-name="uacute" unicode="&#xfa;" horiz-adv-x="537" 
d="M412 645c0 -2 -3.00098 -4.66699 -9.00098 -8l-164 -85c-5.33301 -2.66699 -8.66602 -4 -9.99902 -4c-2.66699 0 -5.66699 2.66699 -9 8l-10 15c-2.66699 4 -4 7.33301 -4 10c0 2 2.66699 5 8 9l145 111c4.66699 3.33301 8 5 10 5c2.66699 0 6 -2.66699 10 -8l29 -42
c2.66699 -4 4 -7.66699 4 -11zM511.999 12c0 -8 -3.99902 -12 -11.999 -12h-87c-14 0 -26 15.667 -36 47c-50 -40.667 -99.333 -61 -148 -61c-92 0 -138 44.667 -138 134v298h-56c-8 0 -12 4 -12 12v38c0 8 4 12 12 12h119c8 0 12 -4 12 -12v-298
c0 -44 5.16699 -74.333 15.5 -91s29.166 -25 56.499 -25c45.333 0 87.333 17.333 126 52v312h-61c-8 0 -12 4 -12 12v38c0 8 4 12 12 12h124c8 0 12 -4 12 -12v-335c0 -27.333 3 -51 9 -71h52c8 0 12 -4 12 -12v-38z" />
    <glyph glyph-name="ucircumflex" unicode="&#xfb;" horiz-adv-x="537" 
d="M395 595c0 -2 -1.66602 -5.33203 -4.99902 -9.99902l-13 -18c-2.66699 -3.33301 -5.33398 -5 -8.00098 -5c-2 0 -5 1.33301 -9 4l-92 59l-92 -59c-4 -2.66699 -7 -4 -9 -4s-5.33301 2.33301 -10 7l-11 16c-3.33301 4.66699 -5 8 -5 10
c0 3.33301 2.33301 6.66602 7 9.99902l111 87c3.33301 3.33301 6.33301 5 9 5s5.66699 -1.66699 9 -5l111 -87c4.66699 -4.66699 7 -8 7 -10zM512.001 12.001c0 -8 -3.99902 -12 -11.999 -12h-87c-14 0 -26 15.667 -36 47c-50 -40.667 -99.333 -61 -148 -61
c-92 0 -138 44.667 -138 134v298h-56c-8 0 -12 4 -12 12v38c0 8 4 12 12 12h119c8 0 12 -4 12 -12v-298c0 -44 5.16699 -74.333 15.5 -91s29.166 -25 56.499 -25c45.333 0 87.333 17.333 126 52v312h-61c-8 0 -12 4 -12 12v38c0 8 4 12 12 12h124c8 0 12 -4 12 -12v-335
c0 -27.333 3 -51 9 -71h52c8 0 12 -4 12 -12v-38z" />
    <glyph glyph-name="udieresis" unicode="&#xfc;" horiz-adv-x="537" 
d="M406 630c0 -14.667 -5.33301 -27.167 -16 -37.5s-23.334 -15.5 -38.001 -15.5s-27.167 5.33301 -37.5 16s-15.5 23.334 -15.5 38.001s5.33301 27.167 16 37.5s23.334 15.5 38.001 15.5s27.167 -5.33301 37.5 -16s15.5 -23.334 15.5 -38.001zM209 630
c0 -14.667 -5.16699 -27.167 -15.5 -37.5s-22.833 -15.5 -37.5 -15.5s-27.334 5.33301 -38.001 16s-16 23.334 -16 38.001s5.33301 27.167 16 37.5s23.334 15.5 38.001 15.5s27.167 -5.33301 37.5 -16s15.5 -23.334 15.5 -38.001zM512 12c0 -8 -3.99902 -12 -11.999 -12h-87
c-14 0 -26 15.667 -36 47c-50 -40.667 -99.333 -61 -148 -61c-92 0 -138 44.667 -138 134v298h-56c-8 0 -12 4 -12 12v38c0 8 4 12 12 12h119c8 0 12 -4 12 -12v-298c0 -44 5.16699 -74.333 15.5 -91s29.166 -25 56.499 -25c45.333 0 87.333 17.333 126 52v312h-61
c-8 0 -12 4 -12 12v38c0 8 4 12 12 12h124c8 0 12 -4 12 -12v-335c0 -27.333 3 -51 9 -71h52c8 0 12 -4 12 -12v-38z" />
    <glyph glyph-name="yacute" unicode="&#xfd;" horiz-adv-x="444" 
d="M407 645c0 -2 -3.00098 -4.66699 -9.00098 -8l-164 -85c-5.33301 -2.66699 -8.66602 -4 -9.99902 -4c-2.66699 0 -5.66699 2.66699 -9 8l-10 15c-2.66699 4 -4 7.33301 -4 10c0 2 2.66699 5 8 9l145 111c4.66699 3.33301 8 5 10 5c2.66699 0 6 -2.66699 10 -8l29 -42
c2.66699 -4 4 -7.66699 4 -11zM466.999 430c0 -8 -4 -11.999 -12 -11.999h-37l-102 -356c-24 -83.333 -46.333 -147 -67 -191c-26 -54.667 -66 -82 -120 -82c-24.667 0 -52 6 -82 18s-45 22.667 -45 32c0 2 0.666992 4 2 6l20 40c1.33301 3.33301 3.66602 5 6.99902 5
c2 0 4.33301 -1 7 -3c34.667 -23.333 64.334 -35 89.001 -35c33.333 0 59 28.333 77 85l20 63h-36c-6 0 -10 3 -12 9l-145 409h-40c-8 0 -12 4 -12 12v38c0 8 4 12 12 12h183c8 0 12 -4 12 -12v-34c0 -8 -4 -12 -12 -12h-64l110 -321c5.33301 -16 12 -40 20 -72
c6 27.333 11.333 50.666 16 69.999l84 323h-59c-8 0 -12 4 -12 12v34c0 8 4 12 12 12h174c8 0 12 -4 12 -12v-38z" />
    <glyph glyph-name="thorn" unicode="&#xfe;" 
d="M449 250c0 -82 -14.833 -146.5 -44.5 -193.5s-70.167 -70.5 -121.5 -70.5c-38 0 -77.333 14.667 -118 44v-170h63c8 0 12 -4 12 -12v-38c0 -8 -4 -12 -12 -12h-196c-8 0 -12 4 -12 12v38c0 8 4 12 12 12h58v795h-61c-8 0 -12 4 -12 12v38c0 8 4 12 12 12h126
c6.66699 0 10 -3.66699 10 -11v-260c44 32 87.333 48 130 48c58 0 98.167 -22.667 120.5 -68s33.5 -104 33.5 -176zM368 248c0 58 -5 100.667 -15 128c-12.667 34.667 -36.667 52 -72 52c-30 0 -68.667 -16.667 -116 -50v-282c42 -28 78.333 -42 109 -42
c34 0 58.167 14.833 72.5 44.5s21.5 79.5 21.5 149.5z" />
    <glyph glyph-name="ydieresis" unicode="&#xff;" horiz-adv-x="444" 
d="M381 630c0 -14.667 -5.33301 -27.167 -16 -37.5s-23.334 -15.5 -38.001 -15.5s-27.167 5.33301 -37.5 16s-15.5 23.334 -15.5 38.001s5.33301 27.167 16 37.5s23.334 15.5 38.001 15.5s27.167 -5.33301 37.5 -16s15.5 -23.334 15.5 -38.001zM184 630
c0 -14.667 -5.16699 -27.167 -15.5 -37.5s-22.833 -15.5 -37.5 -15.5s-27.334 5.33301 -38.001 16s-16 23.334 -16 38.001s5.33301 27.167 16 37.5s23.334 15.5 38.001 15.5s27.167 -5.33301 37.5 -16s15.5 -23.334 15.5 -38.001zM467 430c0 -8 -4 -11.999 -12 -11.999h-37
l-102 -356c-24 -83.333 -46.333 -147 -67 -191c-26 -54.667 -66 -82 -120 -82c-24.667 0 -52 6 -82 18s-45 22.667 -45 32c0 2 0.666992 4 2 6l20 40c1.33301 3.33301 3.66602 5 6.99902 5c2 0 4.33301 -1 7 -3c34.667 -23.333 64.334 -35 89.001 -35
c33.333 0 59 28.333 77 85l20 63h-36c-6 0 -10 3 -12 9l-145 409h-40c-8 0 -12 4 -12 12v38c0 8 4 12 12 12h183c8 0 12 -4 12 -12v-34c0 -8 -4 -12 -12 -12h-64l110 -321c5.33301 -16 12 -40 20 -72c6 27.333 11.333 50.666 16 69.999l84 323h-59c-8 0 -12 4 -12 12v34
c0 8 4 12 12 12h174c8 0 12 -4 12 -12v-38z" />
    <glyph glyph-name="dotlessi" unicode="&#x131;" horiz-adv-x="278" 
d="M272 12c0 -8 -4 -12 -12 -12h-220c-8 0 -12 4 -12 12v38c0 8 4 12 12 12h72v356h-80c-7.33301 0 -11 3.66699 -11 11v39c0 8 3.66699 12 11 12h144c7.33301 0 11 -4 11 -12v-406h73c8 0 12 -4 12 -12v-38z" />
    <glyph glyph-name="Lslash" unicode="&#x141;" horiz-adv-x="463" 
d="M482 149c0 -2.66699 -0.333008 -4.66699 -1 -6l-48 -132c-2.66699 -7.33301 -7.66699 -11 -15 -11h-367c-8 0 -12 4 -12 12v41c0 8 4 12 12 12h63v215l-64 -43c-2.66699 -2 -5 -3 -7 -3c-2.66699 0 -4 2.33301 -4 7v48c0 6.66699 3 12 9 16l66 44v272h-63
c-8 0 -12 4 -12 12v41c0 8 4 12 12 12h209c8 0 12 -4 12 -12v-41c0 -8 -4 -12 -12 -12h-64v-231l143 94c3.33301 2 5.33301 3 6 3c2.66699 0 4 -2.66699 4 -8v-47c0 -6.66699 -3 -12 -9 -16l-144 -96v-249h181l35 97c2 5.33301 5 8 9 8c2.66699 0 4.66699 -0.333008 6 -1
l47 -17c5.33301 -2 8 -5 8 -9z" />
    <glyph glyph-name="lslash" unicode="&#x142;" horiz-adv-x="278" 
d="M276 466c0 -6.66699 -3.00098 -12.001 -9.00098 -16.001l-115 -78v-191c0 -51.333 0.666992 -81.666 2 -90.999c3.33301 -25.333 17 -38 41 -38c13.333 0 28.333 4 45 12c4 1.33301 6.33301 2 7 2c4 0 6.33301 -2.33301 7 -7l12 -37
c0.666992 -2 1.33398 -4.33301 2.00098 -7c0 -5.33301 -9.5 -10.833 -28.5 -16.5s-37.5 -8.5 -55.5 -8.5c-58.667 0 -93 23.333 -103 70c-3.33301 15.333 -5 56.333 -5 123v153l-87 -59l-6 -2c-2.66699 0 -4 2 -4 6v42c0 7.33301 3 13 9 17l88 58v257h-61c-8 0 -12 4 -12 12
v38c0 8 4 12 12 12h127c6.66699 0 10 -3.66699 10 -11v-271l114 77l6 2c2.66699 0 4 -2 4 -6v-42z" />
    <glyph glyph-name="OE" unicode="&#x152;" horiz-adv-x="759" 
d="M727 14c0 -9.33301 -4.66602 -14.001 -13.999 -14.001h-306c-9.33301 0 -14 4.66699 -14 14v28c-36.667 -37.333 -79.334 -56 -128.001 -56c-60 0 -108 24.333 -144 73c-46 62.667 -69 156.334 -69 281.001c0 137.333 25 235.333 75 294c37.333 44 86 66 146 66
c48.667 0 88.667 -15.667 120 -47v19c0 9.33301 4.66699 14 14 14h297c10.667 0 16 -4.66699 16 -14v-136c0 -8 -4 -12 -12 -12h-45c-8 0 -12 4 -12 12v79h-176v-225h195c9.33301 0 14 -4.66699 14 -14v-39c0 -9.33301 -4.66699 -14 -14 -14h-195v-252h183v88
c0 8 4 12 12 12h45c8 0 12 -4 12 -12v-145zM393.001 112.999v457c-36 42 -75 63 -117 63c-40 0 -69.667 -16.333 -89 -49c-30.667 -52 -46 -132.333 -46 -241c0 -193.333 43.667 -290 131 -290c42.667 0 83 20 121 60z" />
    <glyph glyph-name="oe" unicode="&#x153;" horiz-adv-x="778" 
d="M746 243c0 -13.333 -3.66895 -19.999 -11.002 -19.999h-289c4.66699 -51.333 14.667 -89 30 -113c25.333 -38.667 59.333 -58 102 -58c30 0 69.667 13 119 39c4 1.33301 6.66699 2 8 2c3.33301 0 6 -1.66699 8 -5l17 -38c2 -3.33301 3 -6.33301 3 -9
c0 -12.667 -24 -25.334 -72 -38.001c-40.667 -11.333 -70.334 -17 -89.001 -17c-78.667 0 -133 30.333 -163 91c-33.333 -60.667 -87.666 -91 -162.999 -91c-62 0 -110 22 -144 66s-51 106 -51 186c0 79.333 18 141.833 54 187.5s85.333 68.5 148 68.5
c64.667 0 117 -29.667 157 -89c38.667 59.333 90.334 89 155.001 89c70.667 0 121.334 -30.333 152.001 -91c19.333 -38 29 -91.333 29 -160zM664.998 285.001c-6.66699 98.667 -42.333 148 -107 148c-67.333 0 -104 -49.333 -110 -148h217zM369.999 243.001
c0 125.333 -40.666 188 -121.999 188c-77.333 0 -116 -61 -116 -183c0 -68.667 10.667 -120.667 32 -156c17.333 -29.333 46.666 -44 87.999 -44c40 0 68.667 14 86 42c21.333 34.667 32 85.667 32 153z" />
    <glyph glyph-name="Scaron" unicode="&#x160;" horiz-adv-x="482" 
d="M396 839c0 -3.33301 -2.33301 -6.66699 -7 -10l-109 -74c-8 -5.33301 -14 -8 -18 -8c-4.66699 0 -11 2.66699 -19 8l-108 74c-4.66699 3.33301 -7 7 -7 11c0 2.66699 1.33301 5.66699 4 9l12 16c4 4 7 6 9 6c4.66699 0 8.33398 -1 11.001 -3l98 -52l98 52
c3.33301 2 6.66602 3 9.99902 3c2.66699 0 6 -2 10 -6l12 -16c2.66699 -4.66699 4 -8 4 -10zM440 180.999c0 -58 -19.501 -105.001 -58.501 -141.001s-90.167 -54 -153.5 -54c-29.333 0 -63.5 5 -102.5 15s-64.5 20.667 -76.5 32c-4.66699 4 -7 10.667 -7 20v116
c0 8 4 12 12 12h45c8 0 12 -4 12 -12v-82c46 -18 86.333 -27 121 -27c36 0 64.833 10.167 86.5 30.5s32.5 47.166 32.5 80.499c0 31.333 -8 56.5 -24 75.5s-49.667 42.833 -101 71.5c-64.667 36 -107 65.667 -127 89c-27.333 31.333 -41 69 -41 113
c0 52.667 18.5 95.834 55.5 129.501s84.833 50.5 143.5 50.5c60.667 0 112.334 -13.667 155.001 -41c6 -4 9 -10.333 9 -19v-115c0 -8 -4 -12 -12 -12h-45c-8 0 -12 4 -12 12v82c-32.667 13.333 -65.334 20 -98.001 20c-72 0 -108 -32.667 -108 -98
c0 -26 6.66699 -47.167 20 -63.5s39 -35.166 77 -56.499c80.667 -45.333 130.334 -78.666 149.001 -99.999c32 -36.667 48 -79.334 48 -128.001z" />
    <glyph glyph-name="scaron" unicode="&#x161;" horiz-adv-x="389" 
d="M339 664c0 -2 -2.33301 -5 -7 -9l-111 -88c-3.33301 -3.33301 -6.33301 -5 -9 -5c-2 0 -5 1.66699 -9 5l-111 88c-4.66699 4 -7 7 -7 9s1.66699 5.33301 5 10l13 18c2.66699 3.33301 5.33398 5 8.00098 5c2 0 5 -1.33301 9 -4l92 -59l92 59c4 2.66699 7 4 9 4
c3.33301 0 6.66602 -2.33301 9.99902 -7l11 -16c3.33301 -4.66699 5 -8 5 -10zM355 129c0 -43.333 -14.501 -78 -43.501 -104s-67.833 -39 -116.5 -39c-31.333 0 -64.666 5.66699 -99.999 17s-53 22.333 -53 33v93c0 8 4 12 12 12h42c8 0 12 -4 12 -12v-58
c34 -13.333 64 -20 90 -20c24 0 43.333 6.66699 58 20s22 31 22 53c0 30 -21.333 54.667 -64 74c-52.667 24 -90 45 -112 63c-30.667 24.667 -46 56 -46 94c0 40.667 14.167 74 42.5 100s64.833 39 109.5 39c40.667 0 80 -9.66699 118 -29c7.33301 -4 11 -9.66699 11 -17
v-87c0 -8 -4 -12 -12 -12h-42c-8 0 -12 4 -12 12v55c-22.667 9.33301 -44 14 -64 14c-50.667 0 -76 -22.333 -76 -67c0 -20 6.66699 -36.333 20 -49c7.33301 -6.66699 15.5 -12.5 24.5 -17.5s35.5 -18.167 79.5 -39.5c37.333 -18 63.333 -36.5 78 -55.5s22 -43.167 22 -72.5
z" />
    <glyph glyph-name="Ydieresis" unicode="&#x178;" horiz-adv-x="481" 
d="M397 811c0 -14.667 -5.33398 -27.5 -16.001 -38.5s-23.667 -16.5 -39 -16.5s-28.333 5.33301 -39 16s-16 23.667 -16 39s5.5 28.333 16.5 39s24.167 16 39.5 16c14.667 0 27.334 -5.5 38.001 -16.5s16 -23.833 16 -38.5zM194.999 812c0 -15.333 -5.33301 -28.5 -16 -39.5
s-23.667 -16.5 -39 -16.5s-28.5 5.5 -39.5 16.5s-16.5 24.167 -16.5 39.5s5.5 28.333 16.5 39s24.167 16 39.5 16s28.333 -5.33301 39 -16s16 -23.667 16 -39zM508.999 633c0 -8 -4 -11.999 -12 -11.999h-42l-170 -330v-226h70c8 0 12 -4 12 -12v-41c0 -8 -4 -12 -12 -12
h-223c-8 0 -12 4 -12 12v41c0 8 4 12 12 12h71v224l-176 332h-38c-8 0 -12 4 -12 12v41c0 8 4 12 12 12h192c8 0 12 -4 12 -12v-41c0 -8 -4 -12 -12 -12h-58l96 -197c10 -20.667 19 -41.334 27 -62.001c6.66699 18 15.667 39 27 63l92 196h-60c-8 0 -12 4 -12 12v41
c0 8 4 12 12 12h192c8 0 12 -4 12 -12v-41z" />
    <glyph glyph-name="Zcaron" unicode="&#x17d;" horiz-adv-x="482" 
d="M389 839c0 -3.33301 -2.33301 -6.66699 -7 -10l-109 -74c-8 -5.33301 -14 -8 -18 -8c-4.66699 0 -11 2.66699 -19 8l-108 74c-4.66699 3.33301 -7 7 -7 11c0 2.66699 1.33301 5.66699 4 9l12 16c4 4 7 6 9 6c4.66699 0 8.33398 -1 11.001 -3l98 -52l98 52
c3.33301 2 6.66602 3 9.99902 3c2.66699 0 6 -2 10 -6l12 -16c2.66699 -4.66699 4 -8 4 -10zM475 131.999c0 -0.666992 -0.332031 -2.33301 -0.999023 -5l-42 -115c-2.66699 -8 -8.33398 -12 -17.001 -12h-359c-9.33301 0 -14 4.66699 -14 14v52l294 550h-200v-75
c0 -8 -4 -12 -12 -12h-45c-8 0 -12 4 -12 12v130c0 10 5 15 15 15h336c9.33301 0 14 -4.66699 14 -14v-48l-295 -553h239l29 81c2 5.33301 5 8 9 8c2.66699 0 4.66699 -0.333008 6 -1l47 -17c5.33301 -2 8 -5.33301 8 -10z" />
    <glyph glyph-name="zcaron" unicode="&#x17e;" horiz-adv-x="426" 
d="M353 664c0 -2 -2.33301 -5 -7 -9l-111 -88c-3.33301 -3.33301 -6.33301 -5 -9 -5c-2 0 -5 1.66699 -9 5l-111 88c-4.66699 4 -7 7 -7 9s1.66699 5.33301 5 10l13 18c2.66699 3.33301 5.33398 5 8.00098 5c2 0 5 -1.33301 9 -4l92 -59l92 59c4 2.66699 7 4 9 4
c3.33301 0 6.66602 -2.33301 9.99902 -7l11 -16c3.33301 -4.66699 5 -8 5 -10zM419 123l-0.999023 -7l-43 -107c-2.66699 -6 -7.33398 -9 -14.001 -9h-312c-8 0 -12 4 -12 12v40l254 366h-167v-71c0 -8 -4 -12 -12 -12h-42c-8 0 -12 4 -12 12v121c0 8 3.66699 12 11 12h304
c7.33301 0 11 -4 11 -12v-41l-249 -362h187l31 77c2 5.33301 5 8 9 8c2 0 4 -0.333008 6 -1l43 -17c5.33301 -2 8 -5 8 -9z" />
    <glyph glyph-name="florin" unicode="&#x192;" 
d="M534 690c0 -0.666992 -0.334961 -1.99805 -1.00195 -3.99805l-1 -3l-18 -43c-1.33301 -3.33301 -3.66602 -5 -6.99902 -5c-0.666992 0 -2.66699 0.666992 -6 2c-31.333 12.667 -59.333 19 -84 19c-24 0 -41.833 -6.33301 -53.5 -19s-21.167 -35.667 -28.5 -69l-18 -84
h131c9.33301 0 14 -2.66699 14 -8l-3 -8l-13 -36c-2.66699 -6.66699 -7.66699 -10 -15 -10h-128l-97 -450c-13.333 -61.333 -35 -106 -65 -134s-71.667 -42 -125 -42c-52 0 -78 6.33301 -78 19c0 1.33301 0.666992 3.33301 2 6l15 48c1.33301 2.66699 3 4 5 4
c2.66699 0 4.66699 -0.333008 6 -1c15.333 -6 34.666 -9 57.999 -9c54.667 0 90.334 37.667 107.001 113l97 446h-65c-8.66699 0 -13 2.66699 -13 8c0 3.33301 0.333008 5.66602 1 6.99902l7 35c1.33301 8 6 12 14 12h72l20 93c10.667 48.667 26.334 83 47.001 103
c28 26.667 66 40 114 40c23.333 0 47.333 -3.33301 72 -10s37 -13.334 37 -20.001z" />
    <glyph glyph-name="circumflex" unicode="&#x2c6;" 
d="M377 595c0 -2 -1.66602 -5.33203 -4.99902 -9.99902l-13 -18c-2.66699 -3.33301 -5.33398 -5 -8.00098 -5c-2 0 -5 1.33301 -9 4l-92 59l-92 -59c-4 -2.66699 -7 -4 -9 -4s-5.33301 2.33301 -10 7l-11 16c-3.33301 4.66699 -5 8 -5 10
c0 3.33301 2.33301 6.66602 7 9.99902l111 87c3.33301 3.33301 6.33301 5 9 5s5.66699 -1.66699 9 -5l111 -87c4.66699 -4.66699 7 -8 7 -10z" />
    <glyph glyph-name="caron" unicode="&#x2c7;" 
d="M377 664c0 -2 -2.33301 -5 -7 -9l-111 -88c-3.33301 -3.33301 -6.33301 -5 -9 -5c-2 0 -5 1.66699 -9 5l-111 88c-4.66699 4 -7 7 -7 9s1.66699 5.33301 5 10l13 18c2.66699 3.33301 5.33398 5 8.00098 5c2 0 5 -1.33301 9 -4l92 -59l92 59c4 2.66699 7 4 9 4
c3.33301 0 6.66602 -2.33301 9.99902 -7l11 -16c3.33301 -4.66699 5 -8 5 -10z" />
    <glyph glyph-name="breve" unicode="&#x2d8;" 
d="M379 665c0 -18.667 -9.66504 -41 -28.998 -67c-22.667 -30.667 -56 -46 -100 -46c-51.333 0 -88.333 19.667 -111 59c-12 20.667 -18 38.667 -18 54c0 6.66699 3.66699 10.667 11 12l39 7h4c5.33301 0 8.66602 -3.33301 9.99902 -10c9.33301 -46 30.666 -69 63.999 -69
s55 23 65 69c1.33301 6.66699 5 10 11 10h4l39 -7c7.33301 -1.33301 11 -5.33301 11 -12z" />
    <glyph glyph-name="dotaccent" unicode="&#x2d9;" 
d="M309 628c0 -16.667 -5.66797 -30.667 -17.001 -42s-25.333 -17 -42 -17s-30.667 5.66699 -42 17s-17 25.333 -17 42s5.83301 30.667 17.5 42s25.834 17 42.501 17c16 0 29.667 -5.83301 41 -17.5s17 -25.5 17 -41.5z" />
    <glyph glyph-name="ring" unicode="&#x2da;" 
d="M339 626c0 -24.667 -8.66602 -45.668 -25.999 -63.001s-38.333 -26 -63 -26s-45.667 8.83301 -63 26.5s-26 38.834 -26 63.501s8.83301 45.5 26.5 62.5s39.167 25.5 64.5 25.5c23.333 0 43.666 -8.66699 60.999 -26s26 -38.333 26 -63zM291.001 625.999
c0 12 -4.16797 22.167 -12.501 30.5s-18.166 12.5 -29.499 12.5c-10.667 0 -20 -4.33301 -28 -13s-12 -18.667 -12 -30c0 -12 4 -22.167 12 -30.5s17.667 -12.5 29 -12.5s21 4.16699 29 12.5s12 18.5 12 30.5z" />
    <glyph glyph-name="ogonek" unicode="&#x2db;" 
d="M456 -147c0 -6.66699 -9.33301 -13.666 -28 -20.999s-36.667 -11 -54 -11c-27.333 0 -49 7.16699 -65 21.5s-24 34.166 -24 59.499c0 27.333 18.667 65 56 113l85 21c-54.667 -62 -82 -105 -82 -129c0 -22.667 11.333 -34 34 -34c16 0 34.667 6.66699 56 20
c2.66699 1.33301 4.66699 2 6 2c2 0 3.33301 -2 4 -6l10 -28c1.33301 -4 2 -6.66699 2 -8z" />
    <glyph glyph-name="tilde" unicode="&#x2dc;" 
d="M398 658c0 -9.33301 -8.50195 -24.833 -25.502 -46.5s-39.5 -32.5 -67.5 -32.5c-15.333 0 -35.333 7 -60 21c-22 12.667 -39 19 -51 19c-17.333 0 -31.666 -10 -42.999 -30c-2.66699 -5.33301 -5.66699 -8 -9 -8l-6 1l-27 12c-5.33301 2.66699 -8 5.66699 -8 9
c0 9.33301 9.33301 25.333 28 48c16.667 20 37.667 30 63 30c16.667 0 36.834 -6.66699 60.501 -20s40.5 -20 50.5 -20c20.667 0 35.667 10 45 30c2.66699 5.33301 5.66699 8 9 8l7 -1l27 -12c4.66699 -2 7 -4.66699 7 -8z" />
    <glyph glyph-name="hungarumlaut" unicode="&#x2dd;" 
d="M403 673c0 -2.66699 -2.33301 -6 -7 -10l-127 -112c-4 -3.33301 -7 -5 -9 -5c-2.66699 0 -6 2 -10 6l-11 9c-4 5.33301 -6 9 -6 11s1.66699 4.66699 5 8l105 132c4 4.66699 7.33301 7 10 7s5.66699 -1.66699 9 -5l34 -31c4.66699 -4 7 -7.33301 7 -10zM267 673
c0 -2.66699 -2.33301 -6 -7 -10l-127 -112c-4 -3.33301 -7 -5 -9 -5s-5.33301 2 -10 6l-10 9c-4.66699 4 -7 7.33301 -7 10s1.66699 5.66699 5 9l105 132c4 4.66699 7.33301 7 10 7s5.66699 -1.66699 9 -5l34 -31c4.66699 -4 7 -7.33301 7 -10z" />
    <glyph glyph-name="Delta" unicode="&#x394;" horiz-adv-x="612" 
d="M595 0h-574l276 672h22zM471 32l-198 491l-201 -491h399z" />
    <glyph glyph-name="Delta" unicode="&#x2206;" horiz-adv-x="612" 
d="M595 0h-574l276 672h22zM471 32l-198 491l-201 -491h399z" />
    <glyph glyph-name="Omega" unicode="&#x3a9;" horiz-adv-x="768" 
d="M718 408c0 -72 -23.999 -131.001 -71.999 -177.001c-43.333 -40.667 -102 -68 -176 -82v-59h123c33.333 0 55.666 5.83301 66.999 17.5s18.333 34.5 21 68.5h23l-10 -176h-252v170c53.333 10.667 94 40 122 88c24 42 36 92 36 150c0 68.667 -18.667 125.334 -56 170.001
c-39.333 47.333 -92.666 71 -159.999 71c-68 0 -121.667 -23.667 -161 -71c-36.667 -44 -55 -100.667 -55 -170c0 -58.667 12 -108.667 36 -150c27.333 -48 68 -77.333 122 -88v-170h-252l-10 176h23c2 -33.333 9 -56 21 -68s34.333 -18 67 -18h123v59
c-74.667 14 -133.334 41.333 -176.001 82c-48 46 -72 105 -72 177c0 87.333 35 155.333 105 204c60.667 42 137 63 229 63s168.333 -21 229 -63c70 -48.667 105 -116.667 105 -204z" />
    <glyph glyph-name="Omega" unicode="&#x2126;" horiz-adv-x="768" 
d="M718 408c0 -72 -23.999 -131.001 -71.999 -177.001c-43.333 -40.667 -102 -68 -176 -82v-59h123c33.333 0 55.666 5.83301 66.999 17.5s18.333 34.5 21 68.5h23l-10 -176h-252v170c53.333 10.667 94 40 122 88c24 42 36 92 36 150c0 68.667 -18.667 125.334 -56 170.001
c-39.333 47.333 -92.666 71 -159.999 71c-68 0 -121.667 -23.667 -161 -71c-36.667 -44 -55 -100.667 -55 -170c0 -58.667 12 -108.667 36 -150c27.333 -48 68 -77.333 122 -88v-170h-252l-10 176h23c2 -33.333 9 -56 21 -68s34.333 -18 67 -18h123v59
c-74.667 14 -133.334 41.333 -176.001 82c-48 46 -72 105 -72 177c0 87.333 35 155.333 105 204c60.667 42 137 63 229 63s168.333 -21 229 -63c70 -48.667 105 -116.667 105 -204z" />
    <glyph glyph-name="pi" unicode="&#x3c0;" horiz-adv-x="549" 
d="M526 469c0 -34 -7.66699 -57.501 -23 -70.501s-40.333 -19.833 -75 -20.5h-24c-2.66699 -88 -4 -153.333 -4 -196v-86c4 -42 17 -63 39 -63c26 0 43 14.333 51 43c4.66699 16 7 41 7 75h25c0 -107.333 -35.333 -161 -106 -161c-44 0 -73 17.667 -87 53
c-10.667 26.667 -16 77 -16 151c0 -4 1.33301 57.333 4 184h-137c0 -151.333 -4.33301 -249.333 -13 -294c-12 -62.667 -38.667 -94 -80 -94c-30.667 0 -51 16 -61 48c-6 18.667 -9 47.334 -9 86.001h24c0.666992 -34.667 13 -52 37 -52c30 0 50.667 25 62 75
c9.33301 41.333 14.666 118.333 15.999 231h-22c-51.333 0 -80.333 -17.333 -87 -52h-23c2.66699 49.333 18 83 46 101c22.667 14.667 60.334 22 113.001 22h254c44 0 66 7.33301 66 22v1h23v-3z" />
    <glyph glyph-name="endash" unicode="&#x2013;" 
d="M462 236c0 -9.33301 -4.66699 -14 -14 -14h-395c-9.33301 0 -14 4.66699 -14 14v39c0 9.33301 4.66699 14 14 14h395c9.33301 0 14 -4.66699 14 -14v-39z" />
    <glyph glyph-name="emdash" unicode="&#x2014;" horiz-adv-x="778" 
d="M741 237c0 -9.33301 -4.66699 -14 -14 -14h-676c-9.33301 0 -14 4.66699 -14 14v37c0 9.33301 4.66699 14 14 14h676c9.33301 0 14 -4.66699 14 -14v-37z" />
    <glyph glyph-name="quoteleft" unicode="&#x2018;" horiz-adv-x="241" 
d="M209 688c0 -0.666992 -0.333008 -2 -1 -4l-1 -4l-59 -200c-2 -7.33301 -7 -11 -15 -11h-80c-9.33301 0 -14 2.33301 -14 7c0 2 1.33301 5.33301 4 10l115 212c3.33301 6 6.33301 9 9 9c2 0 5 -0.666992 9 -2l22 -8c7.33301 -2.66699 11 -5.66699 11 -9z" />
    <glyph glyph-name="quoteright" unicode="&#x2019;" horiz-adv-x="241" 
d="M203 689c0 -1.33301 -1.33398 -4.33301 -4.00098 -9l-115 -212c-3.33301 -6 -6.66602 -9 -9.99902 -9c-2 0 -4.66699 0.666992 -8 2l-22 8c-7.33301 2 -11 5 -11 9c0 1.33301 0.666992 4 2 8l58 200c2 7.33301 7 11 15 11h81c9.33301 0 14 -2.66699 14 -8z" />
    <glyph glyph-name="quotesinglbase" unicode="&#x201a;" horiz-adv-x="222" 
d="M196 107c0 -2 -1.33398 -5.33398 -4.00098 -10.001l-115 -212c-3.33301 -6 -6.66602 -9 -9.99902 -9c-2 0 -4.66699 0.666992 -8 2l-22 8c-7.33301 2.66699 -11 5.66699 -11 9c0 0.666992 0.666992 3.33398 2 8.00098l58 200c2 7.33301 7 11 15 11h81
c9.33301 0 14 -2.33301 14 -7z" />
    <glyph glyph-name="quotedblleft" unicode="&#x201c;" horiz-adv-x="389" 
d="M362 689c0 -0.666992 -0.666992 -3.66699 -2 -9l-58 -200c-2 -7.33301 -7 -11 -15 -11h-81c-8.66699 0 -13 2.66699 -13 8c0 1.33301 1 4.33301 3 9l116 212c2.66699 6 5.66699 9 9 9c2 0 4.66699 -0.666992 8 -2l22 -8c7.33301 -2 11 -4.66699 11 -8zM196 688
c0 -0.666992 -0.333008 -2 -1 -4l-1 -4l-59 -200c-2 -7.33301 -7 -11 -15 -11h-80c-9.33301 0 -14 2.33301 -14 7c0 2 1.33301 5.33301 4 10l115 212c3.33301 6 6.33301 9 9 9c2 0 5 -0.666992 9 -2l22 -8c7.33301 -2.66699 11 -5.66699 11 -9z" />
    <glyph glyph-name="quotedblright" unicode="&#x201d;" horiz-adv-x="389" 
d="M362 690c0 -0.666992 -1 -4 -3 -10l-116 -212c-2.66699 -6 -5.66699 -9 -9 -9c-1.33301 0 -4 0.666992 -8 2l-23 8c-6.66699 2 -10 5 -10 9c0 1.33301 0.666992 4 2 8l58 200c2 7.33301 7 11 15 11h81c8.66699 0 13 -2.33301 13 -7zM196 689
c0 -1.33301 -1.33398 -4.33301 -4.00098 -9l-115 -212c-3.33301 -6 -6.66602 -9 -9.99902 -9c-2 0 -4.66699 0.666992 -8 2l-22 8c-7.33301 2 -11 5 -11 9c0 1.33301 0.666992 4 2 8l58 200c2 7.33301 7 11 15 11h81c9.33301 0 14 -2.66699 14 -8z" />
    <glyph glyph-name="quotedblbase" unicode="&#x201e;" horiz-adv-x="389" 
d="M362 107c0 -0.666992 -1.00098 -4 -3.00098 -10l-116 -212c-3.33301 -6 -6.33301 -9 -9 -9c-1.33301 0 -4 0.666992 -8 2l-23 8c-6.66699 2 -10 5 -10 9c0.666992 3.33301 1.33398 6 2.00098 8l58 200c2 7.33301 7 11 15 11h81c8.66699 0 13 -2.33301 13 -7zM195.999 107
c0 -2 -1.33398 -5.33398 -4.00098 -10.001l-115 -212c-3.33301 -6 -6.66602 -9 -9.99902 -9c-2 0 -4.66699 0.666992 -8 2l-22 8c-7.33301 2.66699 -11 5.66699 -11 9c0 0.666992 0.666992 3.33398 2 8.00098l58 200c2 7.33301 7 11 15 11h81c9.33301 0 14 -2.33301 14 -7z
" />
    <glyph glyph-name="dagger" unicode="&#x2020;" 
d="M419 402c0 -9.33301 -4.66699 -14 -14 -14h-118v-586c0 -9.33301 -4.66699 -14 -14 -14h-47c-9.33301 0 -14 4.66699 -14 14v586h-117c-9.33301 0 -14 4.66699 -14 14v44c0 9.33301 4.66699 14 14 14h117v212c0 9.33301 4.66699 14 14 14h47
c9.33301 0 14 -4.66699 14 -14v-212h118c9.33301 0 14 -4.66699 14 -14v-44z" />
    <glyph glyph-name="daggerdbl" unicode="&#x2021;" 
d="M419 35c0 -9.33301 -4.66699 -14 -14 -14h-118v-219c0 -9.33301 -4.66699 -14 -14 -14h-46c-9.33301 0 -14 4.66699 -14 14v219h-118c-9.33301 0 -14 4.66699 -14 14v40c0 9.33301 4.66699 14 14 14h118v302h-118c-9.33301 0 -14 4.66699 -14 14v41
c0 9.33301 4.66699 14 14 14h118v212c0 9.33301 4.66699 14 14 14h46c9.33301 0 14 -4.66699 14 -14v-212h118c6.66699 0 10.667 -0.833008 12 -2.5s2 -6.5 2 -14.5v-38c0 -9.33301 -4.66699 -14 -14 -14h-118v-302h118c9.33301 0 14 -4.66699 14 -14v-40z" />
    <glyph glyph-name="bullet" unicode="&#x2022;" horiz-adv-x="686" 
d="M507 348c0 -38.667 -13.835 -72 -41.502 -100s-61.167 -42 -100.5 -42s-73 13.833 -101 41.5s-42 61.167 -42 100.5c0 40 13.833 73.833 41.5 101.5s61.834 41.5 102.501 41.5c38.667 0 71.834 -14 99.501 -42s41.5 -61.667 41.5 -101z" />
    <glyph glyph-name="ellipsis" unicode="&#x2026;" horiz-adv-x="889" 
d="M812 57c0 -19.333 -6.83398 -36 -20.501 -50s-30.167 -21 -49.5 -21c-20 0 -36.833 7 -50.5 21s-20.5 30.667 -20.5 50s7 35.833 21 49.5s31 20.5 51 20.5c18.667 0 34.834 -7 48.501 -21s20.5 -30.333 20.5 -49zM514.999 57c0 -19.333 -6.83398 -36 -20.501 -50
s-30.167 -21 -49.5 -21c-20 0 -36.833 7 -50.5 21s-20.5 30.667 -20.5 50s7 35.833 21 49.5s31 20.5 51 20.5c18.667 0 34.834 -7 48.501 -21s20.5 -30.333 20.5 -49zM218.998 57c0 -19.333 -6.83398 -36 -20.501 -50s-30.167 -21 -49.5 -21
c-20 0 -36.833 6.83301 -50.5 20.5s-20.5 30.5 -20.5 50.5c0 19.333 7 35.833 21 49.5s31 20.5 51 20.5c18.667 0 34.834 -7 48.501 -21s20.5 -30.333 20.5 -49z" />
    <glyph glyph-name="perthousand" unicode="&#x2030;" horiz-adv-x="1074" 
d="M1040 168c0 -56 -12.001 -99.667 -36.001 -131s-57.333 -47 -100 -47c-41.333 0 -73.166 14.167 -95.499 42.5s-33.5 68.5 -33.5 120.5c0 56.667 12 100.5 36 131.5s58 46.5 102 46.5c40 0 71.167 -14.333 93.5 -43s33.5 -68.667 33.5 -120zM715.999 168
c0 -56 -12.001 -99.667 -36.001 -131s-57.333 -47 -100 -47c-41.333 0 -73.166 14.167 -95.499 42.5s-33.5 68.5 -33.5 120.5c0 56.667 12 100.5 36 131.5s58 46.5 102 46.5c40 0 71.167 -14.333 93.5 -43s33.5 -68.667 33.5 -120zM546.998 652
c0 -2 -0.666992 -4.66699 -2 -8l-273 -653c-2.66699 -6.66699 -8.66699 -10 -18 -10h-38c-8.66699 0 -13 2.33301 -13 7c0 2.66699 0.666992 5.66699 2 9l272 653c2.66699 6.66699 7.66699 10 15 10h42c8.66699 0 13 -2.66699 13 -8zM298.998 490
c0 -56 -12.001 -99.667 -36.001 -131s-57.333 -47 -100 -47c-41.333 0 -73.166 14.167 -95.499 42.5s-33.5 68.833 -33.5 121.5c0 56 12 99.5 36 130.5s58 46.5 102 46.5c40 0 71.167 -14.333 93.5 -43s33.5 -68.667 33.5 -120zM973.997 163c0 75.333 -21.333 113 -64 113
c-46 0 -69 -39.333 -69 -118c0 -75.333 21 -113 63 -113c46.667 0 70 39.333 70 118zM649.997 163c0 75.333 -21.333 113 -64 113c-46 0 -69 -39.333 -69 -118c0 -75.333 21 -113 63 -113c46.667 0 70 39.333 70 118zM232.997 485c0 75.333 -21.333 113 -64 113
c-46 0 -69 -39.667 -69 -119c0 -74.667 21.333 -112 64 -112c46 0 69 39.333 69 118z" />
    <glyph glyph-name="guilsinglleft" unicode="&#x2039;" horiz-adv-x="296" 
d="M250 39c0 -2.66699 -3.00098 -5.66797 -9.00098 -9.00098l-28 -15c-4 -2 -7 -3 -9 -3s-5 2.33301 -9 7l-168 211c-2.66699 3.33301 -4 6.66602 -4 9.99902c0 2.66699 1.33301 5.66699 4 9l168 211c2.66699 4.66699 6 7 10 7c2.66699 0 5.33398 -1 8.00098 -3l28 -15
c6 -3.33301 9 -6.66602 9 -9.99902c0 -2 -1.33301 -5 -4 -9l-129 -190l129 -191c2.66699 -5.33301 4 -8.66602 4 -9.99902z" />
    <glyph glyph-name="guilsinglright" unicode="&#x203a;" horiz-adv-x="296" 
d="M273 239c0 -3.33301 -1.33301 -6.33203 -4 -8.99902l-167 -211c-4 -4.66699 -7.66699 -7 -11 -7c-1.33301 0 -4 1 -8 3l-28 15c-6 3.33301 -9 6.33301 -9 9s1.66699 6 5 10l128 190l-128 191c-3.33301 4.66699 -5 7.66699 -5 9c0 3.33301 3 6.66602 9 9.99902l28 15
c4 2 7 3 9 3s5 -2.33301 9 -7l168 -211c2.66699 -2.66699 4 -6 4 -10z" />
    <glyph glyph-name="fraction" unicode="&#x2044;" horiz-adv-x="130" 
d="M237 652c0 -0.666992 -1 -3.33398 -3 -8.00098l-272 -653c-2.66699 -6.66699 -9 -10 -19 -10h-37c-9.33301 0 -14 2.66699 -14 8c0 0.666992 1 3.33398 3 8.00098l272 653c2.66699 6.66699 7.66699 10 15 10h41c9.33301 0 14 -2.66699 14 -8z" />
    <glyph glyph-name="trademark" unicode="&#x2122;" horiz-adv-x="741" 
d="M689 278c0 -8 -4 -12 -12 -12h-122c-8 0 -12 4 -12 12v23c0 8 4 12 12 12h36l-8 240l-69 -189c-2 -6 -6.66699 -9 -14 -9h-17c-7.33301 0 -12 3 -14 9l-67 189l-7 -240h36c8 0 12 -4 12 -12v-23c0 -8 -4 -12 -12 -12h-121c-8.66699 0 -13 4 -13 12v23
c0 8 4.33301 12 13 12h28l18 298h-36c-8 0 -12 3.66699 -12 11v23c0 8 4 12 12 12h86c7.33301 0 12 -3 14 -9l69 -191c0.666992 -2 2 -5.66699 4 -11l1 4l2 7l70 191c3.33301 6 8 9 14 9h87c8 0 12 -4 12 -12v-23c0 -7.33301 -4 -11 -12 -11h-35l18 -298h27
c8 0 12 -4 12 -12v-23zM277 550c0 -8 -4 -12 -12 -12h-27c-8 0 -12 4 -12 12v58h-51v-295h36c8 0 12 -4 12 -12v-23c0 -8 -4 -12 -12 -12h-132c-8 0 -12 4 -12 12v23c0 8 4 12 12 12h37v295h-52v-58c0 -8 -4 -12 -12 -12h-27c-8 0 -12 4 -12 12v94
c0 8.66699 4.33301 13 13 13h238c8.66699 0 13 -4.33301 13 -13v-94z" />
    <glyph glyph-name="partialdiff" unicode="&#x2202;" horiz-adv-x="494" 
d="M436 367c0 -86.667 -15.667 -166.002 -47 -238.002c-40.667 -94.667 -99 -142 -175 -142c-49.333 0 -88 19.667 -116 59c-24 34 -36 77 -36 129c0 52.667 16.333 99.334 49 140.001c34.667 43.333 77.667 65 129 65c58 0 97.333 -31 118 -93c8 30 12 79.333 12 148
c0 111.333 -21 167 -63 167c-11.333 0 -28 -11.667 -50 -35s-40.667 -35 -56 -35c-24.667 0 -37 10.667 -37 32c0 22.667 12 40.667 36 54c20 11.333 42 17 66 17c62 0 107.667 -31 137 -93c22 -47.333 33 -105.666 33 -174.999zM341 223.998
c0 83.333 -28.334 124.999 -85.001 124.999c-43.333 0 -75.666 -28 -96.999 -84c-15.333 -40 -23 -85.667 -23 -137c0 -79.333 28 -119 84 -119c42 0 74 27 96 81c16.667 40.667 25 85.334 25 134.001z" />
    <glyph glyph-name="product" unicode="&#x220f;" horiz-adv-x="823" 
d="M797 -216h-264v32h84v896h-407v-896h84v-32h-264v32h88v896h-88v32h767v-32h-88v-896h88v-32z" />
    <glyph glyph-name="summation" unicode="&#x2211;" horiz-adv-x="713" 
d="M661 20l-53 -236h-572l398 436l-384 524h550l33 -230h-34c-22 72 -52.833 123 -92.5 153s-96.834 45 -171.501 45h-142l325 -446l-359 -394h212c72.667 0 125.334 8.33301 158.001 25c40.667 20 73 61 97 123h35z" />
    <glyph glyph-name="minus" unicode="&#x2212;" 
d="M483 233c0 -9.33301 -4.66699 -14 -14 -14h-438c-9.33301 0 -14 4.66699 -14 14v44c0 9.33301 4.66699 14 14 14h438c9.33301 0 14 -4.66699 14 -14v-44z" />
    <glyph glyph-name="periodcentered" unicode="&#x2219;" horiz-adv-x="257" 
d="M196 244c0 -18.667 -6.5 -34.501 -19.5 -47.501s-28.833 -19.5 -47.5 -19.5s-34.5 6.66699 -47.5 20s-19.5 29.333 -19.5 48s6.5 34.334 19.5 47.001s29.167 19 48.5 19c18 0 33.5 -6.66699 46.5 -20s19.5 -29 19.5 -47z" />
    <glyph glyph-name="radical" unicode="&#x221a;" horiz-adv-x="549" 
d="M594 764h-57l-290 -784h-32l-156 431l-61 -22l-12 39l138 48l125 -346l252 681h93v-47z" />
    <glyph glyph-name="infinity" unicode="&#x221e;" horiz-adv-x="713" 
d="M659 300c0 -50 -11.334 -92.333 -34.001 -127c-26.667 -39.333 -63.667 -59 -111 -59c-62 0 -111.333 41.333 -148 124c-43.333 -82.667 -95.666 -124 -156.999 -124c-47.333 0 -85.666 19.333 -114.999 58c-27.333 35.333 -41 77.333 -41 126c0 50 11.667 92.333 35 127
c26 39.333 63 59 111 59c60.667 0 110 -41.333 148 -124c42 82.667 94.333 124 157 124c47.333 0 85.666 -19.333 114.999 -58c26.667 -35.333 40 -77.333 40 -126zM634.999 303c0 36 -9.66602 65.5 -28.999 88.5s-46.333 34.5 -81 34.5c-51.333 0 -101 -54 -149 -162
c30.667 -57.333 78 -86 142 -86c35.333 0 63.666 12 84.999 36s32 53.667 32 89zM336 334c-31.333 57.333 -78.334 86.001 -141.001 86.001c-35.333 0 -63.666 -12 -84.999 -36s-32 -53.667 -32 -89c0 -34 9.33301 -63 28 -87s44.667 -36 78 -36c34 0 65.667 19.667 95 59
c15.333 21.333 34.333 55.666 57 102.999z" />
    <glyph glyph-name="integral" unicode="&#x222b;" horiz-adv-x="274" 
d="M364 690c0 -32 -16.334 -48 -49.001 -48c-17.333 0 -31.833 12.333 -43.5 37s-21.5 37 -29.5 37c-25.333 0 -41.333 -36.333 -48 -109c-2 -20.667 -6 -123.667 -12 -309c-6 -181.333 -21.667 -302 -47 -362c-33.333 -78 -81.333 -117 -144 -117
c-22 0 -41 5.83301 -57 17.5s-24 28.167 -24 49.5c0 31.333 16.333 47 49 47c17.333 0 32 -12.167 44 -36.5s22 -36.5 30 -36.5c24 0 39.667 36.333 47 109c4 38.667 7 112 9 220c2.66699 112.667 6.33398 196 11.001 250c7.33301 90 20.333 157 39 201
c32.667 78 80.667 117 144 117c22 0 41 -5.83301 57 -17.5s24 -28.167 24 -49.5z" />
    <glyph glyph-name="approxequal" unicode="&#x2248;" horiz-adv-x="549" 
d="M531 297c-54 -36 -102.664 -54 -145.997 -54c-22.667 0 -57.834 7.83301 -105.501 23.5s-84.167 23.5 -109.5 23.5c-40 0 -90.667 -21.667 -152 -65v69c57.333 37.333 109.666 56 156.999 56c25.333 0 53.333 -4.66699 84 -14c19.333 -6.66699 48.666 -16 87.999 -28
c14 -3.33301 28.333 -5 43 -5c36 0 83 21 141 63v-69zM531.003 178c-52.667 -36 -101.332 -54 -145.999 -54c-21.333 0 -56.5 7.83301 -105.5 23.5s-87.167 23.5 -114.5 23.5c-36.667 0 -85.667 -21.667 -147 -65v69c59.333 38 112 57 158 57c23.333 0 51.333 -5 84 -15
l81 -25c17.333 -5.33301 33.666 -8 48.999 -8c35.333 0 82.333 21.333 141 64v-70z" />
    <glyph glyph-name="approxequal" unicode="&#x22f2;" horiz-adv-x="549" 
d="M531 297c-54 -36 -102.664 -54 -145.997 -54c-22.667 0 -57.834 7.83301 -105.501 23.5s-84.167 23.5 -109.5 23.5c-40 0 -90.667 -21.667 -152 -65v69c57.333 37.333 109.666 56 156.999 56c25.333 0 53.333 -4.66699 84 -14c19.333 -6.66699 48.666 -16 87.999 -28
c14 -3.33301 28.333 -5 43 -5c36 0 83 21 141 63v-69zM531.003 178c-52.667 -36 -101.332 -54 -145.999 -54c-21.333 0 -56.5 7.83301 -105.5 23.5s-87.167 23.5 -114.5 23.5c-36.667 0 -85.667 -21.667 -147 -65v69c59.333 38 112 57 158 57c23.333 0 51.333 -5 84 -15
l81 -25c17.333 -5.33301 33.666 -8 48.999 -8c35.333 0 82.333 21.333 141 64v-70z" />
    <glyph glyph-name="notequal" unicode="&#x2260;" horiz-adv-x="549" 
d="M501 139h-279l-117 -117l-39 40l77 77h-95v58h148l79 78h-227v58h279l117 117l40 -40l-78 -77h95v-58h-147l-79 -78h226v-58z" />
    <glyph glyph-name="lessequal" unicode="&#x2264;" horiz-adv-x="549" 
d="M503 127l-456 143v61l456 143v-64l-351 -110l351 -109v-64zM503 0h-457v62h457v-62z" />
    <glyph glyph-name="greaterequal" unicode="&#x2265;" horiz-adv-x="549" 
d="M503 270l-457 -143v64l351 109l-351 110v64l457 -143v-61zM503 0h-457v62h457v-62z" />
    <glyph glyph-name="lozenge" unicode="&#x25ca;" horiz-adv-x="494" 
d="M491 289l-244 -522l-244 522l244 518zM435 289l-188 399l-188 -399l188 -403z" />
    <glyph glyph-name="apple" unicode="&#xf000;" horiz-adv-x="790" 
d="M566 808c0 -34.667 -0.666992 -55.333 -2 -62c-5.33301 -28 -16.666 -50.667 -33.999 -68c-20 -20 -42.667 -37.667 -68 -53c-4.66699 -2.66699 -23.334 -5.66699 -56.001 -9c-2 20 0 37.5 6 52.5s17.333 37.5 34 67.5c18.667 23.333 36.667 39.333 54 48
c25.333 12.667 47.333 20.667 66 24zM733 213.001c-40.667 -87.333 -77.0029 -145.33 -109.003 -173.997l-27 -24c-11.333 -7.33301 -27 -12.666 -47 -15.999c-5.33301 -0.666992 -11 -1 -17 -1c-19.333 0 -37.666 4 -54.999 12c-28.667 13.333 -51.667 20 -69 20
c-16.667 0 -39.667 -6.66699 -69 -20c-18 -8.66699 -35.667 -13 -53 -13c-6 0 -12 0.666992 -18 2c-24.667 4.66699 -45.667 14.667 -63 30c-40 36 -76.333 89.333 -109 160c-27.333 59.333 -41 122.666 -41 189.999c0 15.333 1 29 3 41c13.333 72 42 125.333 86 160
c34 26.667 78 40 132 40c18 0 41 -5.33301 69 -16s49 -16 63 -16c14.667 0 30.334 3.66699 47.001 11c24 9.33301 38 14.666 42 15.999c12 3.33301 26.667 5 44 5c54 0 98 -13.333 132 -40c9.33301 -7.33301 22 -20 38 -38c-31.333 -22.667 -53.666 -45.334 -66.999 -68.001
c-18 -30.667 -26.667 -64 -26 -100c0.666992 -37.333 11.667 -70 33 -98c15.333 -20.667 29.666 -35.334 42.999 -44.001c12.667 -6 25.334 -12.333 38.001 -19z" />
    <glyph glyph-name="fi" unicode="&#xf001;" horiz-adv-x="556" 
d="M480 655c0 -16 -5.66699 -29.667 -17 -41s-25 -17 -41 -17c-16.667 0 -30.667 5.66699 -42 17s-17 25.333 -17 42c0 16 5.83301 29.667 17.5 41s25.834 17 42.501 17c15.333 0 28.666 -5.83301 39.999 -17.5s17 -25.5 17 -41.5zM549 12c0 -8 -3.99805 -12 -11.998 -12
h-216c-8 0 -12 4 -12 12v38c0 8 4 12 12 12h69v356h-212v-356h68c8 0 12 -4 12 -12v-38c0 -8 -4 -12 -12 -12h-199c-8 0 -12 4 -12 12v38c0 8 4 12 12 12h56v356h-66c-8 0 -12 3.66699 -12 11v39c0 8 4 12 12 12h66v78c0 54 8 92.667 24 116
c23.333 33.333 56.666 50 99.999 50c18.667 0 40.667 -4.16699 66 -12.5s38 -15.5 38 -21.5l-1 -7l-17 -41c-2.66699 -4 -5.33398 -6 -8.00098 -6c-2 0 -10 3 -24 9c-22 10 -40 15 -54 15c-16 0 -28.167 -6.5 -36.5 -19.5s-12.5 -40.833 -12.5 -83.5v-77h276
c7.33301 0 11 -4 11 -12v-406h72c8 0 12 -4 12 -12v-38z" />
    <glyph glyph-name="fl" unicode="&#xf002;" horiz-adv-x="556" 
d="M562 14c0 -5.33301 -9.66504 -10.666 -28.998 -15.999s-38 -8 -56 -8c-57.333 0 -91.333 23.333 -102 70c-3.33301 14.667 -5 55.667 -5 123v452c-36.667 16.667 -77 25 -121 25c-29.333 0 -48.5 -6.5 -57.5 -19.5s-13.5 -40.833 -13.5 -83.5v-77h131
c7.33301 0 11 -2.33301 11 -7c0 -3.33301 -0.333008 -5.33301 -1 -6l-13 -40c-2 -6 -6.33301 -9 -13 -9h-115v-356h71c8 0 12 -4 12 -12v-38c0 -8 -4 -12 -12 -12h-202c-8 0 -12 4 -12 12v38c0 8 4 12 12 12h56v356h-66c-8 0 -12 3.66699 -12 11v39c0 8 4 12 12 12h66v78
c0 54 9.66699 92.667 29 116c27.333 33.333 69.666 50 126.999 50c45.333 0 82.333 -8 111 -24l62 23c0.666992 0.666992 3 1 7 1s6 -3.66699 6 -11v-531c0 -46 1 -76.333 3 -91c3.33301 -25.333 16.666 -38 39.999 -38c14.667 0 29.667 3.66699 45 11
c4 1.33301 6.66699 2 8 2c2.66699 0 5 -2 7 -6l12 -38c1.33301 -2.66699 2 -5.33398 2 -8.00098z" />
    <glyph glyph-name=".null" horiz-adv-x="0" 
 />
    <glyph glyph-name="glyph2" horiz-adv-x="206" 
 />
    <glyph glyph-name="HT" horiz-adv-x="206" 
 />
    <glyph glyph-name="nonmarkingreturn" horiz-adv-x="206" 
 />
    <glyph glyph-name="glyph249" horiz-adv-x="206" 
 />
    </font>
</defs>
</svg>
